<?xml version="1.0" encoding="UTF-8" standalone="no"?>
<!DOCTYPE svg PUBLIC "-//W3C//DTD SVG 1.1//EN" "http://www.w3.org/Graphics/SVG/1.1/DTD/svg11.dtd">
<svg width="100%" height="100%" viewBox="0 0 1800 1350" version="1.1" xmlns="http://www.w3.org/2000/svg" xmlns:xlink="http://www.w3.org/1999/xlink" xml:space="preserve" xmlns:serif="http://www.serif.com/" style="fill-rule:evenodd;clip-rule:evenodd;stroke-miterlimit:10;">
    <g transform="matrix(5.05015,0,0,5.05015,-2926.56,-5083.98)">
        <g transform="matrix(-1.33333,0,0,1.33699,1515.42,691.723)">
            <rect x="434.623" y="235.215" width="267.319" height="200.681" style="fill:rgb(154,0,4);stroke:rgb(114,113,113);stroke-width:0.25px;"/>
        </g>
        <g>
            <g transform="matrix(1.33333,0,0,1.33333,618.11,1024.37)">
                <path d="M0,-2.736C0.172,-2.753 0.343,-2.785 0.524,-2.812C0.564,-2.602 0.565,-2.599 0.429,-2.514C0.142,-2.334 -0.152,-2.166 -0.494,-2.117C-0.612,-2.1 -0.735,-2.105 -0.799,-1.975C-0.802,-1.97 -0.827,-1.975 -0.851,-1.975C-0.652,-2.332 -0.47,-2.691 0,-2.736M1.526,-1.882C1.632,-1.899 1.741,-1.93 1.836,-1.979C2.06,-2.093 2.071,-2.334 1.867,-2.479C1.738,-2.57 1.587,-2.598 1.435,-2.623C1.408,-2.627 1.382,-2.631 1.351,-2.636C1.3,-2.735 1.324,-2.835 1.327,-2.949C1.709,-2.931 2.054,-2.852 2.337,-2.599C2.636,-2.332 2.614,-2.062 2.278,-1.836C2.037,-1.675 1.766,-1.59 1.484,-1.543C1.269,-1.507 1.049,-1.502 0.834,-1.466C0.686,-1.441 0.535,-1.403 0.398,-1.341C0.227,-1.263 0.226,-1.145 0.375,-1.03C0.406,-1.007 0.439,-0.987 0.472,-0.968C0.641,-0.873 0.641,-0.873 0.599,-0.641C0.385,-0.663 0.19,-0.714 0.016,-0.822C-0.277,-1.005 -0.281,-1.338 0.005,-1.535C0.184,-1.658 0.392,-1.713 0.602,-1.748C0.909,-1.798 1.219,-1.832 1.526,-1.882M0.779,-3.78C0.922,-3.844 1.066,-3.843 1.203,-3.76C1.299,-3.702 1.32,-3.645 1.288,-3.539C1.28,-3.513 1.274,-3.485 1.258,-3.463C1.146,-3.306 1.142,-3.127 1.142,-2.945C1.143,-2.715 1.141,-2.485 1.137,-2.256C1.135,-2.158 1.123,-2.061 1.114,-1.951C1.006,-1.929 0.921,-1.911 0.836,-1.895C0.81,-1.891 0.783,-1.894 0.734,-1.894C0.734,-1.975 0.736,-2.05 0.734,-2.125C0.724,-2.475 0.715,-2.825 0.699,-3.175C0.694,-3.288 0.671,-3.402 0.65,-3.514C0.625,-3.646 0.657,-3.724 0.779,-3.78M0.738,-1.344C0.865,-1.357 0.962,-1.365 1.076,-1.376C1.084,-1.307 1.097,-1.244 1.098,-1.182C1.103,-0.925 1.105,-0.669 1.106,-0.413C1.107,-0.239 1.063,-0.195 0.887,-0.191C0.85,-0.19 0.812,-0.198 0.758,-0.204C0.733,-0.581 0.739,-0.954 0.738,-1.344M1.835,-0.182C1.773,-0.119 1.69,-0.06 1.606,-0.036C1.37,0.03 1.13,0.082 0.89,0.13C0.665,0.175 0.664,0.17 0.675,0.399C0.676,0.409 0.669,0.42 0.665,0.43C0.541,0.471 0.454,0.446 0.403,0.353C0.348,0.254 0.36,0.12 0.454,0.058C0.543,-0.001 0.647,-0.041 0.749,-0.074C0.905,-0.123 1.066,-0.156 1.223,-0.2C1.28,-0.216 1.337,-0.239 1.388,-0.27C1.485,-0.329 1.481,-0.395 1.378,-0.449C1.334,-0.472 1.287,-0.487 1.227,-0.512L1.227,-0.768C1.452,-0.728 1.664,-0.691 1.827,-0.532C1.935,-0.428 1.941,-0.289 1.835,-0.182M1.485,0.779C1.393,0.732 1.303,0.681 1.217,0.623C1.191,0.606 1.183,0.564 1.166,0.533C1.199,0.518 1.232,0.49 1.263,0.491C1.372,0.495 1.545,0.642 1.611,0.795C1.555,0.789 1.515,0.794 1.485,0.779M1.067,1.423C1.056,1.507 0.991,1.561 0.91,1.553C0.833,1.545 0.793,1.501 0.793,1.423C0.793,1.374 0.792,1.325 0.792,1.276C0.79,0.982 0.787,0.687 0.786,0.393C0.786,0.345 0.793,0.297 0.798,0.23C0.886,0.224 0.955,0.219 1.038,0.213C1.046,0.269 1.057,0.315 1.058,0.361C1.063,0.688 1.066,1.015 1.069,1.342C1.07,1.369 1.071,1.396 1.067,1.423M-1.717,-0.144C-1.66,-0.15 -1.607,-0.154 -1.553,-0.159C-1.073,-0.206 -0.628,-0.111 -0.229,0.168C0.054,0.365 0.273,0.624 0.448,0.918C0.57,1.124 0.679,1.34 0.782,1.557C0.824,1.646 0.875,1.682 0.969,1.672C1.111,1.657 1.252,1.643 1.394,1.634C1.494,1.628 1.545,1.577 1.587,1.488C1.927,0.765 2.49,0.32 3.273,0.164C3.374,0.143 3.424,0.099 3.461,0.012C3.68,-0.494 3.746,-1.018 3.661,-1.562C3.385,-3.323 1.521,-4.418 -0.204,-3.687C-1.37,-3.193 -2.04,-1.997 -1.874,-0.738C-1.847,-0.538 -1.806,-0.34 -1.717,-0.144" style="fill:white;fill-rule:nonzero;"/>
            </g>
            <g transform="matrix(1.33333,0,0,1.33333,614.624,1030.01)">
                <path d="M0,-0.62C-0.213,-1.275 -0.419,-1.932 -0.695,-2.564C-0.853,-2.926 -1.039,-3.272 -1.305,-3.569C-1.537,-3.828 -1.81,-4.022 -2.159,-4.087C-2.658,-4.179 -3.146,-4.101 -3.631,-3.969C-3.36,-3.874 -3.159,-3.697 -3.005,-3.473C-2.851,-3.248 -2.706,-3.014 -2.585,-2.771C-2.277,-2.152 -2.068,-1.495 -1.893,-0.829C-1.722,-0.179 -1.547,0.47 -1.306,1.098C-1.074,1.701 -0.821,2.295 -0.453,2.83C-0.327,3.013 -0.174,3.18 -0.018,3.339C0.129,3.489 0.323,3.549 0.534,3.552C1.006,3.559 1.283,3.255 1.562,2.935C1.048,2.278 0.742,1.535 0.469,0.779C0.301,0.316 0.152,-0.152 0,-0.62" style="fill:white;fill-rule:nonzero;"/>
            </g>
            <g transform="matrix(1.33333,0,0,1.33333,618.429,1026.84)">
                <path d="M0,3.912C-0.308,3.3 -0.555,2.664 -0.784,2.019C-1.015,1.365 -1.238,0.708 -1.476,0.056C-1.631,-0.366 -1.828,-0.769 -2.118,-1.119C-2.421,-1.484 -2.793,-1.74 -3.264,-1.834C-3.639,-1.908 -4.015,-1.891 -4.39,-1.829C-4.466,-1.816 -4.542,-1.797 -4.617,-1.781C-4.428,-1.673 -4.265,-1.551 -4.14,-1.391C-3.972,-1.176 -3.805,-0.957 -3.669,-0.722C-3.286,-0.061 -3.027,0.654 -2.811,1.384C-2.598,2.102 -2.391,2.822 -2.114,3.518C-1.909,4.032 -1.678,4.534 -1.356,4.987C-1.18,5.233 -0.977,5.453 -0.721,5.621C-0.419,5.82 -0.123,5.801 0.169,5.609C0.382,5.47 0.545,5.279 0.71,5.072C0.686,5.034 0.673,5.011 0.656,4.989C0.401,4.653 0.19,4.289 0,3.912" style="fill:white;fill-rule:nonzero;"/>
            </g>
            <g transform="matrix(1.33333,0,0,1.33333,621.061,1026.78)">
                <path d="M0,3.822C-0.369,3.173 -0.612,2.47 -0.855,1.767C-1.088,1.096 -1.328,0.428 -1.582,-0.235C-1.716,-0.589 -1.905,-0.917 -2.152,-1.207C-2.409,-1.509 -2.723,-1.708 -3.118,-1.782C-3.603,-1.872 -4.075,-1.813 -4.562,-1.694C-4.423,-1.582 -4.294,-1.492 -4.179,-1.385C-3.907,-1.13 -3.726,-0.81 -3.573,-0.476C-3.232,0.265 -2.961,1.033 -2.696,1.802C-2.5,2.371 -2.305,2.939 -2.057,3.487C-1.81,4.031 -1.542,4.564 -1.17,5.034C-1.033,5.208 -0.868,5.365 -0.7,5.511C-0.541,5.65 -0.34,5.694 -0.131,5.665C0.22,5.615 0.489,5.431 0.688,5.143C0.777,5.014 0.766,5.014 0.681,4.884C0.45,4.533 0.208,4.187 0,3.822" style="fill:white;fill-rule:nonzero;"/>
            </g>
            <g transform="matrix(1.33333,0,0,1.33333,627.742,1030.76)">
                <path d="M0,-4.744C-0.291,-4.554 -0.607,-4.446 -0.959,-4.457C-1.144,-4.463 -1.33,-4.472 -1.515,-4.48C-1.903,-4.497 -2.292,-4.508 -2.679,-4.534C-3.134,-4.564 -3.587,-4.553 -4.033,-4.452C-4.655,-4.312 -5.159,-3.997 -5.45,-3.411C-5.749,-2.811 -5.827,-2.169 -5.729,-1.511C-5.645,-0.945 -5.423,-0.418 -5.219,0.112C-5.214,0.126 -5.199,0.135 -5.177,0.159C-5.18,0.102 -5.18,0.059 -5.185,0.018C-5.221,-0.255 -5.209,-0.528 -5.176,-0.8C-5.118,-1.289 -4.953,-1.732 -4.641,-2.118C-4.408,-2.405 -4.119,-2.598 -3.756,-2.673C-3.623,-2.701 -3.487,-2.731 -3.352,-2.732C-2.915,-2.735 -2.477,-2.738 -2.041,-2.714C-1.784,-2.7 -1.538,-2.73 -1.297,-2.802C-0.908,-2.917 -0.572,-3.119 -0.36,-3.475C-0.095,-3.918 0.095,-4.395 0.245,-4.903C0.164,-4.85 0.082,-4.797 0,-4.744" style="fill:white;fill-rule:nonzero;"/>
            </g>
            <g transform="matrix(1.33333,0,0,1.33333,626.932,1032.62)">
                <path d="M0,-4.41C-0.096,-4.358 -0.192,-4.307 -0.287,-4.253C-0.78,-3.974 -1.305,-3.875 -1.867,-3.97C-2.192,-4.024 -2.519,-4.04 -2.846,-3.979C-3.553,-3.846 -4.054,-3.455 -4.295,-2.772C-4.498,-2.196 -4.51,-1.604 -4.366,-1.012C-4.274,-0.637 -4.095,-0.301 -3.85,0.002C-3.889,-0.262 -3.937,-0.525 -3.963,-0.79C-4.004,-1.204 -3.933,-1.594 -3.692,-1.945C-3.565,-2.131 -3.393,-2.234 -3.175,-2.252C-2.985,-2.268 -2.793,-2.276 -2.603,-2.268C-2.317,-2.255 -2.034,-2.266 -1.755,-2.322C-1.401,-2.393 -1.064,-2.515 -0.829,-2.807C-0.482,-3.24 -0.199,-3.713 -0.012,-4.238C0.008,-4.292 0.018,-4.349 0.035,-4.41C0.011,-4.41 0.004,-4.412 0,-4.41" style="fill:white;fill-rule:nonzero;"/>
            </g>
            <g transform="matrix(1.33333,0,0,1.33333,617.741,1036.02)">
                <path d="M0,-0.022C-0.183,-0.024 -0.278,-0.11 -0.275,-0.271C-0.273,-0.43 -0.17,-0.522 0.004,-0.523C0.176,-0.523 0.277,-0.428 0.278,-0.267C0.278,-0.104 0.183,-0.02 0,-0.022M0.386,-0.633C0.1,-0.73 -0.185,-0.723 -0.459,-0.592C-0.602,-0.524 -0.695,-0.408 -0.687,-0.242C-0.679,-0.077 -0.576,0.027 -0.43,0.087C-0.248,0.162 -0.06,0.181 0.132,0.127C0.176,0.114 0.221,0.104 0.27,0.092C0.302,0.196 0.285,0.283 0.251,0.362C0.176,0.541 -0.084,0.601 -0.195,0.453C-0.261,0.365 -0.331,0.361 -0.418,0.362C-0.489,0.363 -0.56,0.362 -0.649,0.362C-0.647,0.536 -0.541,0.603 -0.418,0.64C-0.195,0.708 0.036,0.704 0.263,0.658C0.49,0.612 0.636,0.468 0.666,0.238C0.687,0.066 0.691,-0.112 0.674,-0.284C0.656,-0.452 0.549,-0.577 0.386,-0.633" style="fill:white;fill-rule:nonzero;"/>
            </g>
            <g transform="matrix(1.33333,0,0,1.33333,620.921,1036.27)">
                <path d="M0,-0.312C-0.071,-0.349 -0.154,-0.367 -0.233,-0.382C-0.404,-0.416 -0.569,-0.382 -0.73,-0.321C-0.76,-0.506 -0.756,-0.553 -0.692,-0.69L0.098,-0.69C0.101,-0.736 0.105,-0.758 0.103,-0.779C0.101,-0.799 0.093,-0.819 0.088,-0.837L-1.076,-0.837C-1.093,-0.583 -1.11,-0.34 -1.127,-0.076C-0.996,-0.074 -0.882,-0.063 -0.77,-0.075C-0.725,-0.08 -0.686,-0.135 -0.643,-0.166C-0.541,-0.24 -0.392,-0.238 -0.289,-0.164C-0.199,-0.098 -0.164,0.014 -0.198,0.128C-0.239,0.267 -0.331,0.335 -0.473,0.343C-0.608,0.35 -0.699,0.281 -0.751,0.188L-1.131,0.188C-1.107,0.348 -1.001,0.416 -0.877,0.451C-0.613,0.525 -0.347,0.523 -0.088,0.424C-0.028,0.401 0.031,0.366 0.079,0.323C0.285,0.139 0.245,-0.185 0,-0.312" style="fill:white;fill-rule:nonzero;"/>
            </g>
            <g transform="matrix(1.33333,0,0,1.33333,614.561,1036.55)">
                <path d="M0,-0.863L0,-0.626C0.155,-0.68 0.296,-0.73 0.461,-0.787C0.461,-0.594 0.458,-0.42 0.461,-0.247C0.465,-0.075 0.444,0.099 0.477,0.268L0.857,0.268L0.857,-1.04C0.533,-1.131 0.275,-0.968 0,-0.863" style="fill:white;fill-rule:nonzero;"/>
            </g>
            <g transform="matrix(1.33333,0,0,1.33333,622.093,1036.5)">
                <path d="M0,-0.867L0,-0.647C0.155,-0.7 0.295,-0.748 0.459,-0.804L0.459,0.247L0.856,0.247L0.856,-1.061C0.548,-1.114 0.303,-1.057 0,-0.867" style="fill:white;fill-rule:nonzero;"/>
            </g>
            <g transform="matrix(1.33333,0,0,1.33333,617.777,1021.11)">
                <path d="M0,0.112L0.005,0.112C0.02,0.112 0.033,0.101 0.048,0.086C0.055,0.079 0.063,0.072 0.073,0.064L0.096,0.045L0.069,0.032C0.059,0.027 0.051,0.022 0.043,0.018C0.026,0.009 0.012,0.001 -0.004,0.001C-0.024,0 -0.038,0.02 -0.043,0.027C-0.051,0.038 -0.054,0.048 -0.051,0.057C-0.044,0.076 -0.025,0.108 0,0.112" style="fill:white;fill-rule:nonzero;"/>
            </g>
            <g transform="matrix(1.33333,0,0,1.33333,635.564,1035.06)">
                <path d="M0,0.049C-0.063,-0.004 -0.141,-0.048 -0.234,-0.082C-0.325,-0.115 -0.431,-0.146 -0.548,-0.173C-0.65,-0.199 -0.734,-0.224 -0.797,-0.248C-0.859,-0.271 -0.908,-0.297 -0.942,-0.325C-0.975,-0.353 -0.998,-0.382 -1.009,-0.414C-1.022,-0.447 -1.028,-0.486 -1.028,-0.531C-1.028,-0.627 -0.996,-0.699 -0.932,-0.752C-0.867,-0.806 -0.764,-0.833 -0.626,-0.833C-0.477,-0.833 -0.364,-0.799 -0.29,-0.731C-0.215,-0.662 -0.174,-0.579 -0.164,-0.477L-0.162,-0.455L0.148,-0.455L0.145,-0.482C0.127,-0.677 0.05,-0.835 -0.081,-0.952C-0.213,-1.069 -0.398,-1.127 -0.629,-1.127C-0.731,-1.127 -0.825,-1.114 -0.91,-1.088C-0.995,-1.062 -1.071,-1.023 -1.134,-0.972C-1.197,-0.921 -1.247,-0.856 -1.282,-0.781C-1.317,-0.706 -1.334,-0.619 -1.334,-0.524C-1.334,-0.428 -1.319,-0.343 -1.29,-0.272C-1.26,-0.201 -1.215,-0.138 -1.154,-0.087C-1.095,-0.037 -1.02,0.007 -0.93,0.044C-0.843,0.079 -0.738,0.11 -0.62,0.136C-0.512,0.161 -0.423,0.187 -0.355,0.213C-0.29,0.239 -0.238,0.268 -0.202,0.3C-0.166,0.331 -0.142,0.365 -0.13,0.402C-0.116,0.44 -0.109,0.483 -0.109,0.531C-0.109,0.636 -0.146,0.718 -0.223,0.784C-0.299,0.849 -0.417,0.882 -0.575,0.882C-0.728,0.882 -0.853,0.842 -0.947,0.763C-1.04,0.683 -1.089,0.579 -1.095,0.444L-1.096,0.421L-1.411,0.421L-1.41,0.446C-1.406,0.546 -1.383,0.643 -1.341,0.732C-1.3,0.821 -1.242,0.899 -1.17,0.965C-1.098,1.031 -1.011,1.083 -0.91,1.12C-0.809,1.157 -0.697,1.176 -0.575,1.176C-0.465,1.176 -0.363,1.162 -0.27,1.135C-0.177,1.108 -0.094,1.067 -0.027,1.012C0.042,0.958 0.097,0.89 0.135,0.809C0.174,0.728 0.194,0.635 0.194,0.531C0.194,0.42 0.178,0.324 0.145,0.247C0.112,0.169 0.063,0.102 0,0.049" style="fill:white;fill-rule:nonzero;"/>
            </g>
            <g transform="matrix(1.33333,0,0,1.33333,638.332,1035.37)">
                <path d="M0,-0.413L-1.009,-0.413L-1.009,-1.318L-1.325,-1.318L-1.325,0.905L-1.009,0.905L-1.009,-0.109L0,-0.109L0,0.905L0.316,0.905L0.316,-1.318L0,-1.318L0,-0.413Z" style="fill:white;fill-rule:nonzero;"/>
            </g>
            <g transform="matrix(1.33333,0,0,1.33333,640.196,1034.78)">
                <path d="M0,0.47L0.256,-0.284C0.267,-0.311 0.276,-0.34 0.283,-0.372C0.29,-0.402 0.298,-0.43 0.306,-0.456C0.307,-0.458 0.307,-0.461 0.308,-0.463L0.357,-0.285L0.608,0.47L0,0.47ZM0.467,-0.877L0.159,-0.877L-0.614,1.347L-0.296,1.347L-0.101,0.768L0.706,0.768L0.9,1.347L1.225,1.347L0.472,-0.86L0.467,-0.877Z" style="fill:white;fill-rule:nonzero;"/>
            </g>
            <g transform="matrix(1.33333,0,0,1.33333,644.212,1034.34)">
                <path d="M0,1.122L-0.979,-0.539L-0.986,-0.551L-1.319,-0.551L-1.319,1.673L-1.028,1.673L-1.028,-0.039L-0.024,1.661L-0.017,1.673L0.291,1.673L0.291,-0.551L0,-0.551L0,1.122Z" style="fill:white;fill-rule:nonzero;"/>
            </g>
            <g transform="matrix(1.33333,0,0,1.33333,647.301,1034.6)">
                <path d="M0,0.736C-0.033,0.838 -0.08,0.923 -0.14,0.988C-0.2,1.053 -0.273,1.102 -0.355,1.134C-0.438,1.166 -0.53,1.182 -0.63,1.182L-1.023,1.182L-1.023,-0.447L-0.63,-0.447C-0.531,-0.447 -0.438,-0.431 -0.354,-0.402C-0.272,-0.372 -0.201,-0.325 -0.142,-0.261C-0.083,-0.196 -0.035,-0.112 -0.001,-0.01C0.033,0.092 0.051,0.218 0.051,0.364C0.051,0.508 0.034,0.633 0,0.736M0.102,-0.447C0.015,-0.542 -0.092,-0.616 -0.215,-0.667C-0.338,-0.718 -0.478,-0.744 -0.63,-0.744L-1.338,-0.744L-1.338,1.48L-0.63,1.48C-0.478,1.48 -0.338,1.454 -0.215,1.402C-0.092,1.351 0.015,1.276 0.102,1.179C0.188,1.082 0.257,0.964 0.304,0.827C0.351,0.69 0.375,0.535 0.375,0.364C0.375,0.194 0.351,0.039 0.304,-0.098C0.257,-0.235 0.188,-0.352 0.102,-0.447" style="fill:white;fill-rule:nonzero;"/>
            </g>
            <g transform="matrix(1.33333,0,0,1.33333,650.613,1034.62)">
                <path d="M0,0.71C-0.036,0.816 -0.085,0.907 -0.148,0.981C-0.21,1.054 -0.285,1.112 -0.369,1.152C-0.454,1.192 -0.547,1.212 -0.646,1.212C-0.745,1.212 -0.838,1.192 -0.923,1.152C-1.007,1.112 -1.082,1.054 -1.144,0.981C-1.207,0.907 -1.256,0.816 -1.292,0.71C-1.327,0.604 -1.345,0.484 -1.345,0.353C-1.345,0.222 -1.327,0.102 -1.292,-0.004C-1.256,-0.109 -1.207,-0.2 -1.144,-0.273C-1.082,-0.346 -1.007,-0.403 -0.923,-0.443C-0.838,-0.483 -0.745,-0.503 -0.646,-0.503C-0.545,-0.503 -0.45,-0.483 -0.364,-0.444C-0.279,-0.405 -0.205,-0.349 -0.143,-0.276C-0.082,-0.204 -0.033,-0.113 0.001,-0.007C0.036,0.099 0.053,0.22 0.053,0.353C0.053,0.485 0.035,0.605 0,0.71M0.082,-0.48C-0.011,-0.582 -0.12,-0.661 -0.244,-0.715C-0.368,-0.77 -0.504,-0.797 -0.646,-0.797C-0.787,-0.797 -0.921,-0.769 -1.045,-0.712C-1.169,-0.655 -1.279,-0.575 -1.37,-0.474C-1.462,-0.373 -1.536,-0.252 -1.59,-0.112C-1.643,0.028 -1.67,0.185 -1.67,0.353C-1.67,0.522 -1.643,0.678 -1.59,0.819C-1.536,0.96 -1.462,1.083 -1.37,1.183C-1.279,1.285 -1.169,1.365 -1.045,1.421C-0.921,1.478 -0.787,1.507 -0.646,1.507C-0.505,1.507 -0.371,1.478 -0.247,1.421C-0.123,1.365 -0.014,1.285 0.079,1.183C0.17,1.082 0.244,0.96 0.297,0.819C0.351,0.678 0.378,0.522 0.378,0.353C0.378,0.182 0.351,0.024 0.299,-0.116C0.247,-0.257 0.173,-0.38 0.082,-0.48" style="fill:white;fill-rule:nonzero;"/>
            </g>
            <g transform="matrix(1.33333,0,0,1.33333,653.626,1034.34)">
                <path d="M0,1.122L-0.979,-0.539L-0.986,-0.551L-1.319,-0.551L-1.319,1.673L-1.028,1.673L-1.028,-0.039L-0.024,1.661L-0.017,1.673L0.291,1.673L0.291,-0.551L0,-0.551L0,1.122Z" style="fill:white;fill-rule:nonzero;"/>
            </g>
            <g transform="matrix(1.33333,0,0,1.33333,656.235,1034.75)">
                <path d="M0,0.506L0.573,0.506C0.567,0.583 0.548,0.657 0.519,0.725C0.486,0.801 0.44,0.868 0.382,0.924C0.325,0.98 0.255,1.026 0.177,1.059C0.098,1.093 0.008,1.11 -0.09,1.11C-0.189,1.11 -0.282,1.09 -0.366,1.05C-0.449,1.011 -0.523,0.953 -0.583,0.88C-0.644,0.806 -0.692,0.715 -0.726,0.609C-0.761,0.503 -0.779,0.383 -0.779,0.252C-0.779,0.12 -0.761,-0 -0.727,-0.106C-0.692,-0.211 -0.644,-0.302 -0.583,-0.374C-0.523,-0.447 -0.45,-0.504 -0.367,-0.544C-0.283,-0.584 -0.19,-0.604 -0.091,-0.604C-0.025,-0.604 0.04,-0.596 0.103,-0.579C0.165,-0.563 0.223,-0.537 0.275,-0.503C0.327,-0.468 0.373,-0.424 0.412,-0.371C0.451,-0.318 0.481,-0.252 0.502,-0.177L0.507,-0.159L0.824,-0.159L0.816,-0.189C0.788,-0.309 0.743,-0.414 0.684,-0.502C0.625,-0.591 0.554,-0.665 0.473,-0.724C0.392,-0.783 0.302,-0.828 0.206,-0.856C0.109,-0.884 0.009,-0.899 -0.091,-0.899C-0.23,-0.899 -0.362,-0.87 -0.484,-0.813C-0.607,-0.756 -0.715,-0.677 -0.807,-0.576C-0.899,-0.475 -0.972,-0.352 -1.024,-0.213C-1.077,-0.073 -1.103,0.083 -1.103,0.252C-1.103,0.421 -1.076,0.577 -1.024,0.717C-0.971,0.859 -0.899,0.981 -0.808,1.082C-0.716,1.183 -0.608,1.263 -0.486,1.32C-0.364,1.376 -0.231,1.405 -0.09,1.405C0.001,1.405 0.085,1.394 0.159,1.372C0.233,1.35 0.301,1.32 0.359,1.281C0.418,1.243 0.469,1.198 0.512,1.149C0.535,1.122 0.557,1.093 0.577,1.064L0.577,1.367L0.872,1.367L0.872,0.202L0,0.202L0,0.506Z" style="fill:white;fill-rule:nonzero;"/>
            </g>
            <g transform="matrix(1.33333,0,0,1.33333,661.354,1035.06)">
                <path d="M0,0.049C-0.062,-0.004 -0.141,-0.048 -0.234,-0.082C-0.325,-0.115 -0.431,-0.146 -0.548,-0.173C-0.65,-0.199 -0.734,-0.224 -0.797,-0.248C-0.859,-0.271 -0.908,-0.297 -0.943,-0.325C-0.975,-0.353 -0.998,-0.382 -1.009,-0.414C-1.022,-0.447 -1.028,-0.486 -1.028,-0.531C-1.028,-0.627 -0.996,-0.699 -0.932,-0.752C-0.867,-0.806 -0.764,-0.833 -0.626,-0.833C-0.477,-0.833 -0.364,-0.799 -0.29,-0.731C-0.215,-0.662 -0.174,-0.579 -0.164,-0.477L-0.162,-0.455L0.148,-0.455L0.145,-0.482C0.127,-0.677 0.05,-0.835 -0.081,-0.952C-0.213,-1.069 -0.398,-1.127 -0.629,-1.127C-0.731,-1.127 -0.825,-1.114 -0.91,-1.088C-0.995,-1.062 -1.071,-1.023 -1.134,-0.972C-1.197,-0.921 -1.247,-0.856 -1.282,-0.781C-1.317,-0.706 -1.334,-0.619 -1.334,-0.524C-1.334,-0.428 -1.319,-0.343 -1.29,-0.272C-1.26,-0.201 -1.215,-0.138 -1.154,-0.087C-1.095,-0.037 -1.02,0.007 -0.93,0.044C-0.843,0.079 -0.738,0.11 -0.62,0.136C-0.512,0.161 -0.423,0.187 -0.355,0.213C-0.29,0.239 -0.238,0.268 -0.202,0.3C-0.166,0.331 -0.142,0.365 -0.13,0.402C-0.116,0.44 -0.109,0.483 -0.109,0.531C-0.109,0.636 -0.147,0.718 -0.223,0.784C-0.299,0.849 -0.417,0.882 -0.575,0.882C-0.728,0.882 -0.853,0.842 -0.947,0.763C-1.04,0.683 -1.089,0.579 -1.095,0.444L-1.096,0.421L-1.411,0.421L-1.41,0.446C-1.406,0.546 -1.383,0.643 -1.341,0.732C-1.3,0.821 -1.242,0.899 -1.17,0.965C-1.098,1.031 -1.011,1.083 -0.91,1.12C-0.809,1.157 -0.697,1.176 -0.575,1.176C-0.465,1.176 -0.363,1.162 -0.27,1.135C-0.176,1.108 -0.094,1.067 -0.027,1.012C0.042,0.958 0.097,0.89 0.135,0.809C0.174,0.728 0.194,0.635 0.194,0.531C0.194,0.42 0.178,0.324 0.145,0.247C0.112,0.169 0.063,0.102 0,0.049" style="fill:white;fill-rule:nonzero;"/>
            </g>
            <g transform="matrix(1.33333,0,0,1.33333,662.775,1034.97)">
                <path d="M0,0.189L0.93,0.189L0.93,-0.112L0,-0.112L0,-0.716L1.094,-0.716L1.094,-1.017L-0.316,-1.017L-0.316,1.206L1.109,1.206L1.109,0.905L0,0.905L0,0.189Z" style="fill:white;fill-rule:nonzero;"/>
            </g>
            <g transform="matrix(1.33333,0,0,1.33333,666.971,1034.57)">
                <path d="M0,0.784C-0.039,0.926 -0.112,1.04 -0.218,1.124C-0.324,1.207 -0.452,1.249 -0.6,1.249C-0.697,1.249 -0.789,1.229 -0.874,1.189C-0.958,1.149 -1.033,1.092 -1.095,1.018C-1.158,0.944 -1.207,0.853 -1.243,0.747C-1.278,0.642 -1.296,0.522 -1.296,0.391C-1.296,0.259 -1.278,0.139 -1.243,0.034C-1.207,-0.072 -1.158,-0.162 -1.097,-0.235C-1.035,-0.308 -0.962,-0.365 -0.878,-0.405C-0.795,-0.445 -0.703,-0.465 -0.606,-0.465C-0.44,-0.465 -0.309,-0.424 -0.214,-0.343C-0.119,-0.261 -0.048,-0.151 -0.003,-0.015L0.003,0.002L0.312,0.002L0.305,-0.028C0.249,-0.249 0.144,-0.428 -0.008,-0.56C-0.161,-0.692 -0.362,-0.76 -0.606,-0.76C-0.745,-0.76 -0.877,-0.731 -0.999,-0.674C-1.121,-0.618 -1.229,-0.538 -1.321,-0.437C-1.413,-0.336 -1.487,-0.214 -1.54,-0.074C-1.594,0.066 -1.621,0.222 -1.621,0.391C-1.621,0.559 -1.594,0.716 -1.54,0.856C-1.487,0.998 -1.412,1.12 -1.32,1.221C-1.227,1.322 -1.118,1.402 -0.995,1.458C-0.871,1.515 -0.739,1.544 -0.6,1.544C-0.362,1.544 -0.162,1.477 -0.007,1.343C0.148,1.211 0.257,1.027 0.317,0.796L0.325,0.766L0.005,0.766L0,0.784Z" style="fill:white;fill-rule:nonzero;"/>
            </g>
            <g transform="matrix(1.33333,0,0,1.33333,670.141,1034.62)">
                <path d="M0,0.71C-0.036,0.816 -0.085,0.907 -0.148,0.981C-0.21,1.054 -0.285,1.112 -0.369,1.152C-0.454,1.192 -0.547,1.212 -0.646,1.212C-0.745,1.212 -0.838,1.192 -0.923,1.152C-1.007,1.112 -1.082,1.054 -1.144,0.981C-1.207,0.907 -1.256,0.816 -1.292,0.71C-1.327,0.604 -1.345,0.484 -1.345,0.353C-1.345,0.222 -1.327,0.102 -1.292,-0.004C-1.256,-0.109 -1.207,-0.2 -1.144,-0.273C-1.082,-0.346 -1.007,-0.403 -0.923,-0.443C-0.838,-0.483 -0.745,-0.503 -0.646,-0.503C-0.545,-0.503 -0.45,-0.483 -0.364,-0.444C-0.279,-0.405 -0.204,-0.349 -0.143,-0.276C-0.082,-0.204 -0.033,-0.113 0.001,-0.007C0.036,0.099 0.053,0.22 0.053,0.353C0.053,0.485 0.035,0.605 0,0.71M0.082,-0.48C-0.011,-0.582 -0.12,-0.661 -0.244,-0.715C-0.368,-0.77 -0.504,-0.797 -0.646,-0.797C-0.787,-0.797 -0.921,-0.769 -1.045,-0.712C-1.169,-0.655 -1.279,-0.575 -1.37,-0.474C-1.462,-0.373 -1.536,-0.252 -1.59,-0.112C-1.643,0.028 -1.67,0.185 -1.67,0.353C-1.67,0.522 -1.643,0.678 -1.59,0.819C-1.536,0.96 -1.462,1.083 -1.37,1.183C-1.279,1.285 -1.169,1.365 -1.045,1.421C-0.921,1.478 -0.787,1.507 -0.646,1.507C-0.505,1.507 -0.371,1.478 -0.247,1.421C-0.123,1.365 -0.014,1.285 0.079,1.183C0.17,1.082 0.244,0.96 0.298,0.819C0.351,0.678 0.378,0.522 0.378,0.353C0.378,0.182 0.351,0.024 0.299,-0.116C0.247,-0.257 0.173,-0.38 0.082,-0.48" style="fill:white;fill-rule:nonzero;"/>
            </g>
            <g transform="matrix(1.33333,0,0,1.33333,673.154,1034.34)">
                <path d="M0,1.122L-0.979,-0.539L-0.986,-0.551L-1.319,-0.551L-1.319,1.673L-1.028,1.673L-1.028,-0.039L-0.024,1.661L-0.017,1.673L0.291,1.673L0.291,-0.551L0,-0.551L0,1.122Z" style="fill:white;fill-rule:nonzero;"/>
            </g>
            <g transform="matrix(1.33333,0,0,1.33333,676.244,1034.6)">
                <path d="M0,0.736C-0.033,0.838 -0.08,0.923 -0.14,0.988C-0.2,1.053 -0.273,1.102 -0.355,1.134C-0.438,1.166 -0.53,1.182 -0.63,1.182L-1.023,1.182L-1.023,-0.447L-0.63,-0.447C-0.531,-0.447 -0.438,-0.431 -0.354,-0.402C-0.272,-0.372 -0.201,-0.325 -0.142,-0.261C-0.083,-0.196 -0.035,-0.112 -0.001,-0.01C0.033,0.092 0.051,0.218 0.051,0.364C0.051,0.508 0.034,0.633 0,0.736M0.102,-0.447C0.015,-0.542 -0.092,-0.616 -0.215,-0.667C-0.338,-0.718 -0.478,-0.744 -0.63,-0.744L-1.338,-0.744L-1.338,1.48L-0.63,1.48C-0.478,1.48 -0.338,1.454 -0.215,1.402C-0.092,1.351 0.015,1.276 0.102,1.179C0.188,1.082 0.257,0.964 0.304,0.827C0.351,0.69 0.375,0.535 0.375,0.364C0.375,0.194 0.351,0.039 0.304,-0.098C0.257,-0.235 0.188,-0.352 0.102,-0.447" style="fill:white;fill-rule:nonzero;"/>
            </g>
            <g transform="matrix(1.33333,0,0,1.33333,680.357,1034.41)">
                <path d="M0,1.022C-0.008,1.048 -0.016,1.075 -0.023,1.103C-0.03,1.128 -0.036,1.152 -0.041,1.176C-0.052,1.122 -0.066,1.07 -0.082,1.022L-0.608,-0.584L-0.613,-0.601L-1.037,-0.601L-1.037,1.623L-0.74,1.623L-0.74,0.069C-0.74,0.044 -0.741,0.013 -0.742,-0.022L-0.742,-0.041C-0.735,-0.015 -0.728,0.008 -0.72,0.029L-0.195,1.623L0.101,1.623L0.626,0.029C0.634,0.006 0.641,-0.019 0.649,-0.045C0.648,-0.037 0.648,-0.03 0.648,-0.022C0.647,0.013 0.646,0.044 0.646,0.069L0.646,1.623L0.95,1.623L0.95,-0.601L0.528,-0.601L0,1.022Z" style="fill:white;fill-rule:nonzero;"/>
            </g>
            <g transform="matrix(1.33333,0,0,1.33333,682.961,1034.97)">
                <path d="M0,0.189L0.93,0.189L0.93,-0.112L0,-0.112L0,-0.716L1.094,-0.716L1.094,-1.017L-0.316,-1.017L-0.316,1.206L1.109,1.206L1.109,0.905L0,0.905L0,0.189Z" style="fill:white;fill-rule:nonzero;"/>
            </g>
            <g transform="matrix(1.33333,0,0,1.33333,686.987,1034.6)">
                <path d="M0,0.736C-0.033,0.838 -0.08,0.923 -0.14,0.988C-0.2,1.053 -0.272,1.102 -0.355,1.134C-0.438,1.166 -0.53,1.182 -0.63,1.182L-1.023,1.182L-1.023,-0.447L-0.63,-0.447C-0.531,-0.447 -0.438,-0.431 -0.354,-0.402C-0.272,-0.372 -0.201,-0.325 -0.142,-0.261C-0.083,-0.196 -0.035,-0.112 -0.001,-0.01C0.033,0.092 0.051,0.218 0.051,0.364C0.051,0.508 0.034,0.633 0,0.736M0.102,-0.447C0.015,-0.542 -0.092,-0.616 -0.215,-0.667C-0.338,-0.718 -0.478,-0.744 -0.63,-0.744L-1.338,-0.744L-1.338,1.48L-0.63,1.48C-0.478,1.48 -0.338,1.454 -0.215,1.402C-0.092,1.351 0.015,1.276 0.102,1.179C0.188,1.082 0.257,0.964 0.304,0.827C0.352,0.69 0.375,0.535 0.375,0.364C0.375,0.194 0.352,0.039 0.304,-0.098C0.257,-0.235 0.188,-0.352 0.102,-0.447" style="fill:white;fill-rule:nonzero;"/>
            </g>
            <g transform="matrix(1.33333,0,0,1.33333,0,482.784)">
                <rect x="516.188" y="413.119" width="0.316" height="2.224" style="fill:white;"/>
            </g>
            <g transform="matrix(1.33333,0,0,1.33333,691.594,1034.57)">
                <path d="M0,0.784C-0.039,0.926 -0.112,1.04 -0.218,1.124C-0.324,1.207 -0.452,1.249 -0.6,1.249C-0.697,1.249 -0.789,1.229 -0.874,1.189C-0.958,1.149 -1.033,1.092 -1.095,1.018C-1.158,0.944 -1.207,0.853 -1.243,0.747C-1.278,0.642 -1.296,0.522 -1.296,0.391C-1.296,0.259 -1.278,0.139 -1.243,0.034C-1.207,-0.072 -1.158,-0.162 -1.097,-0.235C-1.035,-0.308 -0.962,-0.365 -0.878,-0.405C-0.795,-0.445 -0.703,-0.465 -0.606,-0.465C-0.44,-0.465 -0.309,-0.424 -0.214,-0.343C-0.119,-0.261 -0.048,-0.151 -0.003,-0.015L0.003,0.002L0.312,0.002L0.305,-0.028C0.249,-0.249 0.144,-0.428 -0.008,-0.56C-0.161,-0.692 -0.362,-0.76 -0.606,-0.76C-0.745,-0.76 -0.877,-0.731 -0.999,-0.674C-1.121,-0.618 -1.229,-0.538 -1.321,-0.437C-1.413,-0.336 -1.487,-0.214 -1.54,-0.074C-1.594,0.066 -1.621,0.222 -1.621,0.391C-1.621,0.559 -1.594,0.716 -1.54,0.856C-1.487,0.998 -1.412,1.12 -1.32,1.221C-1.227,1.322 -1.118,1.402 -0.995,1.458C-0.871,1.515 -0.739,1.544 -0.6,1.544C-0.362,1.544 -0.163,1.477 -0.007,1.343C0.148,1.211 0.257,1.027 0.317,0.796L0.325,0.766L0.005,0.766L0,0.784Z" style="fill:white;fill-rule:nonzero;"/>
            </g>
            <g transform="matrix(1.33333,0,0,1.33333,693.23,1034.78)">
                <path d="M0,0.47L0.256,-0.284C0.267,-0.311 0.276,-0.34 0.283,-0.372C0.29,-0.402 0.297,-0.43 0.306,-0.456C0.306,-0.458 0.307,-0.461 0.307,-0.463L0.357,-0.285L0.608,0.47L0,0.47ZM0.467,-0.877L0.159,-0.877L-0.614,1.347L-0.296,1.347L-0.101,0.768L0.706,0.768L0.9,1.347L1.225,1.347L0.472,-0.86L0.467,-0.877Z" style="fill:white;fill-rule:nonzero;"/>
            </g>
            <g transform="matrix(1.33333,0,0,1.33333,695.908,1036.57)">
                <path d="M0,-2.224L-0.316,-2.224L-0.316,0L0.997,0L0.997,-0.301L0,-0.301L0,-2.224Z" style="fill:white;fill-rule:nonzero;"/>
            </g>
            <g transform="matrix(1.33333,0,0,1.33333,701.108,1034.77)">
                <path d="M0,0.518C0,0.707 -0.043,0.853 -0.128,0.95C-0.212,1.047 -0.336,1.095 -0.499,1.095C-0.659,1.095 -0.784,1.047 -0.87,0.95C-0.956,0.853 -1,0.707 -1,0.518L-1,-0.872L-1.316,-0.872L-1.316,0.518C-1.316,0.655 -1.295,0.779 -1.255,0.886C-1.215,0.995 -1.157,1.088 -1.084,1.162C-1.011,1.237 -0.924,1.294 -0.825,1.332C-0.727,1.371 -0.617,1.39 -0.499,1.39C-0.383,1.39 -0.273,1.371 -0.174,1.332C-0.074,1.294 0.013,1.237 0.085,1.162C0.157,1.087 0.214,0.995 0.255,0.886C0.295,0.779 0.316,0.655 0.316,0.518L0.316,-0.872L0,-0.872L0,0.518Z" style="fill:white;fill-rule:nonzero;"/>
            </g>
            <g transform="matrix(1.33333,0,0,1.33333,704.151,1034.34)">
                <path d="M0,1.122L-0.979,-0.539L-0.986,-0.551L-1.319,-0.551L-1.319,1.673L-1.028,1.673L-1.028,-0.039L-0.024,1.661L-0.017,1.673L0.291,1.673L0.291,-0.551L0,-0.551L0,1.122Z" style="fill:white;fill-rule:nonzero;"/>
            </g>
            <g transform="matrix(1.33333,0,0,1.33333,0,482.784)">
                <rect x="529.102" y="413.119" width="0.316" height="2.224" style="fill:white;"/>
            </g>
            <g transform="matrix(1.33333,0,0,1.33333,707.793,1034.42)">
                <path d="M0,1.002C-0.009,1.027 -0.017,1.056 -0.023,1.086C-0.031,1.117 -0.038,1.147 -0.047,1.178L-0.049,1.188C-0.05,1.184 -0.05,1.18 -0.051,1.177C-0.059,1.147 -0.067,1.116 -0.075,1.084C-0.084,1.052 -0.091,1.025 -0.097,1.002L-0.62,-0.594L-0.625,-0.611L-0.956,-0.611L-0.213,1.597L-0.207,1.613L0.101,1.613L0.85,-0.611L0.525,-0.611L0,1.002Z" style="fill:white;fill-rule:nonzero;"/>
            </g>
            <g transform="matrix(1.33333,0,0,1.33333,709.962,1034.97)">
                <path d="M0,0.189L0.93,0.189L0.93,-0.112L0,-0.112L0,-0.716L1.094,-0.716L1.094,-1.017L-0.316,-1.017L-0.316,1.206L1.109,1.206L1.109,0.905L0,0.905L0,0.189Z" style="fill:white;fill-rule:nonzero;"/>
            </g>
            <g transform="matrix(1.33333,0,0,1.33333,713.765,1035.34)">
                <path d="M0,-0.369C-0.058,-0.307 -0.145,-0.276 -0.259,-0.276L-0.864,-0.276L-0.864,-0.996L-0.284,-0.996C-0.165,-0.996 -0.072,-0.966 -0.008,-0.909C0.055,-0.852 0.087,-0.759 0.087,-0.632C0.087,-0.52 0.058,-0.431 0,-0.369M0.405,0.764C0.391,0.71 0.381,0.642 0.372,0.562L0.345,0.296C0.333,0.171 0.306,0.073 0.266,0.002C0.232,-0.058 0.18,-0.105 0.111,-0.139C0.204,-0.19 0.274,-0.254 0.318,-0.329C0.368,-0.416 0.394,-0.518 0.394,-0.632C0.394,-0.729 0.379,-0.818 0.349,-0.899C0.318,-0.979 0.273,-1.05 0.214,-1.109C0.155,-1.167 0.083,-1.214 0,-1.247C-0.082,-1.28 -0.178,-1.296 -0.284,-1.296L-1.171,-1.296L-1.171,0.927L-0.864,0.927L-0.864,0.028L-0.253,0.028C-0.145,0.028 -0.068,0.052 -0.025,0.099C0.02,0.147 0.048,0.227 0.057,0.335L0.078,0.595C0.084,0.674 0.094,0.74 0.107,0.791C0.119,0.841 0.133,0.882 0.147,0.914L0.154,0.927L0.457,0.927L0.444,0.894C0.432,0.863 0.419,0.82 0.405,0.764" style="fill:white;fill-rule:nonzero;"/>
            </g>
            <g transform="matrix(1.33333,0,0,1.33333,716.807,1035.06)">
                <path d="M0,0.049C-0.063,-0.004 -0.141,-0.048 -0.234,-0.082C-0.325,-0.115 -0.431,-0.146 -0.548,-0.173C-0.65,-0.199 -0.734,-0.224 -0.797,-0.248C-0.859,-0.271 -0.908,-0.297 -0.942,-0.325C-0.975,-0.353 -0.998,-0.382 -1.009,-0.414C-1.022,-0.447 -1.028,-0.486 -1.028,-0.531C-1.028,-0.627 -0.996,-0.699 -0.932,-0.752C-0.867,-0.806 -0.764,-0.833 -0.626,-0.833C-0.477,-0.833 -0.364,-0.799 -0.29,-0.731C-0.215,-0.662 -0.174,-0.579 -0.164,-0.477L-0.162,-0.455L0.148,-0.455L0.145,-0.482C0.127,-0.677 0.05,-0.835 -0.081,-0.952C-0.213,-1.069 -0.398,-1.127 -0.629,-1.127C-0.731,-1.127 -0.825,-1.114 -0.91,-1.088C-0.995,-1.062 -1.071,-1.023 -1.134,-0.972C-1.197,-0.921 -1.247,-0.856 -1.282,-0.781C-1.317,-0.706 -1.334,-0.619 -1.334,-0.524C-1.334,-0.428 -1.319,-0.343 -1.29,-0.272C-1.26,-0.201 -1.215,-0.138 -1.154,-0.087C-1.095,-0.037 -1.02,0.007 -0.93,0.044C-0.843,0.079 -0.738,0.11 -0.62,0.136C-0.512,0.161 -0.423,0.187 -0.356,0.213C-0.29,0.239 -0.238,0.268 -0.202,0.3C-0.166,0.331 -0.142,0.365 -0.13,0.402C-0.116,0.44 -0.109,0.483 -0.109,0.531C-0.109,0.636 -0.146,0.718 -0.223,0.784C-0.299,0.849 -0.417,0.882 -0.575,0.882C-0.728,0.882 -0.853,0.842 -0.947,0.763C-1.04,0.683 -1.089,0.579 -1.095,0.444L-1.096,0.421L-1.411,0.421L-1.41,0.446C-1.406,0.546 -1.383,0.643 -1.341,0.732C-1.3,0.821 -1.242,0.899 -1.17,0.965C-1.098,1.031 -1.011,1.083 -0.91,1.12C-0.809,1.157 -0.697,1.176 -0.575,1.176C-0.465,1.176 -0.363,1.162 -0.27,1.135C-0.177,1.108 -0.094,1.067 -0.027,1.012C0.042,0.958 0.097,0.89 0.135,0.809C0.174,0.728 0.194,0.635 0.194,0.531C0.194,0.42 0.178,0.324 0.145,0.247C0.112,0.169 0.063,0.102 0,0.049" style="fill:white;fill-rule:nonzero;"/>
            </g>
            <g transform="matrix(1.33333,0,0,1.33333,0,482.784)">
                <rect x="538.365" y="413.119" width="0.316" height="2.224" style="fill:white;"/>
            </g>
            <g transform="matrix(1.33333,0,0,1.33333,718.923,1036.17)">
                <path d="M0,-1.622L0.623,-1.622L0.623,0.301L0.939,0.301L0.939,-1.622L1.562,-1.622L1.562,-1.923L0,-1.923L0,-1.622Z" style="fill:white;fill-rule:nonzero;"/>
            </g>
            <g transform="matrix(1.33333,0,0,1.33333,723.304,1036.57)">
                <path d="M0,-2.224L-0.529,-1.237L-1.049,-2.211L-1.056,-2.224L-1.39,-2.224L-0.69,-0.921L-0.69,0L-0.375,0L-0.375,-0.921L0.328,-2.224L0,-2.224Z" style="fill:white;fill-rule:nonzero;"/>
            </g>
            <g transform="matrix(1.33333,0,0,1.33333,716.827,1023.7)">
                <path d="M0,-1.83C0.043,-1.665 0.084,-1.506 0.128,-1.336L0.375,-1.336C0.386,-1.321 0.396,-1.306 0.407,-1.292C0.304,-1.199 0.201,-1.106 0.099,-1.013C-0.137,-1.257 -0.162,-1.517 0,-1.83M0.012,-2.15L0.155,-2.15C0.154,-2.132 0.154,-2.114 0.154,-2.096L0.012,-2.096L0.012,-2.15ZM3.231,-1.744C3.802,-1.8 3.802,-1.8 3.889,-1.997C3.819,-2.069 3.752,-2.173 3.657,-2.227C3.541,-2.294 3.452,-2.345 3.529,-2.521L4.259,-2.521C4.291,-1.807 4.257,-1.576 3.554,-1.261C3.455,-1.41 3.352,-1.564 3.231,-1.744M-0.767,1.072C-0.718,0.425 -0.49,0.2 0.119,0.131C0.596,0.077 1.07,-0.004 1.544,-0.083C1.694,-0.108 1.836,-0.192 1.985,-0.199C2.548,-0.228 3.112,-0.242 3.676,-0.249C4.058,-0.254 4.064,-0.24 4.083,0.147C4.096,0.398 4.198,0.481 4.434,0.415C4.729,0.333 4.924,0.111 5.018,-0.153C5.153,-0.532 4.908,-0.748 4.509,-0.695C4.269,-0.663 4.019,-0.713 3.774,-0.726C3.763,-0.762 3.751,-0.797 3.74,-0.833C3.889,-0.954 4.044,-1.069 4.185,-1.199C4.342,-1.344 4.579,-1.483 4.619,-1.66C4.709,-2.053 4.696,-2.468 4.726,-2.894C4.572,-2.941 4.462,-3.001 4.352,-3.003C4.028,-3.009 3.704,-2.988 3.38,-2.987C3.156,-2.986 3.035,-2.835 3.121,-2.632C3.263,-2.297 3.244,-1.986 3.041,-1.677C2.851,-1.388 2.887,-1.233 3.158,-0.995C3.212,-0.947 3.257,-0.889 3.349,-0.789C3.19,-0.782 3.102,-0.772 3.014,-0.774C2.436,-0.794 1.88,-0.735 1.333,-0.504C1.066,-0.392 0.74,-0.418 0.441,-0.382C0.751,-0.755 0.751,-0.755 0.498,-1.214C0.62,-1.344 0.78,-1.457 0.855,-1.612C0.961,-1.829 0.76,-1.951 0.55,-2.116C0.719,-2.163 0.844,-2.173 0.939,-2.232C1.025,-2.286 1.121,-2.388 1.131,-2.478C1.138,-2.537 0.986,-2.683 0.932,-2.671C0.702,-2.617 0.526,-2.73 0.34,-2.814C-0.211,-3.061 -0.899,-2.693 -0.8,-2.009C-0.78,-1.875 -0.78,-1.737 -0.753,-1.604C-0.685,-1.268 -0.607,-0.935 -0.525,-0.563C-1.01,-0.589 -1.423,-0.503 -1.603,0.002C-1.491,0.314 -1.383,0.631 -1.263,0.944C-1.166,1.198 -1.032,1.231 -0.767,1.072" style="fill:white;fill-rule:nonzero;"/>
            </g>
            <g transform="matrix(1.33333,0,0,1.33333,721.569,1027.74)">
                <path d="M0,-1.089C-0.007,-1.186 -0.01,-1.284 -0.014,-1.366C-0.062,-1.397 -0.085,-1.422 -0.108,-1.424C-0.253,-1.435 -0.398,-1.442 -0.543,-1.447C-0.741,-1.455 -0.954,-1.633 -0.98,-1.82C-1.01,-2.033 -0.827,-2.064 -0.698,-2.134C-0.645,-2.164 -0.578,-2.169 -0.517,-2.183C-0.31,-2.228 -0.223,-2.367 -0.298,-2.562C-0.339,-2.669 -0.407,-2.765 -0.473,-2.883C-0.611,-2.83 -0.735,-2.798 -0.844,-2.739C-1.184,-2.551 -1.525,-2.44 -1.928,-2.522C-2.182,-2.573 -2.456,-2.549 -2.718,-2.531C-2.925,-2.517 -3.134,-2.48 -3.331,-2.419C-3.505,-2.364 -3.616,-2.12 -3.57,-1.976C-3.519,-1.817 -3.326,-1.728 -3.114,-1.787C-2.994,-1.82 -2.873,-1.871 -2.77,-1.941C-2.419,-2.179 -2.028,-2.202 -1.635,-2.192C-1.747,-1.885 -1.853,-1.594 -1.959,-1.302C-1.989,-1.295 -2.015,-1.288 -2.041,-1.283C-2.423,-1.206 -2.806,-1.135 -3.186,-1.05C-3.393,-1.004 -3.671,-0.642 -3.672,-0.444C-3.674,-0.192 -3.376,-0.045 -3.066,-0.132C-2.561,-0.272 -2.054,-0.403 -1.534,-0.542C-1.488,-0.493 -1.441,-0.443 -1.396,-0.395C-1.473,-0.228 -1.542,-0.102 -1.591,0.032C-1.802,0.599 -2.117,0.78 -2.716,0.702C-2.822,0.689 -2.981,0.744 -3.046,0.825C-3.158,0.961 -3.23,1.137 -3.29,1.307C-3.379,1.559 -3.191,1.794 -2.933,1.73C-2.602,1.649 -2.246,1.577 -1.965,1.399C-1.387,1.031 -0.84,0.604 -0.805,-0.18C-0.802,-0.233 -0.774,-0.284 -0.765,-0.338C-0.722,-0.593 -0.603,-0.745 -0.313,-0.737C-0.092,-0.73 0.015,-0.864 0,-1.089" style="fill:white;fill-rule:nonzero;"/>
            </g>
            <g transform="matrix(1.33333,0,0,1.33333,719.585,1020.4)">
                <path d="M0,0.84C-0.242,0.89 -0.474,0.685 -0.649,0.895C-0.611,1.118 -0.58,1.291 -0.547,1.483C-0.392,1.588 0.118,1.53 0.388,1.355C0.373,1.272 0.357,1.186 0.337,1.076C0.904,0.812 0.56,0.356 0.573,-0.031C0.684,-0.193 0.795,-0.354 0.9,-0.507C0.705,-0.748 0.652,-0.741 0.444,-0.583C0.204,-0.401 0.021,-0.139 -0.319,-0.095C-0.521,-0.07 -0.505,0.141 -0.492,0.284C-0.485,0.357 -0.367,0.466 -0.288,0.476C-0.121,0.499 0.053,0.468 0.241,0.459C0.294,0.682 0.067,0.732 0,0.84" style="fill:white;fill-rule:nonzero;"/>
            </g>
            <g transform="matrix(1.33333,0,0,1.33333,707.683,1022.7)">
                <path d="M0,2.893C0.204,2.547 0.368,2.177 0.535,1.81C0.631,1.6 0.701,1.393 0.963,1.315C1.358,1.197 1.747,1.054 2.134,0.911C2.234,0.874 2.333,0.81 2.406,0.733C2.487,0.647 2.516,0.51 2.395,0.444C2.254,0.367 2.087,0.296 1.932,0.297C1.68,0.297 1.428,0.358 1.176,0.393L1.176,0.402C1.111,0.402 1.042,0.415 0.982,0.398C0.935,0.385 0.862,0.33 0.865,0.3C0.88,0.146 0.89,-0.017 0.949,-0.158C1.041,-0.376 1.189,-0.57 1.282,-0.788C1.43,-1.132 1.48,-1.467 1.248,-1.825C1.065,-2.108 0.865,-2.149 0.601,-1.899C0.279,-1.594 0.135,-1.192 0.021,-0.787C-0.081,-0.426 -0.117,-0.047 -0.181,0.325C-0.252,0.739 -0.556,0.993 -0.973,1.006C-1.166,1.012 -1.369,1.017 -1.548,1.08C-1.75,1.15 -1.958,1.251 -2.047,1.479C-2.138,1.712 -2.032,1.874 -1.788,1.884C-1.527,1.894 -1.266,1.923 -1.005,1.917C-0.82,1.913 -0.761,2.008 -0.752,2.158C-0.747,2.239 -0.755,2.331 -0.791,2.4C-0.92,2.653 -0.996,2.928 -1.202,3.148C-1.606,3.581 -1.978,4.043 -2.372,4.485C-2.53,4.662 -2.532,4.929 -2.337,4.993C-2.217,5.033 -2.05,5.042 -1.943,4.988C-1.724,4.877 -1.514,4.733 -1.332,4.568C-1.18,4.431 -1.068,4.248 -0.947,4.079C-0.776,3.842 -0.624,3.591 -0.443,3.362C-0.31,3.193 -0.106,3.073 0,2.893" style="fill:white;fill-rule:nonzero;"/>
            </g>
            <g transform="matrix(1.33333,0,0,1.33333,712.426,1027.69)">
                <path d="M0,0.114C-0.214,0.039 -0.447,0.013 -0.674,-0.014C-1.04,-0.059 -1.391,-0.134 -1.697,-0.356C-1.925,-0.521 -2.158,-0.679 -2.387,-0.842C-2.564,-0.968 -2.704,-0.959 -2.84,-0.8C-3.025,-0.582 -2.956,-0.33 -2.912,-0.089C-2.885,0.058 -2.82,0.177 -2.623,0.171C-2.554,0.168 -2.47,0.252 -2.412,0.315C-1.981,0.778 -1.454,1.021 -0.75,1.029C-0.457,1.082 -0.18,0.897 0.083,0.694C0.328,0.506 0.291,0.216 0,0.114" style="fill:white;fill-rule:nonzero;"/>
            </g>
            <g transform="matrix(1.33333,0,0,1.33333,684.137,1022.16)">
                <path d="M0,2.19C-0.094,2.229 -0.206,2.293 -0.247,2.377C-0.341,2.565 -0.481,2.575 -0.683,2.555C-0.329,2.151 -0.002,1.779 0.294,1.441C0.474,1.566 0.642,1.682 0.854,1.829C0.703,1.914 0.566,2.006 0.417,2.069C0.284,2.125 0.133,2.135 0,2.19M-1.798,2.207C-1.941,2.147 -2.092,2.011 -2.153,1.871C-2.321,1.485 -2.199,1.12 -1.962,0.799C-1.837,0.63 -1.606,0.627 -1.527,0.8C-1.35,1.185 -1.088,1.483 -0.741,1.715C-0.721,1.728 -0.717,1.761 -0.698,1.799C-0.901,2.077 -1.519,2.324 -1.798,2.207M1.961,-1.286C1.9,-1.169 1.849,-1.045 1.776,-0.936C1.657,-0.757 1.595,-0.593 1.744,-0.389C1.795,-0.318 1.784,-0.18 1.763,-0.081C1.661,0.402 1.656,0.401 2.081,0.696C2.116,0.721 2.147,0.751 2.181,0.78C2.175,0.812 2.169,0.844 2.163,0.876C1.667,0.774 1.175,0.606 0.672,0.785C0.634,0.422 1.525,-1.038 1.961,-1.286M1.135,1.445C1.08,1.431 1.049,1.324 1.008,1.26C1.031,1.224 1.055,1.188 1.079,1.152C1.282,1.199 1.485,1.246 1.738,1.304C1.521,1.521 1.323,1.493 1.135,1.445M3.651,2.39C3.435,2.386 3.218,2.38 3.002,2.361C2.425,2.309 1.853,2.182 1.265,2.275C1.047,2.309 0.818,2.28 0.593,2.28C0.591,2.258 0.589,2.235 0.588,2.212C1.039,2.121 1.492,2.033 1.943,1.939C2.823,1.755 3.111,0.893 2.517,0.221C2.386,0.073 2.34,-0.069 2.459,-0.244C2.498,-0.303 2.52,-0.373 2.56,-0.46C2.226,-0.741 2.35,-1.052 2.507,-1.365C2.519,-1.389 2.531,-1.415 2.538,-1.441C2.63,-1.813 2.45,-1.984 2.077,-1.883C1.717,-1.786 1.467,-1.536 1.221,-1.276C0.812,-0.843 0.601,-0.297 0.345,0.224C0.28,0.356 0.189,0.474 0.101,0.613C-0.017,0.467 -0.102,0.362 -0.189,0.253C-0.171,0.205 -0.162,0.159 -0.139,0.123C0.029,-0.143 0.136,-0.405 -0.063,-0.714C-0.138,-0.83 -0.081,-0.952 0.049,-1.037C0.154,-1.106 0.258,-1.191 0.33,-1.291C0.381,-1.362 0.413,-1.483 0.388,-1.561C0.369,-1.619 0.249,-1.674 0.17,-1.68C-0.466,-1.724 -1.051,-1.523 -1.615,-1.266C-1.703,-1.226 -1.78,-1.045 -1.77,-0.937C-1.755,-0.782 -1.602,-0.74 -1.45,-0.77C-1.267,-0.807 -1.084,-0.847 -0.882,-0.89C-0.958,-0.712 -1.075,-0.559 -1.073,-0.407C-1.072,-0.252 -0.954,-0.097 -0.918,-0.015C-1.023,0.116 -1.135,0.255 -1.256,0.406C-1.839,0.218 -2.258,0.378 -2.545,0.925C-2.702,1.223 -2.776,1.539 -2.713,1.874C-2.633,2.309 -2.32,2.547 -1.937,2.746C-2.181,2.856 -2.417,2.936 -2.657,3.006C-2.882,3.072 -3.118,3.108 -3.336,3.192C-3.598,3.292 -3.85,3.42 -4.097,3.555C-4.22,3.623 -4.336,3.72 -4.424,3.829C-4.466,3.883 -4.471,4.016 -4.432,4.072C-4.392,4.132 -4.278,4.174 -4.2,4.168C-4.107,4.161 -3.988,4.118 -3.934,4.049C-3.755,3.82 -3.497,3.766 -3.246,3.694C-2.916,3.6 -2.583,3.51 -2.25,3.427C-1.989,3.363 -1.726,3.299 -1.461,3.257C-1.06,3.193 -0.654,3.163 -0.255,3.087C-0.038,3.046 0.162,2.893 0.378,2.87C0.947,2.811 1.521,2.776 2.093,2.768C2.619,2.761 3.146,2.803 3.673,2.82C3.821,2.825 3.973,2.828 4.014,2.637C3.984,2.415 3.827,2.394 3.651,2.39" style="fill:white;fill-rule:nonzero;"/>
            </g>
            <g transform="matrix(1.33333,0,0,1.33333,686.857,1028.65)">
                <path d="M0,-0.306C0.106,0.286 -0.261,0.614 -0.695,0.954C-0.894,0.66 -1.181,0.603 -1.559,0.753C-1.589,0.511 -1.613,0.313 -1.636,0.132C-1.327,-0.073 -1.327,-0.073 -1.461,-0.457C-1.396,-0.48 -1.348,-0.51 -1.299,-0.512C-1.021,-0.527 -0.845,-0.642 -0.781,-0.935C-0.733,-1.16 -0.515,-1.239 -0.078,-1.203C-0.045,-1.034 0.003,-0.848 0.024,-0.658C0.036,-0.543 -0.02,-0.418 0,-0.306M-2.13,-0.593C-2.15,-0.619 -2.169,-0.645 -2.189,-0.671C-2.09,-0.772 -1.991,-0.872 -1.876,-0.989C-1.795,-0.899 -1.749,-0.849 -1.665,-0.756C-1.844,-0.693 -1.987,-0.643 -2.13,-0.593M0.34,-1.315C0.202,-1.773 0.011,-1.877 -0.336,-1.647C-0.461,-1.565 -0.613,-1.522 -0.77,-1.453C-1.139,-1.96 -1.662,-1.669 -2.115,-1.716C-2.252,-1.73 -2.412,-1.513 -2.622,-1.357C-2.691,-1.371 -2.841,-1.372 -2.964,-1.43C-3.236,-1.561 -3.337,-1.562 -3.521,-1.321C-3.612,-1.201 -3.709,-1.057 -3.727,-0.914C-3.77,-0.566 -3.819,-0.205 -3.773,0.137C-3.716,0.555 -3.571,0.961 -3.447,1.367C-3.428,1.427 -3.302,1.5 -3.241,1.488C-3.184,1.478 -3.132,1.367 -3.105,1.291C-3.086,1.237 -3.111,1.166 -3.12,1.104C-3.164,0.816 -3.227,0.531 -3.247,0.242C-3.263,0.01 -3.249,-0.231 -3.206,-0.459C-3.17,-0.653 -3.006,-0.761 -2.811,-0.786C-2.632,-0.809 -2.5,-0.722 -2.445,-0.564C-2.476,-0.375 -2.496,-0.191 -2.47,-0.014C-2.444,0.167 -2.374,0.342 -2.323,0.521C-2.921,0.651 -2.921,0.651 -2.895,1.028C-2.733,1.217 -2.57,1.39 -2.279,1.348C-2.037,1.313 -1.791,1.309 -1.533,1.29C-1.347,1.478 -1.144,1.654 -0.9,1.505C-0.542,1.286 -0.157,1.092 0.088,0.721C0.388,0.268 0.587,-0.205 0.459,-0.763C0.417,-0.946 0.394,-1.135 0.34,-1.315" style="fill:white;fill-rule:nonzero;"/>
            </g>
            <g transform="matrix(1.33333,0,0,1.33333,698.427,1025.56)">
                <path d="M0,-0.626C0.207,-0.843 0.376,-1.021 0.601,-1.257C0.651,-0.765 0.524,-0.639 0,-0.626M0.594,-2.187L0.594,-1.604C0.45,-1.615 0.326,-1.625 0.154,-1.638C0.302,-1.822 0.423,-1.974 0.594,-2.187M1.651,-1.451C1.596,-1.854 1.596,-2.264 1.554,-2.67C1.502,-3.181 1.44,-3.692 1.357,-4.198C1.328,-4.377 1.195,-4.511 0.98,-4.455C0.783,-4.403 0.676,-4.278 0.679,-4.058C0.686,-3.524 0.681,-2.989 0.681,-2.445C0.07,-2.526 -0.493,-2.359 -0.749,-2.038C-0.963,-1.771 -1.159,-1.489 -1.37,-1.219C-1.529,-1.017 -1.695,-0.82 -1.87,-0.631C-1.909,-0.59 -1.998,-0.595 -2.065,-0.579C-2.074,-0.648 -2.109,-0.727 -2.087,-0.785C-2.02,-0.958 -1.927,-1.121 -1.855,-1.292C-1.828,-1.355 -1.823,-1.431 -1.826,-1.5C-1.834,-1.681 -1.869,-1.862 -1.86,-2.041C-1.852,-2.222 -1.785,-2.4 -1.779,-2.581C-1.772,-2.835 -1.951,-2.959 -2.154,-2.817C-2.334,-2.691 -2.524,-2.504 -2.59,-2.304C-2.798,-1.672 -3.031,-1.095 -3.794,-0.981C-3.804,-0.979 -3.814,-0.972 -3.824,-0.969C-4.134,-0.877 -4.201,-0.956 -4.154,-1.282C-4.032,-2.135 -3.394,-2.542 -2.736,-2.92C-2.398,-3.115 -2.056,-3.302 -1.615,-3.117C-1.329,-2.996 -1.054,-3.274 -1.177,-3.555C-1.268,-3.763 -1.493,-3.942 -1.701,-4.058C-1.786,-4.106 -1.986,-3.962 -2.127,-3.891C-2.231,-3.838 -2.321,-3.758 -2.42,-3.696C-3.514,-3.003 -4.377,-2.126 -4.722,-0.832C-4.778,-0.619 -4.835,-0.409 -4.647,-0.231C-4.466,-0.06 -4.278,-0.129 -4.079,-0.207C-3.86,-0.293 -3.63,-0.354 -3.317,-0.454C-3.492,-0.202 -3.642,-0.049 -3.715,0.135C-3.81,0.375 -3.888,0.64 -3.889,0.894C-3.889,1.107 -3.717,1.178 -3.525,1.022C-3.386,0.908 -3.251,0.79 -3.127,0.685C-3.063,1.138 -2.993,1.63 -2.923,2.122L-2.807,2.115C-2.473,1.775 -2.229,1.402 -2.303,0.88C-2.344,0.589 -2.376,0.292 -2.03,0.113C-1.92,0.056 -1.854,-0.096 -1.778,-0.212C-1.5,-0.632 -1.231,-1.059 -0.95,-1.477C-0.846,-1.632 -0.706,-1.712 -0.52,-1.576C-0.552,-1.291 -0.88,-0.978 -0.396,-0.775C-0.493,-0.653 -0.588,-0.551 -0.664,-0.435C-0.79,-0.24 -0.923,-0.045 -1.013,0.168C-1.047,0.25 -1.004,0.42 -0.936,0.475C-0.869,0.528 -0.717,0.512 -0.617,0.48C-0.235,0.355 0.14,0.212 0.542,0.066C0.749,1.372 0.348,2.641 0.705,3.885C0.726,3.788 0.748,3.691 0.779,3.551C0.842,3.655 0.88,3.72 0.942,3.823C1.059,3.433 1.202,3.095 1.256,2.744C1.359,2.077 1.433,1.403 1.479,0.729C1.513,0.226 1.493,-0.257 2.086,-0.497C2.218,-0.55 2.254,-0.84 2.334,-1.021C2.191,-1.073 2.038,-1.107 1.909,-1.183C1.804,-1.246 1.665,-1.35 1.651,-1.451" style="fill:white;fill-rule:nonzero;"/>
            </g>
            <g transform="matrix(1.33333,0,0,1.33333,660.852,1028.5)">
                <path d="M0,-3.092C0,-3.01 -0.026,-2.949 -0.077,-2.911C-0.153,-2.852 -0.289,-2.843 -0.44,-2.886C-0.61,-2.934 -0.707,-2.984 -0.73,-3.033C-0.733,-3.041 -0.745,-3.066 -0.717,-3.127C-0.675,-3.217 -0.577,-3.264 -0.499,-3.278C-0.487,-3.28 -0.473,-3.281 -0.457,-3.281C-0.384,-3.281 -0.277,-3.262 -0.221,-3.252C-0.194,-3.248 -0.174,-3.244 -0.162,-3.243C-0.053,-3.231 0.008,-3.178 0.001,-3.102C0,-3.099 0,-3.095 0,-3.092M-0.372,-1.493C-0.505,-1.43 -0.661,-1.368 -0.822,-1.316C-0.896,-1.292 -0.977,-1.307 -1.038,-1.357C-1.098,-1.405 -1.127,-1.475 -1.12,-1.549C-1.105,-1.688 -1.077,-1.816 -1.036,-1.94C-0.995,-2.063 -0.932,-2.138 -0.838,-2.175C-0.805,-2.187 -0.77,-2.194 -0.734,-2.194C-0.667,-2.194 -0.596,-2.172 -0.533,-2.13L-0.337,-2.003C-0.248,-1.945 -0.198,-1.846 -0.205,-1.74C-0.212,-1.632 -0.275,-1.54 -0.372,-1.493M0.889,-3.53C0.89,-3.531 0.891,-3.532 0.892,-3.533C0.944,-3.59 1.042,-3.625 1.153,-3.627L1.155,-3.627C1.208,-3.627 1.235,-3.578 1.241,-3.563C1.257,-3.528 1.263,-3.473 1.228,-3.434C1.13,-3.325 1.03,-3.264 0.965,-3.265C0.944,-3.266 0.912,-3.273 0.874,-3.323C0.817,-3.398 0.869,-3.51 0.889,-3.53M1.199,-1.096C1.214,-1.177 1.298,-1.247 1.332,-1.256C1.538,-1.313 1.587,-1.323 1.752,-1.355L1.921,-1.388C1.971,-1.398 2.032,-1.411 2.077,-1.419C2.113,-1.425 2.145,-1.428 2.173,-1.428C2.272,-1.428 2.316,-1.388 2.346,-1.328C2.368,-1.286 2.37,-1.249 2.354,-1.213C2.314,-1.122 2.173,-1.047 2.085,-1.023L2.064,-1.017C1.883,-0.967 1.883,-0.967 1.638,-0.925L1.532,-0.907C1.443,-0.892 1.279,-0.864 1.216,-0.907C1.185,-0.928 1.18,-0.988 1.199,-1.096M0.811,-0.369C0.908,-0.314 0.999,-0.263 1.101,-0.272C1.182,-0.28 1.264,-0.287 1.346,-0.293C1.703,-0.322 2.072,-0.352 2.404,-0.481C2.746,-0.613 3.051,-0.837 3.347,-1.054C3.419,-1.108 3.492,-1.161 3.565,-1.213C3.693,-1.303 3.764,-1.434 3.762,-1.57C3.76,-1.697 3.691,-1.814 3.574,-1.892C3.384,-2.017 3.101,-2.169 2.825,-2.179C2.46,-2.193 2.089,-2.135 1.731,-2.079L1.617,-2.062C1.414,-2.031 1.214,-1.979 1.02,-1.929C0.967,-1.916 0.914,-1.902 0.861,-1.889C0.841,-2.006 0.848,-2.086 0.882,-2.137C0.919,-2.194 1.005,-2.232 1.15,-2.256C1.257,-2.274 1.346,-2.335 1.433,-2.395C1.467,-2.418 1.501,-2.442 1.535,-2.461C1.559,-2.475 1.575,-2.497 1.582,-2.523C1.588,-2.549 1.583,-2.577 1.569,-2.599L1.51,-2.69C1.458,-2.772 1.406,-2.853 1.35,-2.93C1.339,-2.946 1.326,-2.959 1.313,-2.972C1.373,-2.999 1.428,-3.024 1.48,-3.052L1.576,-3.103C1.708,-3.173 1.845,-3.246 1.972,-3.334C2.228,-3.51 2.294,-3.777 2.16,-4.086C2.027,-4.393 1.743,-4.418 1.535,-4.411C1.403,-4.406 1.271,-4.386 1.145,-4.367L1.009,-4.347C0.861,-4.326 0.792,-4.322 0.713,-4.425C0.635,-4.528 0.522,-4.584 0.41,-4.574C0.301,-4.565 0.209,-4.498 0.15,-4.386C0.016,-4.131 -0.216,-4.071 -0.484,-4.002L-0.56,-3.982C-1.034,-3.856 -1.467,-3.728 -1.885,-3.59C-2.004,-3.551 -2.099,-3.462 -2.139,-3.352C-2.176,-3.253 -2.166,-3.149 -2.112,-3.059C-2.037,-2.936 -1.887,-2.871 -1.754,-2.813C-1.728,-2.802 -1.703,-2.791 -1.679,-2.78C-1.666,-2.773 -1.652,-2.769 -1.638,-2.766C-1.642,-2.76 -1.645,-2.754 -1.649,-2.749C-1.725,-2.62 -1.796,-2.499 -1.847,-2.366C-2.023,-1.902 -1.968,-1.423 -1.895,-0.973C-1.869,-0.812 -1.745,-0.674 -1.635,-0.553L-1.583,-0.494C-1.513,-0.414 -1.354,-0.41 -1.267,-0.438C-1.05,-0.509 -0.836,-0.585 -0.622,-0.662C-0.486,-0.71 -0.35,-0.758 -0.213,-0.805C-0.204,-0.808 -0.194,-0.811 -0.184,-0.813L-2.908,1.318C-2.946,1.348 -2.957,1.401 -2.933,1.443C-2.915,1.474 -2.883,1.492 -2.848,1.492C-2.837,1.492 -2.825,1.49 -2.813,1.486L-2.586,1.399C-2.14,1.23 -1.718,1.069 -1.313,0.855C-0.988,0.683 -0.681,0.479 -0.356,0.263C-0.254,0.194 -0.149,0.125 -0.041,0.055C-0.042,0.093 -0.042,0.131 -0.042,0.169C-0.044,0.403 -0.045,0.606 -0.035,0.809C-0.031,0.89 0.014,0.957 0.054,1.016C0.068,1.037 0.083,1.058 0.094,1.079C0.108,1.104 0.131,1.122 0.158,1.128C0.186,1.135 0.214,1.129 0.237,1.112C0.285,1.077 0.339,1.045 0.393,1.013C0.531,0.932 0.674,0.848 0.746,0.711C0.823,0.565 0.817,0.388 0.812,0.218C0.809,0.16 0.808,0.102 0.809,0.046C0.813,-0.087 0.812,-0.221 0.811,-0.355L0.811,-0.369Z" style="fill:white;fill-rule:nonzero;"/>
            </g>
            <g transform="matrix(1.33333,0,0,1.33333,658.239,1020.05)">
                <path d="M0,2.185C0.151,2.214 0.281,2.228 0.399,2.228C0.452,2.228 0.503,2.225 0.552,2.219C0.673,2.205 0.869,2.072 0.875,1.942C0.89,1.616 1.095,1.552 1.407,1.491C1.533,1.466 1.659,1.439 1.785,1.413L1.943,1.379C1.993,1.369 2.027,1.322 2.02,1.271L2.007,1.176C2.001,1.125 1.959,1.084 1.905,1.091C1.834,1.095 1.763,1.098 1.692,1.1C1.531,1.106 1.364,1.112 1.2,1.134C1.127,1.143 1.076,1.135 1.045,1.108C1.003,1.073 0.992,0.998 0.991,0.942C0.987,0.831 1.002,0.718 1.02,0.587C1.029,0.525 1.037,0.46 1.045,0.392C1.047,0.367 1.04,0.342 1.025,0.323C1.018,0.314 0.98,0.264 0.941,0.215C0.76,-0.011 0.554,-0.043 0.311,0.117C0.052,0.287 -0.068,0.483 -0.079,0.751C-0.083,0.85 -0.1,0.994 -0.16,1.115C-0.218,1.232 -0.321,1.336 -0.405,1.414C-0.58,1.577 -0.586,1.795 -0.424,1.999C-0.331,2.114 -0.156,2.155 0,2.185" style="fill:white;fill-rule:nonzero;"/>
            </g>
            <g transform="matrix(1.33333,0,0,1.33333,661.791,1019.8)">
                <path d="M0,1.869C0.023,1.869 0.045,1.861 0.064,1.845C0.55,1.427 1.053,1.276 1.603,1.38C1.701,1.398 1.777,1.391 1.831,1.356L1.895,1.316C2.005,1.249 2.13,1.173 2.196,1.056C2.278,0.911 2.084,0.664 2.061,0.636C2.013,0.577 1.951,0.532 1.893,0.489C1.831,0.444 1.772,0.401 1.747,0.352C1.565,0 1.329,0.001 1.163,0.064C0.896,0.166 0.721,0.285 0.629,0.427C0.444,0.714 0.286,1.015 0.12,1.334C0.054,1.462 -0.014,1.593 -0.086,1.725C-0.108,1.767 -0.098,1.818 -0.061,1.847C-0.043,1.862 -0.022,1.869 0,1.869" style="fill:white;fill-rule:nonzero;"/>
            </g>
            <g transform="matrix(1.33333,0,0,1.33333,675.319,1026.94)">
                <path d="M0,0.088C0.085,0.042 0.159,-0.025 0.245,-0.07C0.351,-0.125 0.404,-0.207 0.373,-0.319C0.334,-0.461 0.277,-0.6 0.223,-0.738C0.214,-0.762 0.182,-0.789 0.158,-0.793C-0.023,-0.818 -0.215,-0.885 -0.386,-0.851C-0.89,-0.748 -1.394,-0.683 -1.908,-0.67C-2.221,-0.661 -2.533,-0.61 -2.845,-0.576C-2.971,-0.561 -3.078,-0.582 -3.183,-0.669C-3.256,-0.729 -3.362,-0.783 -3.452,-0.782C-3.668,-0.777 -3.842,-0.657 -4.003,-0.517C-4.061,-0.468 -4.126,-0.423 -4.195,-0.393C-4.495,-0.259 -4.809,-0.164 -5.052,0.085C-5.329,0.369 -5.309,0.54 -5.067,0.791C-4.912,0.952 -4.691,0.973 -4.474,0.966C-4.474,0.953 -4.473,0.94 -4.473,0.926C-4.203,0.926 -3.932,0.927 -3.662,0.926C-3.598,0.926 -3.531,0.937 -3.473,0.92C-3.206,0.842 -2.937,0.765 -2.676,0.668C-2.407,0.57 -2.148,0.446 -1.883,0.339C-1.636,0.24 -1.387,0.144 -1.135,0.057C-1.017,0.017 -0.891,-0.012 -0.77,0.071C-0.744,0.089 -0.695,0.072 -0.658,0.076C-0.602,0.083 -0.535,0.077 -0.494,0.105C-0.322,0.226 -0.16,0.173 0,0.088" style="fill:white;fill-rule:nonzero;"/>
            </g>
            <g transform="matrix(1.33333,0,0,1.33333,670.928,1022.24)">
                <path d="M0,1.281C0.184,1.317 0.385,1.26 0.578,1.248C0.664,1.242 0.778,1.208 0.833,1.249C1.034,1.4 1.18,1.295 1.324,1.172C1.561,0.972 1.795,0.768 2.024,0.559C2.069,0.517 2.116,0.436 2.105,0.385C2.078,0.255 2.023,0.13 1.969,0.007C1.929,-0.084 1.847,-0.119 1.751,-0.095C1.65,-0.069 1.554,-0.01 1.452,-0.003C1.042,0.023 0.631,0.036 0.22,0.054C-0.007,0.025 -0.315,0.13 -0.487,0.272C-0.677,0.427 -0.693,0.736 -0.59,0.927C-0.466,1.156 -0.226,1.236 0,1.281" style="fill:white;fill-rule:nonzero;"/>
            </g>
            <g transform="matrix(1.33333,0,0,1.33333,650.356,1025.62)">
                <path d="M0,-0.68C-0.063,-0.869 -0.078,-1.076 -0.112,-1.275C-0.142,-1.285 -0.173,-1.296 -0.204,-1.307C-0.014,-1.538 0.14,-1.833 0.532,-1.711C0.815,-1.622 0.93,-1.087 0.699,-0.821C0.58,-0.684 0.405,-0.585 0.237,-0.512C0.188,-0.49 0.026,-0.601 0,-0.68M3.452,2.432C3.675,2.327 3.742,2.102 3.548,1.964C3.327,1.807 3.052,1.712 2.788,1.633C2.475,1.539 2.149,1.492 1.83,1.421C1.568,1.363 1.294,1.334 1.052,1.23C0.781,1.115 0.454,0.984 0.311,0.759C0.175,0.544 0.351,0.27 0.572,0.047C1.074,-0.458 1.6,-0.96 1.733,-1.723C1.813,-2.184 1.517,-2.513 1.059,-2.434C0.863,-2.401 0.657,-2.358 0.467,-2.389C0.333,-2.411 0.219,-2.552 0.096,-2.639C0.199,-2.754 0.281,-2.915 0.41,-2.972C0.68,-3.092 0.972,-3.165 1.26,-3.24C1.473,-3.295 1.488,-3.411 1.418,-3.587C1.302,-3.879 1.073,-3.827 0.832,-3.814C0.695,-3.806 0.457,-3.856 0.432,-3.933C0.364,-4.151 0.251,-4.343 0.043,-4.312C-0.175,-4.279 -0.464,-4.169 -0.563,-3.999C-0.93,-3.372 -1.509,-3.288 -2.126,-3.31C-2.637,-3.328 -3.091,-2.92 -3.049,-2.413C-3.027,-2.156 -2.768,-2.022 -2.566,-2.169C-2.124,-2.491 -1.599,-2.576 -1.084,-2.678C-0.95,-2.704 -0.796,-2.636 -0.651,-2.612C-0.679,-2.456 -0.656,-2.253 -0.746,-2.152C-0.982,-1.888 -1.267,-1.668 -1.592,-1.378C-1.622,-1.525 -1.651,-1.579 -1.635,-1.605C-1.515,-1.805 -1.524,-2.01 -1.708,-2.135C-1.921,-2.279 -2.149,-2.259 -2.379,-2.093C-2.667,-1.885 -2.6,-1.584 -2.648,-1.311C-2.774,-0.61 -3.005,0.089 -2.489,0.754C-2.337,0.95 -2.199,1.049 -1.978,0.987C-1.71,0.912 -1.67,0.686 -1.775,0.481C-2.002,0.033 -1.847,-0.356 -1.632,-0.737C-1.589,-0.813 -1.446,-0.832 -1.349,-0.878C-1.321,-0.764 -1.237,-0.623 -1.277,-0.544C-1.371,-0.358 -1.364,-0.235 -1.188,-0.121C-0.971,0.021 -0.976,0.193 -1.125,0.386C-1.274,0.578 -1.419,0.772 -1.561,0.969C-1.656,1.102 -1.722,1.264 -1.837,1.375C-2.066,1.594 -2.314,1.796 -2.567,1.989C-2.693,2.085 -2.849,2.14 -2.987,2.221C-3.06,2.263 -3.19,2.33 -3.183,2.367C-3.144,2.601 -3.132,2.871 -3.001,3.049C-2.76,3.376 -2.231,3.207 -1.967,2.768C-1.843,2.562 -1.697,2.365 -1.54,2.184C-1.479,2.114 -1.354,2.062 -1.264,2.069C-1.217,2.073 -1.161,2.222 -1.148,2.312C-1.097,2.639 -1.095,2.979 -1.006,3.295C-0.966,3.44 -0.784,3.592 -0.634,3.64C-0.562,3.663 -0.361,3.47 -0.315,3.341C-0.253,3.164 -0.28,2.954 -0.275,2.759C-0.269,2.48 -0.299,2.195 -0.257,1.922C-0.225,1.709 -0.061,1.614 0.129,1.795C0.407,2.059 0.72,2.208 1.109,2.217C1.221,2.22 1.342,2.292 1.44,2.359C2.097,2.808 2.769,2.754 3.452,2.432" style="fill:white;fill-rule:nonzero;"/>
            </g>
            <g transform="matrix(1.33333,0,0,1.33333,637.453,1023.05)">
                <path d="M0,3.113C-0.361,3.152 -0.724,3.174 -1.063,3.201C-1.313,3.184 -1.537,3.179 -1.757,3.145C-1.804,3.138 -1.882,2.997 -1.863,2.961C-1.554,2.364 -1.167,1.841 -0.475,1.653C-0.351,1.619 -0.206,1.607 -0.086,1.639C0.006,1.665 0.122,1.765 0.143,1.852C0.188,2.042 0.178,2.246 0.191,2.443C0.2,2.565 0.198,2.689 0.223,2.808C0.264,3.001 0.168,3.095 0,3.113M4.373,1.651C4.369,1.439 4.313,1.228 4.276,1.017C4.242,0.815 4.102,0.714 3.918,0.756C3.792,0.784 3.64,0.874 3.582,0.981C3.52,1.097 3.498,1.359 3.556,1.393C3.811,1.545 3.793,1.761 3.785,1.994C3.775,2.248 3.777,2.503 3.571,2.716C3.247,2.493 2.915,2.497 2.586,2.729C2.329,2.91 2.039,2.934 1.743,2.908C1.688,2.903 1.594,2.801 1.598,2.749C1.618,2.467 1.674,2.187 1.696,1.904C1.717,1.641 1.712,1.377 1.716,1.113C1.722,0.802 1.725,0.49 1.732,0.179C1.734,0.077 1.721,-0.035 1.759,-0.125C1.908,-0.49 1.83,-0.828 1.672,-1.164C1.59,-1.336 1.184,-1.515 1.054,-1.394C0.857,-1.211 0.64,-0.997 0.559,-0.753C0.438,-0.387 0.415,0.013 0.374,0.402C0.337,0.755 0.16,0.992 -0.191,1.073C-0.539,1.152 -0.883,1.24 -1.157,1.487C-1.406,1.712 -1.658,1.937 -1.887,2.181C-2.093,2.401 -2.276,2.642 -2.457,2.882C-2.694,3.198 -2.87,3.537 -2.819,3.954C-2.773,4.328 -2.508,4.583 -2.132,4.604C-1.694,4.628 -1.277,4.557 -0.852,4.434C-0.321,4.282 0.228,4.173 0.777,4.108C1.231,4.055 1.617,3.854 2.016,3.678C2.352,3.53 2.557,3.549 2.854,3.79C2.949,3.868 3.138,3.926 3.235,3.884C3.418,3.804 3.611,3.673 3.718,3.51C3.938,3.172 4.098,2.795 4.296,2.442C4.44,2.186 4.379,1.915 4.373,1.651" style="fill:white;fill-rule:nonzero;"/>
            </g>
        </g>
        <g>
            <g transform="matrix(-1.33333,0,0,1.33333,1515.42,706.192)">
                <rect x="453.248" y="255.565" width="230.068" height="149.776" style="fill:white;stroke:rgb(220,221,221);stroke-width:0.49px;"/>
            </g>
            <g transform="matrix(1.33333,0,0,1.33333,711.216,1136.74)">
                <path d="M0,14.163C0,14.163 1.81,15.525 2.927,16.486C2.859,16.731 2.613,16.844 2.278,16.844L-17.871,16.844L-18.05,16.195L-14.833,16.195L-14.833,4.534L-11.191,4.848C-11.236,5.16 -11.415,5.384 -12.019,5.495L-12.019,16.195L-8.623,16.195L-8.623,-0.023L-16.731,-0.023L-16.91,-0.67L-2.412,-0.67L-0.826,-2.681C-0.826,-2.681 0.938,-1.318 2.033,-0.38C1.966,-0.134 1.742,-0.023 1.407,-0.023L-5.764,-0.023L-5.764,7.193L-3.105,7.193L-1.563,5.205C-1.563,5.205 0.179,6.545 1.206,7.461C1.14,7.684 0.894,7.796 0.581,7.796L-5.764,7.796L-5.764,16.195L-1.608,16.195L0,14.163Z" style="fill:rgb(34,24,21);fill-rule:nonzero;"/>
            </g>
            <g transform="matrix(1.33333,0,0,1.33333,733.614,1160.81)">
                <path d="M0,-20.887C6.97,-20.083 4.893,-14.878 2.256,-16.665C1.943,-18.117 0.871,-19.748 -0.156,-20.753L0,-20.887ZM-2.748,-15.236C-1.742,-11.75 0.111,-9.092 2.547,-7.126C4.4,-9.494 5.473,-12.22 5.965,-15.236L-2.748,-15.236ZM9.204,-15.236C8.399,-11.572 6.902,-8.377 4.379,-5.853C6.881,-4.267 9.874,-3.24 13.023,-2.57L12.957,-2.301C11.639,-2.122 10.678,-1.319 10.209,0C7.193,-0.984 4.624,-2.324 2.524,-4.244C-0.089,-2.301 -3.484,-0.871 -7.908,0L-8.02,-0.269C-4.043,-1.586 -1.005,-3.396 1.184,-5.608C-0.871,-7.975 -2.346,-11.125 -3.149,-15.236L-7.64,-15.236L-7.818,-15.861L8.354,-15.861L9.941,-17.983C9.941,-17.983 11.706,-16.553 12.733,-15.593C12.666,-15.347 12.443,-15.236 12.107,-15.236L9.204,-15.236Z" style="fill:rgb(34,24,21);fill-rule:nonzero;"/>
            </g>
            <g transform="matrix(1.33333,0,0,1.33333,786.066,1154.29)">
                <path d="M0,-11.191C-0.134,-11.057 -0.446,-10.856 -0.894,-10.767L-0.894,1.699C-0.894,3.508 -1.362,4.58 -4.624,4.893C-4.758,4.022 -4.915,3.396 -5.384,2.995C-5.853,2.57 -6.479,2.257 -7.886,2.034L-7.886,1.721C-7.886,1.721 -4.848,1.922 -4.11,1.922C-3.686,1.922 -3.552,1.743 -3.552,1.408L-3.552,-11.169L-9.047,-11.169C-9.137,-10.119 -9.293,-9.114 -9.562,-8.198C-2.457,-5.54 -4.244,-0.423 -6.746,-2.211C-7.193,-3.976 -8.489,-5.963 -9.784,-7.483C-10.655,-4.959 -12.398,-2.925 -16.017,-1.384L-16.263,-1.719C-12.979,-4.266 -11.996,-7.304 -11.706,-11.169L-16.464,-11.169L-16.464,3.887C-16.464,4.223 -17.536,4.848 -18.653,4.848L-19.077,4.848L-19.077,-12.978L-16.263,-11.817L-11.661,-11.817C-11.571,-13.134 -11.549,-14.564 -11.549,-16.084L-8.02,-15.793C-8.064,-15.48 -8.288,-15.234 -8.824,-15.168C-8.868,-13.984 -8.913,-12.867 -8.98,-11.817L-3.775,-11.817L-2.547,-13.202L0,-11.191Z" style="fill:rgb(34,24,21);fill-rule:nonzero;"/>
            </g>
            <g transform="matrix(1.33333,0,0,1.33333,810.519,1153.9)">
                <path d="M0,-10.768C7.953,-10.478 7.171,-5.138 4.424,-6.189C3.508,-7.775 1.452,-9.583 -0.179,-10.567L0,-10.768ZM1.676,-1.408L-4.981,-1.408L-4.981,2.859L1.676,2.859L1.676,-1.408ZM2.614,-3.262C1.117,-4.423 -0.089,-5.853 -0.871,-7.417C-2.055,-5.764 -4.11,-4.111 -6.545,-2.726L-4.825,-2.034L1.475,-2.034L2.614,-3.262ZM-10.61,-5.652C-8.601,-7.149 -6.679,-9.583 -5.83,-11.371L-2.859,-10.053C-2.971,-9.83 -3.149,-9.696 -3.641,-9.741C-5.07,-8.154 -7.706,-6.323 -10.409,-5.384L-10.61,-5.652ZM-8.556,-12.085C-8.399,-10.478 -8.979,-9.361 -9.739,-8.891C-10.454,-8.422 -11.526,-8.601 -11.839,-9.427C-12.085,-10.209 -11.616,-10.813 -10.945,-11.148C-10.142,-11.572 -9.271,-12.734 -9.337,-13.985L-9.024,-13.985C-8.846,-13.538 -8.734,-13.136 -8.645,-12.734L-1.987,-12.734C-2.122,-12.779 -2.256,-12.845 -2.39,-12.935C-2.502,-13.94 -3.217,-15.035 -3.932,-15.593L-3.774,-15.727C0.715,-15.973 0.581,-13.315 -0.826,-12.734L5.116,-12.734L6.434,-14.074L8.735,-11.863C8.578,-11.662 8.333,-11.617 7.886,-11.594C7.171,-10.902 5.965,-9.963 5.004,-9.45L4.804,-9.583C4.981,-10.277 5.161,-11.282 5.272,-12.085L-8.556,-12.085ZM0.559,-8.176C0.47,-7.886 0.201,-7.752 -0.491,-7.685C1.542,-5.54 5.696,-4.111 9.003,-3.53L9.003,-3.172C7.931,-2.86 7.238,-1.743 7.104,-0.783C5.786,-1.274 4.513,-1.944 3.374,-2.726L5.026,-1.453C4.915,-1.319 4.669,-1.14 4.267,-1.073L4.267,4.378C4.245,4.534 2.972,5.026 2.122,5.026L1.676,5.026L1.676,3.484L-4.981,3.484L-4.981,4.4C-4.981,4.624 -6.12,5.205 -7.148,5.205L-7.528,5.205L-7.528,-2.19C-8.979,-1.43 -10.544,-0.783 -12.063,-0.313L-12.175,-0.604C-8.265,-2.547 -4.177,-6.367 -3.261,-9.092L0.559,-8.176Z" style="fill:rgb(34,24,21);fill-rule:nonzero;"/>
            </g>
        </g>
    </g>
</svg>
