<?xml version="1.0" encoding="UTF-8" standalone="no"?>
<!DOCTYPE svg PUBLIC "-//W3C//DTD SVG 1.1//EN" "http://www.w3.org/Graphics/SVG/1.1/DTD/svg11.dtd">
<svg width="100%" height="100%" viewBox="0 0 456 455" version="1.1" xmlns="http://www.w3.org/2000/svg" xmlns:xlink="http://www.w3.org/1999/xlink" xml:space="preserve" xmlns:serif="http://www.serif.com/" style="fill-rule:evenodd;clip-rule:evenodd;stroke-linejoin:round;stroke-miterlimit:2;">
    <g transform="matrix(1,0,0,1,-333.656,-973.522)">
        <g transform="matrix(1.33333,0,0,1.33333,561.373,981.185)">
            <path d="M0,329.746C-89.513,329.767 -164.701,257.32 -165.086,164.928C-164.689,72.613 -89.58,0.081 0,0.1C90.698,0.119 164.784,74.128 164.853,164.809C164.925,255.672 90.721,329.725 0,329.746M-0.073,-5.747C-95.699,-5.226 -170.493,72.081 -170.787,164.387C-171.083,257.365 -95.87,335.478 0.057,335.486C94.379,335.493 170.664,259.13 170.617,164.86C170.572,70.617 94.264,-5.386 -0.073,-5.747" style="fill:rgb(154,0,4);fill-rule:nonzero;"/>
        </g>
        <g transform="matrix(1.33333,0,0,1.33333,709.848,1095.96)">
            <path d="M0,-13.434C-0.897,-14.009 -1.932,-14.517 -3.099,-14.165C-4.296,-13.805 -4.608,-12.893 -3.895,-11.903C-3.135,-10.845 -2.444,-9.731 -1.618,-8.727C-1.031,-8.012 -1.223,-7.487 -1.785,-6.988C-2.085,-6.722 -2.472,-6.474 -2.856,-6.398C-4.244,-6.126 -5.559,-5.581 -7.056,-5.711C-9.999,-5.967 -12.959,-6.006 -15.91,-6.195C-17.086,-6.27 -18.144,-5.456 -17.796,-4.493C-17.581,-3.9 -17.105,-3.217 -16.565,-2.963C-15.456,-2.442 -14.245,-2.062 -13.036,-1.854C-12.03,-1.68 -10.967,-1.803 -9.93,-1.846C-8.474,-1.906 -7.017,-2.08 -5.561,-2.074C-4.491,-2.069 -3.394,-1.64 -2.357,-1.776C-0.371,-2.04 1.589,-2.535 3.543,-3.005C4.662,-3.276 5.691,-3.641 6.803,-2.851C8.481,-1.659 10.239,-0.575 11.993,0.505C12.445,0.783 13.001,0.978 13.527,1.028C14.115,1.083 14.741,0.773 14.628,0.096C14.496,-0.695 14.263,-1.568 13.784,-2.176C13.005,-3.164 11.991,-3.966 11.078,-4.847C11.066,-4.838 11.055,-4.83 11.043,-4.821C10.842,-5.077 10.579,-5.308 10.461,-5.598C10.369,-5.821 10.36,-6.275 10.486,-6.356C11.14,-6.773 11.813,-7.235 12.544,-7.434C13.683,-7.742 14.901,-7.762 16.041,-8.065C17.85,-8.545 19.318,-9.377 20.01,-11.388C20.561,-12.981 20.103,-13.894 18.312,-14.158C16.121,-14.484 14.102,-13.815 12.161,-13.017C10.43,-12.306 8.829,-11.28 7.173,-10.388C5.327,-9.392 3.394,-9.803 2.061,-11.402C1.443,-12.143 0.796,-12.924 0,-13.434" style="fill:rgb(154,0,4);fill-rule:nonzero;"/>
        </g>
        <g transform="matrix(1.33333,0,0,1.33333,714.184,1104.83)">
            <path d="M0,5.451C-0.952,3.877 -1.738,2.265 -1.808,0.382C-1.862,-1.022 -1.957,-2.424 -2.022,-3.826C-2.071,-4.904 -2.535,-5.43 -3.58,-5.473C-5.005,-5.533 -5.781,-4.484 -6.592,-3.572C-7.088,-3.013 -7.356,-2.389 -6.726,-1.637C-6.502,-1.371 -6.575,-0.784 -6.641,-0.364C-7.131,2.754 -6.47,5.572 -4.332,8.363C-3.641,9.673 -2.061,10.191 -0.454,10.602C1.039,10.984 2.067,9.949 1.57,8.492C1.204,7.423 0.59,6.427 0,5.451" style="fill:rgb(154,0,4);fill-rule:nonzero;"/>
        </g>
        <g transform="matrix(1.33333,0,0,1.33333,583.65,1004.04)">
            <path d="M0,4.739C-0.419,2.684 0.557,1.026 2.049,-0.295C2.831,-0.986 3.964,-0.76 4.17,0.164C4.632,2.229 5.602,3.953 7.054,5.446C7.134,5.529 7.124,5.699 7.172,5.903C5.896,7.05 2.626,7.61 1.386,6.749C0.75,6.307 0.151,5.484 0,4.739M12.39,5.187C13.137,5.984 13.836,6.727 14.718,7.666C13.892,7.92 13.127,8.228 12.335,8.38C11.63,8.514 10.879,8.404 10.173,8.537C9.673,8.631 9.061,8.826 8.771,9.192C8.122,10.015 7.427,9.917 6.461,9.607C8.611,8.005 10.593,6.527 12.39,5.187M23.359,-6.381C22.94,-5.874 22.562,-5.325 22.095,-4.868C21.323,-4.117 20.85,-3.385 21.365,-2.231C21.544,-1.832 21.347,-1.171 21.142,-0.71C20.137,1.541 20.117,1.53 21.879,3.411C22.028,3.569 22.149,3.752 22.281,3.925C22.22,4.075 22.158,4.226 22.096,4.379C19.782,3.362 17.554,2.032 14.913,2.379C15.107,0.57 20.971,-5.624 23.359,-6.381M16.488,6.083C16.235,5.958 16.195,5.404 16.058,5.046C16.211,4.895 16.364,4.745 16.518,4.595C17.459,5.034 18.402,5.474 19.578,6.022C18.292,6.853 17.353,6.511 16.488,6.083M-12.378,13.818C-11.917,13.88 -11.292,13.795 -10.956,13.515C-9.847,12.583 -8.53,12.589 -7.229,12.499C-5.519,12.38 -3.805,12.29 -2.09,12.233C-0.75,12.189 0.597,12.153 1.936,12.222C3.958,12.325 5.973,12.605 7.994,12.647C9.098,12.671 10.232,12.134 11.31,12.25C14.15,12.553 16.984,12.98 19.784,13.536C22.36,14.049 24.888,14.801 27.439,15.434C28.155,15.611 28.895,15.784 29.293,14.894C29.377,13.781 28.637,13.514 27.783,13.313C26.731,13.067 25.677,12.812 24.645,12.493C21.879,11.642 19.223,10.426 16.261,10.267C15.156,10.207 14.07,9.829 12.974,9.594C12.989,9.483 13.003,9.37 13.017,9.258C15.316,9.284 17.617,9.323 19.916,9.332C24.399,9.351 26.705,5.445 24.503,1.547C24.018,0.69 23.94,-0.052 24.703,-0.784C24.957,-1.027 25.137,-1.348 25.422,-1.729C24.083,-3.449 25.015,-4.839 26.105,-6.201C26.19,-6.307 26.275,-6.417 26.333,-6.538C27.169,-8.257 26.47,-9.279 24.547,-9.176C22.686,-9.078 21.211,-8.118 19.74,-7.105C17.292,-5.418 15.696,-2.973 13.904,-0.697C13.451,-0.121 12.881,0.361 12.306,0.945C11.884,0.111 11.581,-0.488 11.265,-1.109C11.407,-1.327 11.499,-1.541 11.649,-1.696C12.743,-2.819 13.541,-3.984 12.889,-5.695C12.644,-6.342 13.05,-6.879 13.772,-7.159C14.356,-7.385 14.951,-7.689 15.408,-8.106C15.732,-8.399 16.014,-8.957 15.971,-9.36C15.939,-9.666 15.408,-10.059 15.028,-10.168C11.976,-11.045 8.912,-10.674 5.891,-10.005C5.42,-9.902 4.854,-9.098 4.792,-8.565C4.702,-7.791 5.403,-7.426 6.177,-7.417C7.113,-7.405 8.046,-7.411 9.073,-7.41C8.518,-6.62 7.79,-5.995 7.639,-5.251C7.486,-4.491 7.9,-3.616 7.986,-3.176C7.336,-2.647 6.648,-2.086 5.901,-1.476C3.255,-2.999 1.044,-2.651 -0.928,-0.283C-2.002,1.008 -2.692,2.472 -2.737,4.173C-2.796,6.379 -1.52,7.866 0.145,9.234C-1.16,9.516 -2.398,9.661 -3.64,9.754C-4.807,9.841 -5.996,9.772 -7.147,9.954C-8.528,10.173 -9.894,10.531 -11.234,10.934C-11.907,11.136 -12.573,11.492 -13.116,11.933C-13.381,12.148 -13.539,12.794 -13.413,13.109C-13.276,13.443 -12.764,13.767 -12.378,13.818" style="fill:rgb(154,0,4);fill-rule:nonzero;"/>
        </g>
        <g transform="matrix(1.33333,0,0,1.33333,595.946,1039.06)">
            <path d="M0,-9.334C0.303,-8.813 0.473,-8.521 0.786,-7.982C-0.154,-7.861 -0.904,-7.765 -1.651,-7.669C-1.721,-7.817 -1.791,-7.964 -1.861,-8.111C-1.272,-8.498 -0.684,-8.885 0,-9.334M2.32,-6.412C3.688,-6.195 4.67,-6.571 5.285,-7.934C5.757,-8.983 6.9,-9.14 8.992,-8.51C8.977,-7.651 9.02,-6.692 8.925,-5.747C8.866,-5.171 8.461,-4.622 8.441,-4.053C8.343,-1.055 6.209,0.166 3.741,1.37C3.077,-0.269 1.734,-0.845 -0.265,-0.507C-0.16,-1.717 -0.074,-2.711 0.004,-3.618C1.725,-4.296 1.725,-4.296 1.473,-6.309C1.813,-6.354 2.077,-6.45 2.32,-6.412M-7.073,-0.556C-6.478,0.535 -5.864,1.548 -4.4,1.645C-3.183,1.727 -1.976,1.963 -0.7,2.14C0.014,3.252 0.821,4.319 2.166,3.845C4.142,3.15 6.221,2.604 7.805,1.052C9.74,-0.848 11.201,-2.946 11.156,-5.803C11.143,-6.742 11.226,-7.687 11.15,-8.62C10.956,-11 10.131,-11.705 8.196,-10.946C7.5,-10.674 6.718,-10.622 5.879,-10.449C4.608,-13.308 1.752,-12.434 -0.411,-13.135C-1.062,-13.346 -2.071,-12.452 -3.256,-11.907C-3.578,-12.046 -4.311,-12.208 -4.847,-12.623C-6.04,-13.545 -6.532,-13.653 -7.682,-12.666C-8.253,-12.176 -8.874,-11.574 -9.11,-10.895C-9.683,-9.242 -10.296,-7.535 -10.426,-5.814C-10.585,-3.718 -10.302,-1.583 -10.116,0.525C-10.088,0.838 -9.55,1.322 -9.238,1.33C-8.949,1.338 -8.579,0.854 -8.37,0.511C-8.222,0.266 -8.269,-0.104 -8.25,-0.42C-8.162,-1.867 -8.175,-3.327 -7.971,-4.756C-7.807,-5.907 -7.489,-7.064 -7.043,-8.136C-6.665,-9.045 -5.75,-9.399 -4.777,-9.318C-3.876,-9.244 -3.326,-8.684 -3.222,-7.854C-3.567,-6.966 -3.854,-6.091 -3.915,-5.2C-3.978,-4.287 -3.818,-3.359 -3.755,-2.434C-6.807,-2.421 -6.807,-2.421 -7.073,-0.556" style="fill:rgb(154,0,4);fill-rule:nonzero;"/>
        </g>
        <g transform="matrix(1.33333,0,0,1.33333,676.475,1046.18)">
            <path d="M0,-2.124C-1.26,-0.007 -2.143,0.12 -4.283,-1.385C-2.807,-1.64 -1.603,-1.848 0,-2.124M2.742,-5.872C2.049,-4.939 1.578,-4.305 1.007,-3.537C0.462,-4.011 -0.006,-4.416 -0.656,-4.981C0.485,-5.279 1.419,-5.525 2.742,-5.872M-23.304,-5.273C-22.408,-5.316 -21.515,-5.383 -20.71,-5.435C-21.797,-3.432 -22.98,-1.253 -24.163,0.927C-24.001,1.032 -23.84,1.138 -23.677,1.243C-21.328,0.873 -19.244,0.104 -17.986,-2.202C-17.283,-3.49 -16.529,-4.779 -14.614,-4.464C-14,-4.363 -13.284,-4.778 -12.637,-5.013C-10.273,-5.873 -7.927,-6.78 -5.556,-7.62C-4.678,-7.93 -3.879,-7.834 -3.538,-6.736C-4.514,-5.691 -6.759,-5.414 -5.426,-3.158C-6.176,-2.96 -6.863,-2.835 -7.507,-2.595C-8.595,-2.19 -9.709,-1.804 -10.699,-1.219C-11.083,-0.993 -11.415,-0.182 -11.305,0.242C-11.198,0.653 -10.538,1.042 -10.044,1.207C-8.144,1.844 -6.213,2.386 -4.173,3C-7.228,8.845 -12.608,12.734 -14.877,18.777C-14.502,18.454 -14.127,18.131 -13.586,17.662C-13.646,18.265 -13.683,18.641 -13.742,19.237C-12.114,18.021 -10.539,17.094 -9.277,15.851C-6.879,13.484 -4.578,11.003 -2.389,8.439C-0.757,6.528 0.598,4.533 3.688,5.337C4.375,5.515 5.382,4.46 6.24,3.973C5.824,3.34 5.311,2.748 5.023,2.062C4.787,1.498 4.538,0.665 4.782,0.222C5.762,-1.556 6.983,-3.199 8.021,-4.947C9.33,-7.151 10.604,-9.379 11.779,-11.656C12.192,-12.459 12.061,-13.393 11.032,-13.808C10.088,-14.186 9.291,-14.001 8.649,-13.113C7.086,-10.949 5.475,-8.82 3.859,-6.644C1.65,-8.784 -1.102,-9.794 -3.082,-9.27C-4.734,-8.833 -6.356,-8.286 -8.005,-7.836C-9.242,-7.499 -10.496,-7.203 -11.754,-6.968C-12.035,-6.916 -12.378,-7.206 -12.692,-7.338C-12.521,-7.642 -12.426,-8.062 -12.167,-8.226C-11.387,-8.723 -10.527,-9.096 -9.729,-9.569C-9.438,-9.743 -9.187,-10.031 -8.993,-10.318C-8.488,-11.063 -8.091,-11.893 -7.526,-12.585C-6.953,-13.286 -6.153,-13.8 -5.594,-14.507C-4.807,-15.502 -5.157,-16.534 -6.393,-16.569C-7.488,-16.601 -8.805,-16.412 -9.664,-15.808C-12.376,-13.9 -15.028,-12.28 -18.422,-14.09C-18.468,-14.115 -18.528,-14.114 -18.578,-14.132C-20.092,-14.686 -20.129,-15.202 -18.971,-16.368C-15.941,-19.422 -12.176,-19.152 -8.418,-18.713C-6.485,-18.486 -4.555,-18.22 -3.342,-16.166C-2.555,-14.832 -0.63,-15.127 -0.287,-16.616C-0.031,-17.723 -0.4,-19.107 -0.885,-20.189C-1.085,-20.634 -2.314,-20.656 -3.089,-20.789C-3.663,-20.886 -4.261,-20.835 -4.846,-20.879C-11.286,-21.361 -17.35,-20.414 -22.584,-16.255C-23.442,-15.572 -24.292,-14.898 -24.069,-13.624C-23.854,-12.4 -22.895,-12.119 -21.867,-11.841C-20.731,-11.533 -19.631,-11.095 -18.079,-10.564C-19.533,-10.073 -20.588,-9.907 -21.424,-9.387C-22.519,-8.707 -23.622,-7.882 -24.379,-6.865C-25.014,-6.012 -24.534,-5.215 -23.304,-5.273" style="fill:rgb(154,0,4);fill-rule:nonzero;"/>
        </g>
        <g transform="matrix(1.33333,0,0,1.33333,510.835,1016.15)">
            <path d="M0,14.407C0.997,15.006 2.135,14.815 3.22,14.49C3.202,14.424 3.185,14.356 3.168,14.29C4.528,13.926 5.888,13.562 7.247,13.196C7.563,13.11 7.915,13.077 8.186,12.911C9.424,12.157 10.67,11.408 11.853,10.573C13.068,9.716 14.202,8.745 15.393,7.853C16.5,7.021 17.622,6.205 18.771,5.429C19.31,5.064 19.904,4.755 20.624,5.007C20.78,5.061 21.001,4.91 21.197,4.882C21.483,4.838 21.81,4.719 22.058,4.808C23.087,5.183 23.828,4.697 24.515,4.054C24.883,3.71 25.163,3.271 25.533,2.931C25.99,2.512 26.148,2.027 25.843,1.509C25.455,0.843 24.982,0.225 24.524,-0.397C24.446,-0.504 24.25,-0.599 24.122,-0.583C23.177,-0.467 22.123,-0.546 21.315,-0.142C18.921,1.054 16.473,2.057 13.906,2.817C12.346,3.279 10.849,3.957 9.328,4.55C8.712,4.791 8.145,4.831 7.503,4.536C7.056,4.332 6.451,4.201 6.001,4.332C4.92,4.645 4.204,5.485 3.586,6.403C3.365,6.73 3.094,7.042 2.789,7.288C1.461,8.362 0.013,9.264 -0.872,10.843C-1.881,12.643 -1.555,13.471 0,14.407" style="fill:rgb(154,0,4);fill-rule:nonzero;"/>
        </g>
        <g transform="matrix(1.33333,0,0,1.33333,517.274,999.26)">
            <path d="M0,9.442C0.97,9.378 1.905,8.82 2.862,8.497C3.286,8.353 3.811,8.027 4.14,8.159C5.357,8.647 5.945,7.925 6.507,7.115C7.428,5.788 8.33,4.448 9.198,3.087C9.367,2.82 9.496,2.347 9.373,2.107C9.059,1.491 8.614,0.934 8.179,0.389C7.856,-0.015 7.396,-0.08 6.948,0.172C6.475,0.438 6.068,0.863 5.569,1.032C3.544,1.721 1.495,2.337 -0.545,2.979C-1.726,3.141 -3.13,4.084 -3.806,5.025C-4.55,6.064 -4.218,7.639 -3.444,8.455C-2.511,9.44 -1.195,9.522 0,9.442" style="fill:rgb(154,0,4);fill-rule:nonzero;"/>
        </g>
        <g transform="matrix(1.33333,0,0,1.33333,757.574,1165.18)">
            <path d="M0,-20.979C-0.732,-20.542 -1.433,-20.124 -2.186,-19.675C-2.035,-19.156 -1.937,-18.823 -1.84,-18.49C-1.895,-18.419 -1.951,-18.348 -2.008,-18.276C-2.598,-18.639 -3.187,-19.002 -3.771,-19.361C-2.936,-20.831 -1.727,-21.313 0,-20.979M1.549,-21.367C1.615,-21.141 1.682,-20.914 1.749,-20.687C1.662,-20.662 1.576,-20.638 1.489,-20.612C1.423,-20.839 1.357,-21.066 1.289,-21.292C1.376,-21.317 1.463,-21.343 1.549,-21.367M4.115,-5.388C5.184,-2.733 5.184,-2.733 6.246,-2.591C6.495,-3.028 6.899,-3.495 7.025,-4.027C7.18,-4.676 7.304,-5.172 8.253,-5.051C8.587,-3.913 8.931,-2.732 9.276,-1.555C5.9,-0.401 4.75,-0.243 2.256,-3.164C2.828,-3.848 3.42,-4.557 4.115,-5.388M-14.97,-20.583C-11.804,-21.257 -10.406,-20.479 -9.222,-17.659C-8.297,-15.451 -7.242,-13.296 -6.202,-11.137C-5.874,-10.457 -5.27,-9.891 -5.027,-9.192C-4.102,-6.535 -3.245,-3.854 -2.419,-1.166C-1.859,0.656 -1.918,0.705 -3.747,1.342C-4.926,1.753 -5.182,2.356 -4.536,3.396C-3.73,4.692 -2.393,5.315 -0.999,5.395C1.003,5.511 1.694,4.038 0.882,2.198C0.396,1.098 0.284,-0.17 0.004,-1.363C0.158,-1.467 0.312,-1.572 0.465,-1.675C1.256,-1.133 2.024,-0.552 2.843,-0.058C3.759,0.492 4.751,1.431 5.66,1.376C7.662,1.253 9.633,0.612 11.714,0.16C11.723,-0.645 11.857,-1.253 11.712,-1.784C11.289,-3.344 10.733,-4.867 10.273,-6.417C9.955,-7.487 9.065,-7.859 8.21,-7.161C6.805,-6.013 5.294,-5.665 3.531,-6.205C1.875,-6.711 1.185,-6.32 0.427,-4.691C0.274,-4.363 0.058,-4.065 -0.291,-3.485C-0.55,-4.237 -0.722,-4.645 -0.832,-5.069C-1.549,-7.863 -2.61,-10.444 -4.479,-12.739C-5.392,-13.861 -5.722,-15.456 -6.316,-16.836C-4.095,-15.877 -4.095,-15.877 -2.251,-17.729C-1.458,-17.331 -0.692,-16.723 0.155,-16.577C1.342,-16.372 1.642,-17.51 2.139,-18.744C2.6,-18.004 2.823,-17.418 3.238,-17.047C3.618,-16.709 4.239,-16.395 4.688,-16.47C4.982,-16.52 5.464,-17.454 5.33,-17.693C4.75,-18.721 5.047,-19.723 5.186,-20.728C5.596,-23.713 2.873,-26.49 -0.263,-25.059C-0.88,-24.778 -1.54,-24.583 -2.138,-24.268C-3.649,-23.473 -5.136,-22.632 -6.801,-21.718C-7.357,-24.075 -8.348,-25.933 -11.017,-26.085C-12.354,-25.111 -13.722,-24.15 -15.051,-23.14C-16.13,-22.319 -16.1,-21.632 -14.97,-20.583" style="fill:rgb(154,0,4);fill-rule:nonzero;"/>
        </g>
        <g transform="matrix(1.33333,0,0,1.33333,730.043,1150.52)">
            <path d="M0,6.274C-3.012,6.061 -4.318,4.805 -4.785,1.828C-4.867,1.3 -5.359,0.618 -5.834,0.418C-6.645,0.077 -7.589,-0.025 -8.485,-0.074C-9.816,-0.147 -10.675,1.084 -10.012,2.229C-9.16,3.702 -8.314,5.306 -7.068,6.399C-4.497,8.652 -1.687,10.673 2.116,9.742C2.374,9.678 2.659,9.743 2.928,9.711C4.211,9.561 5.107,9.918 5.47,11.314C5.75,12.386 6.54,12.71 7.596,12.321C8.053,12.153 8.516,12.002 8.902,11.869C8.983,11.591 9.074,11.451 9.049,11.333C8.898,10.626 8.727,9.922 8.55,9.22C8.309,8.265 8.863,6.991 9.725,6.604C10.701,6.164 11.104,6.997 11.622,7.515C11.837,7.73 11.959,8.04 12.109,8.315C12.615,9.241 13.403,9.463 14.232,8.832C14.686,8.487 15.051,8.022 15.524,7.544C15.076,6.955 14.75,6.407 14.311,5.97C12.939,4.604 11.93,3.129 11.755,1.081C11.646,-0.206 11.147,-1.48 10.692,-2.714C10.337,-3.682 9.865,-4.632 9.295,-5.49C8.792,-6.246 7.465,-6.436 6.842,-6.012C6.149,-5.542 5.995,-4.498 6.573,-3.568C6.901,-3.039 7.314,-2.529 7.792,-2.135C9.428,-0.786 10.081,1.052 10.585,2.949C8.959,2.845 7.416,2.744 5.874,2.644C5.797,2.51 5.725,2.395 5.664,2.277C4.76,0.557 3.883,-1.177 2.944,-2.878C2.433,-3.805 0.312,-4.63 -0.637,-4.356C-1.845,-4.009 -2.132,-2.38 -1.283,-1.015C0.097,1.203 1.436,3.447 2.829,5.743C2.66,6.031 2.485,6.329 2.319,6.611C1.412,6.476 0.71,6.325 0,6.274" style="fill:rgb(154,0,4);fill-rule:nonzero;"/>
        </g>
        <g transform="matrix(1.33333,0,0,1.33333,762.859,1155.64)">
            <path d="M0,-6.788C-0.341,-6.653 -0.698,-5.936 -0.639,-5.544C-0.514,-4.713 -0.122,-3.922 0.189,-3.034C-0.807,-2.469 -1.364,-3.485 -1.975,-3.655C-2.553,-4.745 -1.899,-6.142 -3.151,-6.686C-4.163,-6.187 -4.947,-5.802 -5.822,-5.372C-6.105,-4.485 -5.112,-2.123 -3.896,-1.074C-3.519,-1.263 -3.13,-1.459 -2.635,-1.709C-0.575,0.634 1.125,-1.652 2.998,-2.131C3.928,-1.825 4.856,-1.521 5.732,-1.234C6.614,-2.504 6.507,-2.749 5.459,-3.524C4.255,-4.416 2.739,-4.922 2.056,-6.493C1.651,-7.422 0.663,-7.05 0,-6.788" style="fill:rgb(154,0,4);fill-rule:nonzero;"/>
        </g>
        <g transform="matrix(1.33333,0,0,1.33333,409.127,1100.72)">
            <path d="M0,-18.949C1.238,-19.758 3.663,-18.503 3.952,-16.77C4.101,-15.881 3.927,-14.892 3.676,-14.014C3.603,-13.758 2.663,-13.49 2.279,-13.637C1.349,-13.995 0.511,-14.593 -0.363,-15.094C-0.501,-15.009 -0.64,-14.924 -0.778,-14.838C-1.067,-16.302 -1.711,-17.832 0,-18.949M-11.582,-8.491C-11.42,-11.212 -10.083,-13.498 -8.843,-15.8C-8.517,-16.404 -7.769,-16.78 -7.215,-17.259C-6.704,-16.655 -5.851,-16.103 -5.749,-15.437C-5.479,-13.692 -5.539,-11.896 -5.452,-9.729C-6.115,-10.082 -6.411,-10.138 -6.463,-10.282C-6.851,-11.378 -7.666,-11.994 -8.732,-11.682C-9.961,-11.321 -10.605,-10.379 -10.698,-8.967C-10.814,-7.201 -9.441,-6.507 -8.545,-5.452C-6.248,-2.748 -4.294,0.358 -0.098,0.481C1.134,0.518 1.956,0.302 2.419,-0.748C2.977,-2.013 2.234,-2.883 1.115,-3.133C-1.329,-3.678 -2.334,-5.509 -3.115,-7.542C-3.27,-7.947 -2.892,-8.56 -2.759,-9.077C-2.235,-8.824 -1.424,-8.698 -1.246,-8.294C-0.829,-7.346 -0.334,-6.982 0.66,-7.294C1.896,-7.68 2.542,-7.117 2.81,-5.931C3.075,-4.751 3.363,-3.575 3.672,-2.405C3.881,-1.617 4.293,-0.852 4.354,-0.058C4.474,1.519 4.465,3.113 4.403,4.694C4.372,5.483 4.092,6.259 3.961,7.046C3.892,7.462 3.74,8.172 3.904,8.267C4.925,8.855 6.004,9.664 7.102,9.725C9.123,9.836 10.154,7.265 9.301,4.857C8.901,3.726 8.607,2.546 8.409,1.363C8.332,0.907 8.528,0.261 8.844,-0.06C9.007,-0.227 9.757,0.031 10.145,0.261C11.565,1.105 12.877,2.172 14.372,2.834C15.059,3.138 16.22,2.923 16.879,2.498C17.197,2.294 17.094,0.908 16.74,0.323C16.257,-0.477 15.367,-1.039 14.629,-1.675C13.574,-2.586 12.387,-3.37 11.469,-4.397C10.754,-5.197 10.907,-6.131 12.204,-6.287C14.098,-6.517 15.668,-7.251 16.936,-8.718C17.301,-9.14 17.961,-9.374 18.531,-9.54C22.339,-10.645 24.265,-13.398 25.189,-17.043C25.491,-18.236 24.841,-19.207 23.694,-18.898C22.389,-18.546 21.155,-17.788 20.011,-17.024C18.659,-16.12 17.445,-15.014 16.159,-14.01C15.108,-13.189 14.125,-12.227 12.958,-11.623C11.655,-10.949 10.115,-10.104 8.797,-10.272C7.54,-10.431 7.043,-11.975 6.888,-13.53C6.536,-17.063 6.274,-20.679 3.759,-23.609C2.242,-25.377 0.04,-25.28 -1.109,-23.27C-1.601,-22.412 -2.091,-21.483 -2.814,-20.852C-3.325,-20.408 -4.226,-20.412 -4.953,-20.216C-5.065,-20.976 -5.428,-21.806 -5.239,-22.481C-4.84,-23.898 -4.195,-25.256 -3.569,-26.599C-3.107,-27.59 -3.505,-28.02 -4.405,-28.309C-5.895,-28.785 -6.425,-27.741 -7.135,-26.773C-7.538,-26.222 -8.487,-25.463 -8.86,-25.614C-9.916,-26.041 -11.011,-26.218 -11.551,-25.318C-12.115,-24.376 -12.608,-22.915 -12.272,-21.996C-11.022,-18.596 -12.534,-16.103 -14.575,-13.801C-16.265,-11.896 -16.135,-8.852 -14.052,-7.41C-12.994,-6.677 -11.656,-7.248 -11.582,-8.491" style="fill:rgb(154,0,4);fill-rule:nonzero;"/>
        </g>
        <g transform="matrix(1.33333,0,0,1.33333,378.352,1144.08)">
            <path d="M0,5.46C0.238,5.053 0.869,4.624 1.312,4.638C2.281,4.669 3.241,4.977 4.206,5.165C4.801,5.282 5.393,5.449 5.994,5.48C6.974,5.534 7.3,6.111 7.17,6.942C6.892,8.721 6.532,10.487 6.225,12.145C5.823,13.322 5.514,14.392 5.068,15.403C4.973,15.615 4.198,15.811 4.047,15.674C1.587,13.426 -0.421,10.897 -0.437,7.343C-0.44,6.708 -0.311,5.994 0,5.46M-10.636,-0.7C-9.04,0.349 -7.15,0.974 -5.341,1.668C-3.693,2.301 -2.785,3.452 -2.852,5.237C-2.917,7.008 -2.939,8.77 -2.107,10.395C-1.347,11.878 -0.595,13.373 0.284,14.787C1.07,16.053 1.99,17.242 2.91,18.417C4.118,19.959 5.517,21.234 7.582,21.527C9.432,21.791 10.991,20.847 11.575,19.07C12.256,17.003 12.448,14.913 12.407,12.722C12.356,9.982 12.542,7.209 12.937,4.496C13.263,2.254 12.794,0.144 12.464,-1.993C12.187,-3.795 12.543,-4.752 14.08,-5.865C14.572,-6.222 15.096,-7.049 15.017,-7.571C14.868,-8.549 14.492,-9.642 13.846,-10.362C12.511,-11.853 10.909,-13.099 9.471,-14.504C8.428,-15.524 7.049,-15.577 5.779,-15.89C4.757,-16.141 3.674,-16.143 2.615,-16.24C1.607,-16.331 0.943,-15.794 0.906,-14.857C0.88,-14.216 1.116,-13.372 1.555,-12.959C2.029,-12.512 3.257,-12.07 3.496,-12.303C4.55,-13.331 5.56,-12.968 6.665,-12.629C7.874,-12.257 9.097,-11.938 9.85,-10.682C8.367,-9.415 7.963,-7.814 8.649,-5.942C9.189,-4.475 8.932,-3.057 8.426,-1.673C8.33,-1.415 7.721,-1.098 7.478,-1.182C6.15,-1.642 4.879,-2.268 3.555,-2.738C2.324,-3.174 1.05,-3.488 -0.208,-3.849C-1.693,-4.277 -3.182,-4.689 -4.665,-5.123C-5.153,-5.265 -5.705,-5.349 -6.089,-5.642C-7.644,-6.826 -9.364,-6.888 -11.174,-6.559C-12.107,-6.39 -13.484,-4.672 -13.073,-3.894C-12.449,-2.715 -11.7,-1.398 -10.636,-0.7" style="fill:rgb(154,0,4);fill-rule:nonzero;"/>
        </g>
        <g transform="matrix(1.33333,0,0,1.33333,561.469,1048.05)">
            <path d="M0,229.588C-65.144,229.676 -115.304,176.584 -115.424,114.805C-115.544,51.955 -64.285,-0.413 -0.256,-0.497C62.829,-0.55 114.851,50.766 114.878,114.545C114.907,177.126 64.347,229.5 0,229.588M118.771,116.042C119.576,50.066 66.4,-3.709 1.064,-4.401C-63.927,-5.086 -118.864,47.036 -119.396,114.385C-119.019,181.406 -65.112,232.356 -2.41,233.487C63.313,234.674 117.969,181.878 118.771,116.042" style="fill:rgb(154,0,4);fill-rule:nonzero;"/>
        </g>
        <g transform="matrix(1.33333,0,0,1.33333,548.015,1152.44)">
            <path d="M0,-40.305C2.541,-40.549 5.059,-41.028 7.713,-41.419C8.307,-38.327 8.329,-38.288 6.319,-37.031C2.089,-34.384 -2.233,-31.909 -7.281,-31.184C-9.014,-30.936 -10.819,-31.008 -11.767,-29.102C-11.811,-29.015 -12.18,-29.091 -12.528,-29.091C-9.606,-34.352 -6.918,-39.64 0,-40.305M22.476,-27.72C24.04,-27.973 25.64,-28.438 27.045,-29.156C30.341,-30.839 30.511,-34.381 27.494,-36.523C25.601,-37.865 23.374,-38.279 21.14,-38.64C20.746,-38.703 20.352,-38.765 19.893,-38.839C19.15,-40.29 19.504,-41.766 19.541,-43.446C25.176,-43.18 30.255,-42.015 34.422,-38.293C38.833,-34.353 38.509,-30.371 33.548,-27.049C30.008,-24.678 26.006,-23.429 21.86,-22.736C18.695,-22.206 15.453,-22.135 12.288,-21.603C10.1,-21.234 7.875,-20.67 5.864,-19.756C3.344,-18.609 3.324,-16.868 5.531,-15.178C5.976,-14.836 6.463,-14.545 6.951,-14.269C9.437,-12.859 9.44,-12.864 8.818,-9.44C5.675,-9.778 2.804,-10.518 0.237,-12.117C-4.077,-14.805 -4.144,-19.716 0.068,-22.61C2.714,-24.429 5.772,-25.234 8.872,-25.746C13.392,-26.494 17.954,-26.983 22.476,-27.72M11.474,-55.676C13.584,-56.628 15.701,-56.615 17.723,-55.388C19.132,-54.532 19.438,-53.692 18.975,-52.136C18.86,-51.752 18.764,-51.332 18.537,-51.014C16.882,-48.708 16.816,-46.068 16.828,-43.386C16.842,-40.001 16.812,-36.614 16.742,-33.229C16.713,-31.794 16.538,-30.359 16.414,-28.738C14.825,-28.417 13.571,-28.147 12.31,-27.919C11.933,-27.853 11.533,-27.909 10.819,-27.909C10.819,-29.09 10.847,-30.197 10.814,-31.303C10.661,-36.46 10.535,-41.616 10.298,-46.768C10.223,-48.44 9.889,-50.108 9.578,-51.759C9.208,-53.715 9.674,-54.861 11.474,-55.676M10.873,-19.809C12.745,-19.986 14.165,-20.118 15.85,-20.277C15.968,-19.25 16.153,-18.331 16.17,-17.409C16.24,-13.636 16.277,-9.863 16.296,-6.089C16.309,-3.521 15.661,-2.876 13.06,-2.813C12.514,-2.802 11.966,-2.92 11.164,-3.006C10.793,-8.562 10.884,-14.051 10.873,-19.809M27.035,-2.686C26.116,-1.754 24.893,-0.893 23.652,-0.543C20.181,0.433 16.647,1.199 13.11,1.91C9.796,2.575 9.784,2.497 9.943,5.879C9.95,6.025 9.848,6.177 9.795,6.327C7.973,6.938 6.691,6.563 5.933,5.197C5.119,3.734 5.301,1.762 6.686,0.843C7.992,-0.025 9.528,-0.616 11.038,-1.091C13.331,-1.813 15.697,-2.298 18.014,-2.951C18.855,-3.188 19.696,-3.527 20.442,-3.978C21.878,-4.847 21.807,-5.831 20.292,-6.624C19.655,-6.957 18.962,-7.181 18.076,-7.544L18.076,-11.32C21.394,-10.73 24.508,-10.181 26.917,-7.844C28.504,-6.304 28.588,-4.26 27.035,-2.686M21.877,11.468C20.519,10.774 19.188,10.018 17.92,9.173C17.545,8.923 17.421,8.3 17.179,7.847C17.656,7.627 18.141,7.208 18.608,7.225C20.213,7.282 22.754,9.448 23.732,11.707C22.902,11.612 22.313,11.69 21.877,11.468M15.72,20.958C15.547,22.196 14.598,22.985 13.4,22.868C12.266,22.756 11.685,22.104 11.68,20.953C11.675,20.231 11.665,19.51 11.66,18.787C11.632,14.453 11.597,10.118 11.583,5.786C11.581,5.078 11.678,4.37 11.75,3.387C13.045,3.292 14.063,3.218 15.297,3.127C15.409,3.95 15.572,4.629 15.583,5.31C15.657,10.126 15.701,14.941 15.752,19.757C15.756,20.158 15.774,20.564 15.72,20.958M-25.287,-2.133C-24.453,-2.211 -23.665,-2.278 -22.878,-2.354C-15.81,-3.042 -9.255,-1.636 -3.377,2.464C0.796,5.374 4.025,9.183 6.595,13.515C8.401,16.556 10.002,19.729 11.511,22.929C12.133,24.246 12.889,24.768 14.279,24.619C16.358,24.397 18.441,24.194 20.529,24.066C22.003,23.976 22.763,23.225 23.38,21.909C28.381,11.258 36.671,4.706 48.215,2.404C49.696,2.108 50.427,1.457 50.985,0.166C54.212,-7.282 55.175,-15.004 53.921,-23.007C49.856,-48.95 22.398,-65.073 -3.01,-54.313C-20.172,-47.043 -30.049,-29.422 -27.596,-10.87C-27.206,-7.926 -26.598,-5.008 -25.287,-2.133" style="fill:rgb(154,0,4);fill-rule:nonzero;"/>
        </g>
        <g transform="matrix(1.33333,0,0,1.33333,496.67,1235.4)">
            <path d="M0,-9.127C-3.136,-18.772 -6.172,-28.451 -10.238,-37.76C-12.566,-43.092 -15.304,-48.196 -19.224,-52.567C-22.638,-56.373 -26.66,-59.24 -31.796,-60.192C-39.151,-61.553 -46.332,-60.403 -53.478,-58.452C-49.487,-57.051 -46.523,-54.444 -44.266,-51.144C-41.999,-47.833 -39.854,-44.396 -38.071,-40.808C-33.539,-31.693 -30.457,-22.023 -27.876,-12.203C-25.361,-2.626 -22.792,6.924 -19.233,16.18C-15.816,25.063 -12.095,33.81 -6.672,41.683C-4.814,44.381 -2.567,46.847 -0.264,49.189C1.907,51.396 4.756,52.274 7.871,52.321C14.821,52.426 18.894,47.954 23.001,43.23C15.44,33.554 10.93,22.621 6.901,11.474C4.439,4.665 2.24,-2.24 0,-9.127" style="fill:rgb(154,0,4);fill-rule:nonzero;"/>
        </g>
        <g transform="matrix(1.33333,0,0,1.33333,552.709,1188.74)">
            <path d="M0,57.624C-4.531,48.615 -8.18,39.241 -11.541,29.748C-14.954,20.112 -18.236,10.429 -21.748,0.83C-24.024,-5.39 -26.923,-11.331 -31.198,-16.484C-35.656,-21.86 -41.146,-25.628 -48.082,-27.008C-53.606,-28.107 -59.144,-27.855 -64.665,-26.937C-65.788,-26.75 -66.895,-26.469 -68.009,-26.231C-65.22,-24.639 -62.814,-22.839 -60.976,-20.489C-58.503,-17.326 -56.044,-14.098 -54.041,-10.633C-48.408,-0.89 -44.591,9.636 -41.399,20.386C-38.261,30.958 -35.224,41.563 -31.132,51.82C-28.112,59.391 -24.724,66.78 -19.966,73.452C-17.377,77.086 -14.389,80.315 -10.621,82.8C-6.176,85.731 -1.818,85.447 2.493,82.621C5.629,80.567 8.031,77.753 10.462,74.704C10.107,74.155 9.909,73.807 9.669,73.492C5.904,68.533 2.791,63.178 0,57.624" style="fill:rgb(154,0,4);fill-rule:nonzero;"/>
        </g>
        <g transform="matrix(1.33333,0,0,1.33333,591.481,1187.89)">
            <path d="M0,56.287C-5.44,46.735 -9.011,36.368 -12.6,26.016C-16.025,16.136 -19.567,6.292 -23.295,-3.478C-25.28,-8.679 -28.064,-13.512 -31.705,-17.79C-35.482,-22.231 -40.114,-25.173 -45.932,-26.253C-53.065,-27.577 -60.027,-26.711 -67.192,-24.956C-65.149,-23.317 -63.243,-21.978 -61.557,-20.402C-57.548,-16.65 -54.889,-11.939 -52.627,-7.018C-47.611,3.89 -43.616,15.208 -39.713,26.54C-36.828,34.916 -33.95,43.278 -30.293,51.351C-26.663,59.36 -22.719,67.214 -17.238,74.142C-15.209,76.708 -12.791,79.011 -10.317,81.166C-7.969,83.21 -5.005,83.864 -1.922,83.427C3.233,82.698 7.208,79.989 10.136,75.747C11.451,73.842 11.287,73.849 10.027,71.932C6.622,66.755 3.061,61.662 0,56.287" style="fill:rgb(154,0,4);fill-rule:nonzero;"/>
        </g>
        <g transform="matrix(1.33333,0,0,1.33333,689.881,1246.46)">
            <path d="M0,-69.875C-4.288,-67.072 -8.945,-65.485 -14.119,-65.654C-16.853,-65.742 -19.587,-65.87 -22.32,-65.99C-28.034,-66.241 -33.753,-66.402 -39.458,-66.778C-46.168,-67.221 -52.829,-67.066 -59.4,-65.579C-68.566,-63.504 -75.987,-58.875 -80.28,-50.245C-84.679,-41.402 -85.828,-31.94 -84.387,-22.25C-83.147,-13.92 -79.876,-6.156 -76.872,1.657C-76.799,1.852 -76.583,1.994 -76.262,2.348C-76.305,1.499 -76.294,0.877 -76.374,0.266C-76.9,-3.758 -76.723,-7.769 -76.247,-11.783C-75.391,-18.98 -72.962,-25.517 -68.356,-31.201C-64.93,-35.427 -60.669,-38.268 -55.325,-39.371C-53.361,-39.778 -51.358,-40.232 -49.37,-40.244C-42.931,-40.287 -36.48,-40.332 -30.057,-39.979C-26.271,-39.77 -22.661,-40.206 -19.102,-41.264C-13.373,-42.969 -8.431,-45.945 -5.296,-51.189C-1.401,-57.704 1.397,-64.734 3.614,-72.223C2.409,-71.441 1.203,-70.661 0,-69.875" style="fill:rgb(154,0,4);fill-rule:nonzero;"/>
        </g>
        <g transform="matrix(1.33333,0,0,1.33333,677.955,1273.85)">
            <path d="M0,-64.956C-1.409,-64.191 -2.826,-63.436 -4.222,-62.645C-11.495,-58.53 -19.225,-57.076 -27.501,-58.469C-32.287,-59.275 -37.108,-59.507 -41.915,-58.602C-52.33,-56.646 -59.71,-50.892 -63.262,-40.825C-66.253,-32.349 -66.429,-23.62 -64.302,-14.903C-62.957,-9.38 -60.323,-4.433 -56.715,0.033C-57.28,-3.856 -57.988,-7.73 -58.375,-11.636C-58.978,-17.728 -57.928,-23.478 -54.379,-28.655C-52.509,-31.382 -49.98,-32.9 -46.77,-33.168C-43.972,-33.4 -41.143,-33.52 -38.341,-33.399C-34.134,-33.216 -29.956,-33.382 -25.844,-34.203C-20.633,-35.243 -15.676,-37.041 -12.216,-41.343C-7.094,-47.716 -2.938,-54.684 -0.174,-62.423C0.112,-63.221 0.271,-64.065 0.509,-64.962C0.155,-64.962 0.061,-64.989 0,-64.956" style="fill:rgb(154,0,4);fill-rule:nonzero;"/>
        </g>
        <g transform="matrix(1.33333,0,0,1.33333,542.583,1324.04)">
            <path d="M0,-0.333C-2.69,-0.355 -4.092,-1.624 -4.053,-4.004C-4.015,-6.341 -2.503,-7.702 0.064,-7.711C2.586,-7.72 4.082,-6.317 4.089,-3.939C4.096,-1.542 2.699,-0.311 0,-0.333M5.683,-9.33C1.48,-10.757 -2.73,-10.659 -6.766,-8.73C-8.86,-7.73 -10.233,-6.015 -10.119,-3.573C-10.005,-1.14 -8.489,0.391 -6.334,1.278C-3.655,2.381 -0.89,2.654 1.937,1.859C2.593,1.676 3.255,1.524 3.975,1.342C4.442,2.882 4.194,4.152 3.7,5.33C2.596,7.961 -1.242,8.839 -2.87,6.669C-3.851,5.363 -4.88,5.312 -6.164,5.324C-7.207,5.333 -8.25,5.326 -9.556,5.326C-9.532,7.881 -7.971,8.873 -6.164,9.423C-2.866,10.424 0.523,10.365 3.872,9.682C7.217,8.999 9.371,6.886 9.803,3.501C10.126,0.967 10.185,-1.656 9.923,-4.193C9.666,-6.663 8.086,-8.513 5.683,-9.33" style="fill:rgb(154,0,4);fill-rule:nonzero;"/>
        </g>
        <g transform="matrix(1.33333,0,0,1.33333,589.409,1327.7)">
            <path d="M0,-4.594C-1.046,-5.136 -2.265,-5.398 -3.439,-5.63C-5.945,-6.128 -8.377,-5.619 -10.747,-4.72C-11.196,-7.458 -11.129,-8.151 -10.191,-10.166L1.44,-10.166C1.485,-10.842 1.543,-11.164 1.516,-11.48C1.491,-11.772 1.373,-12.058 1.3,-12.332L-15.855,-12.332C-16.106,-8.589 -16.344,-5.012 -16.606,-1.117C-14.668,-1.087 -12.988,-0.926 -11.342,-1.102C-10.677,-1.172 -10.101,-1.994 -9.466,-2.449C-7.964,-3.529 -5.77,-3.507 -4.258,-2.412C-2.929,-1.449 -2.411,0.208 -2.913,1.884C-3.527,3.934 -4.873,4.939 -6.961,5.052C-8.96,5.157 -10.292,4.137 -11.062,2.769L-16.653,2.769C-16.302,5.134 -14.741,6.127 -12.924,6.639C-9.031,7.738 -5.112,7.698 -1.296,6.247C-0.412,5.911 0.458,5.386 1.162,4.756C4.193,2.047 3.615,-2.722 0,-4.594" style="fill:rgb(154,0,4);fill-rule:nonzero;"/>
        </g>
        <g transform="matrix(1.33333,0,0,1.33333,495.742,1331.87)">
            <path d="M0,-12.718L0,-9.226C2.286,-10.026 4.361,-10.753 6.783,-11.601C6.783,-8.752 6.74,-6.194 6.796,-3.638C6.852,-1.111 6.534,1.445 7.021,3.943L12.624,3.943L12.624,-15.329C7.847,-16.661 4.052,-14.259 0,-12.718" style="fill:rgb(154,0,4);fill-rule:nonzero;"/>
        </g>
        <g transform="matrix(1.33333,0,0,1.33333,606.679,1331.07)">
            <path d="M0,-12.777L0,-9.538C2.285,-10.321 4.345,-11.026 6.764,-11.854L6.764,3.634L12.612,3.634L12.612,-15.636C8.073,-16.411 4.468,-15.576 0,-12.777" style="fill:rgb(154,0,4);fill-rule:nonzero;"/>
        </g>
        <g transform="matrix(1.33333,0,0,1.33333,543.11,1104.43)">
            <path d="M0,1.648C0.024,1.652 0.048,1.654 0.071,1.654C0.297,1.654 0.482,1.479 0.711,1.263C0.815,1.164 0.934,1.052 1.074,0.938L1.421,0.659L1.019,0.465C0.87,0.394 0.745,0.325 0.634,0.265C0.38,0.125 0.178,0.016 -0.054,0.009C-0.356,-0.006 -0.565,0.299 -0.63,0.392C-0.756,0.563 -0.793,0.711 -0.744,0.841C-0.644,1.112 -0.375,1.587 0,1.648" style="fill:rgb(154,0,4);fill-rule:nonzero;"/>
        </g>
        <g transform="matrix(1.33333,0,0,1.33333,364.029,1212.11)">
            <path d="M0,11.108C0.502,11.248 1.051,11.319 1.639,11.319C1.883,11.319 2.135,11.307 2.393,11.282C3.338,11.19 4.138,11.001 4.768,10.718C5.414,10.43 5.952,10.04 6.367,9.559C6.782,9.084 7.11,8.503 7.342,7.835C7.567,7.185 7.761,6.439 7.918,5.622C8.063,4.921 8.218,4.34 8.378,3.895C8.531,3.471 8.713,3.132 8.919,2.888C9.115,2.655 9.343,2.486 9.597,2.385C9.865,2.277 10.188,2.206 10.559,2.17C11.343,2.094 11.978,2.248 12.445,2.624C12.911,3 13.191,3.64 13.275,4.529C13.369,5.495 13.163,6.25 12.663,6.779C12.141,7.33 11.48,7.669 10.639,7.815L10.382,7.859L10.605,10.19L10.905,10.137C12.55,9.851 13.844,9.201 14.753,8.205C15.675,7.193 16.065,5.866 15.911,4.256C15.843,3.55 15.666,2.906 15.383,2.341C15.098,1.768 14.71,1.275 14.226,0.879C13.743,0.483 13.161,0.194 12.491,0.017C11.829,-0.16 11.085,-0.211 10.283,-0.133C9.464,-0.053 8.755,0.116 8.173,0.374C7.582,0.636 7.078,1 6.677,1.461C6.28,1.911 5.952,2.467 5.702,3.115C5.455,3.746 5.256,4.486 5.116,5.311C4.974,6.051 4.814,6.666 4.64,7.137C4.472,7.588 4.267,7.948 4.032,8.208C3.799,8.461 3.534,8.646 3.243,8.758C2.934,8.879 2.575,8.958 2.174,8.996C1.314,9.076 0.589,8.893 0.015,8.45C-0.555,8.01 -0.892,7.268 -0.992,6.245C-1.087,5.231 -0.846,4.412 -0.257,3.736C0.33,3.061 1.189,2.646 2.298,2.501L2.566,2.466L2.342,0.098L2.053,0.135C1.196,0.247 0.396,0.483 -0.326,0.838C-1.055,1.194 -1.685,1.652 -2.199,2.198C-2.719,2.744 -3.111,3.392 -3.366,4.123C-3.622,4.851 -3.71,5.65 -3.629,6.495C-3.557,7.248 -3.37,7.947 -3.073,8.571C-2.77,9.204 -2.359,9.738 -1.85,10.161C-1.34,10.588 -0.718,10.905 0,11.108" style="fill:rgb(154,0,4);fill-rule:nonzero;"/>
        </g>
        <g transform="matrix(1.33333,0,0,1.33333,388.137,1235.75)">
            <path d="M0,2.845L-7.523,4.32L-8.795,-2.175L-1.271,-3.65L-1.73,-5.985L-20.363,-2.333L-19.904,0.003L-11.475,-1.65L-10.203,4.845L-18.634,6.495L-18.174,8.83L0.458,5.178L0,2.845Z" style="fill:rgb(154,0,4);fill-rule:nonzero;"/>
        </g>
        <g transform="matrix(1.33333,0,0,1.33333,385.132,1264.15)">
            <path d="M0,-7.167L-5.551,-3.729L-6.666,-7.41L-0.141,-7.594C0.097,-7.593 0.357,-7.604 0.633,-7.636C0.715,-7.645 0.798,-7.654 0.877,-7.661L0,-7.167ZM4.494,-9.911L-15.213,-9.475L-14.515,-7.177L-9.438,-7.335L-7.91,-2.277L-12.22,0.408L-11.512,2.744L5.157,-7.721L4.494,-9.911Z" style="fill:rgb(154,0,4);fill-rule:nonzero;"/>
        </g>
        <g transform="matrix(1.33333,0,0,1.33333,399.173,1274.37)">
            <path d="M0,-1.054L-12.69,4.213L-2.49,-7.05L-3.433,-9.324L-20.97,-2.046L-20.121,0L-7.13,-5.393L-17.569,6.149L-16.688,8.27L0.848,0.99L0,-1.054Z" style="fill:rgb(154,0,4);fill-rule:nonzero;"/>
        </g>
        <g transform="matrix(1.33333,0,0,1.33333,389.74,1282.18)">
            <path d="M0,11.677C-0.659,11.587 -1.24,11.362 -1.728,11.008C-2.216,10.655 -2.621,10.184 -2.934,9.608L-4.148,7.369L7.84,0.872L9.052,3.108C9.365,3.688 9.548,4.284 9.593,4.881C9.638,5.465 9.52,6.062 9.239,6.657C8.957,7.26 8.489,7.876 7.844,8.489C7.194,9.106 6.315,9.717 5.23,10.305C4.161,10.885 3.179,11.287 2.307,11.502C1.449,11.712 0.671,11.775 0,11.677M6.393,12.451C7.661,11.765 8.743,10.992 9.61,10.155C10.482,9.315 11.14,8.427 11.567,7.519C11.999,6.603 12.209,5.649 12.192,4.687C12.174,3.722 11.909,2.763 11.404,1.834L9.058,-2.494L-7.634,6.552L-5.287,10.883C-4.782,11.813 -4.122,12.559 -3.326,13.1C-2.526,13.64 -1.603,13.98 -0.586,14.108C-0.26,14.15 0.076,14.171 0.42,14.171C1.147,14.171 1.914,14.079 2.714,13.895C3.889,13.624 5.127,13.139 6.393,12.451" style="fill:rgb(154,0,4);fill-rule:nonzero;"/>
        </g>
        <g transform="matrix(1.33333,0,0,1.33333,401.631,1301.2)">
            <path d="M0,11.408C-0.746,11.404 -1.409,11.28 -2.001,11.007C-2.583,10.737 -3.064,10.329 -3.43,9.798L-3.432,9.797C-3.799,9.265 -4.009,8.672 -4.056,8.033C-4.101,7.384 -3.988,6.707 -3.721,6.019C-3.451,5.322 -3.011,4.613 -2.415,3.911C-1.818,3.207 -1.052,2.53 -0.14,1.9C0.774,1.268 1.678,0.793 2.547,0.484C3.414,0.176 4.228,0.018 4.969,0.017L4.993,0.017C5.716,0.017 6.378,0.155 6.961,0.425C7.54,0.695 8.021,1.101 8.389,1.635C8.766,2.177 8.986,2.779 9.044,3.421C9.101,4.071 8.996,4.741 8.732,5.416C8.464,6.103 8.025,6.803 7.426,7.498C6.825,8.199 6.049,8.877 5.121,9.518C4.214,10.145 3.31,10.622 2.435,10.933C1.569,11.241 0.75,11.4 0,11.408M6.508,11.527C7.7,10.702 8.7,9.793 9.481,8.82C10.263,7.842 10.838,6.838 11.19,5.833C11.546,4.819 11.676,3.809 11.574,2.835C11.472,1.858 11.134,0.947 10.57,0.128C10.011,-0.681 9.273,-1.31 8.381,-1.739C7.493,-2.166 6.498,-2.397 5.424,-2.423C4.355,-2.45 3.218,-2.274 2.031,-1.899C0.846,-1.524 -0.351,-0.921 -1.525,-0.109C-2.706,0.705 -3.697,1.614 -4.47,2.591C-5.251,3.575 -5.824,4.582 -6.173,5.585C-6.528,6.601 -6.666,7.613 -6.582,8.595C-6.495,9.584 -6.168,10.496 -5.61,11.302C-5.055,12.108 -4.318,12.736 -3.421,13.171C-2.536,13.597 -1.541,13.828 -0.464,13.856C-0.397,13.857 -0.328,13.858 -0.259,13.858C0.753,13.858 1.828,13.678 2.941,13.322C4.132,12.944 5.331,12.34 6.508,11.527" style="fill:rgb(154,0,4);fill-rule:nonzero;"/>
        </g>
        <g transform="matrix(1.33333,0,0,1.33333,430.029,1329.98)">
            <path d="M0,-7.304L-10.398,1.675L-4.242,-12.219L-5.85,-14.083L-20.224,-1.677L-18.779,0.001L-8.13,-9.192L-14.355,4.877L-14.427,5.041L-12.926,6.779L1.447,-5.628L0,-7.304Z" style="fill:rgb(154,0,4);fill-rule:nonzero;"/>
        </g>
        <g transform="matrix(1.33333,0,0,1.33333,442.329,1350.84)">
            <path d="M0,-13.749C-0.32,-14.382 -0.743,-14.949 -1.258,-15.432C-1.965,-16.092 -2.81,-16.54 -3.767,-16.761C-4.716,-16.98 -5.732,-16.989 -6.784,-16.787C-7.835,-16.587 -8.912,-16.168 -9.983,-15.545C-11.055,-14.923 -12.094,-14.078 -13.069,-13.033C-14.044,-11.99 -14.821,-10.895 -15.377,-9.778C-15.936,-8.654 -16.286,-7.552 -16.419,-6.501C-16.555,-5.437 -16.479,-4.426 -16.196,-3.493C-15.911,-2.552 -15.4,-1.733 -14.684,-1.061L-14.683,-1.061C-14.217,-0.627 -13.723,-0.298 -13.215,-0.083C-12.71,0.128 -12.185,0.256 -11.655,0.289C-11.132,0.326 -10.611,0.287 -10.106,0.177C-9.977,0.151 -9.846,0.119 -9.717,0.084L-11.24,1.713L-9.607,3.24L-2.765,-4.078L-7.259,-8.282L-9.124,-6.286L-6.287,-3.634C-6.747,-3.211 -7.241,-2.862 -7.758,-2.593C-8.354,-2.279 -8.959,-2.082 -9.56,-2.002C-10.157,-1.923 -10.75,-1.96 -11.322,-2.114C-11.885,-2.264 -12.407,-2.561 -12.873,-2.998C-13.348,-3.442 -13.678,-3.975 -13.853,-4.583C-14.035,-5.204 -14.062,-5.883 -13.937,-6.602C-13.813,-7.332 -13.527,-8.113 -13.089,-8.921C-12.652,-9.734 -12.045,-10.555 -11.287,-11.366C-10.53,-12.175 -9.75,-12.835 -8.969,-13.33C-8.191,-13.82 -7.435,-14.152 -6.721,-14.321C-6.017,-14.489 -5.342,-14.505 -4.714,-14.367C-4.094,-14.232 -3.541,-13.939 -3.069,-13.496C-2.749,-13.198 -2.483,-12.855 -2.277,-12.478C-2.071,-12.103 -1.939,-11.691 -1.883,-11.251C-1.826,-10.81 -1.854,-10.333 -1.967,-9.835C-2.078,-9.338 -2.302,-8.799 -2.632,-8.233L-2.745,-8.039L-1.007,-6.41L-0.825,-6.7C-0.274,-7.577 0.117,-8.443 0.336,-9.266C0.555,-10.096 0.637,-10.897 0.576,-11.649C0.516,-12.402 0.323,-13.109 0,-13.749" style="fill:rgb(154,0,4);fill-rule:nonzero;"/>
        </g>
        <g transform="matrix(1.33333,0,0,1.33333,457.78,1354.01)">
            <path d="M0,4.973C-0.099,4.35 -0.331,3.727 -0.692,3.119C-1.05,2.517 -1.495,1.888 -2.011,1.251C-2.454,0.688 -2.798,0.195 -3.036,-0.214C-3.26,-0.601 -3.401,-0.959 -3.456,-1.276C-3.508,-1.58 -3.491,-1.857 -3.403,-2.118C-3.313,-2.393 -3.16,-2.687 -2.949,-2.991C-2.5,-3.641 -1.974,-4.027 -1.383,-4.142C-0.795,-4.254 -0.127,-4.058 0.607,-3.551C1.415,-2.991 1.849,-2.363 1.932,-1.63C2.016,-0.884 1.843,-0.139 1.42,0.584L1.288,0.809L3.211,2.141L3.364,1.878C4.206,0.439 4.544,-0.97 4.37,-2.31C4.192,-3.666 3.427,-4.819 2.099,-5.741C1.519,-6.141 0.91,-6.42 0.293,-6.571C-0.326,-6.723 -0.955,-6.741 -1.569,-6.629C-2.183,-6.514 -2.781,-6.256 -3.348,-5.858C-3.907,-5.466 -4.425,-4.931 -4.885,-4.266C-5.353,-3.589 -5.68,-2.936 -5.858,-2.326C-6.038,-1.707 -6.085,-1.086 -5.993,-0.482C-5.902,0.114 -5.688,0.725 -5.358,1.331C-5.033,1.927 -4.594,2.555 -4.055,3.195C-3.585,3.773 -3.218,4.291 -2.966,4.734C-2.728,5.154 -2.585,5.543 -2.54,5.889C-2.496,6.229 -2.526,6.552 -2.625,6.845C-2.734,7.159 -2.907,7.486 -3.135,7.818C-3.631,8.535 -4.223,8.959 -4.944,9.115C-5.649,9.268 -6.433,9.048 -7.28,8.464C-8.114,7.885 -8.587,7.173 -8.722,6.285C-8.859,5.402 -8.623,4.477 -8.02,3.537L-7.872,3.307L-9.828,1.954L-9.986,2.198C-10.452,2.921 -10.788,3.684 -10.983,4.468C-11.179,5.255 -11.236,6.032 -11.152,6.78C-11.066,7.533 -10.823,8.251 -10.431,8.912C-10.035,9.577 -9.482,10.16 -8.786,10.641C-8.165,11.071 -7.511,11.38 -6.843,11.555C-6.437,11.661 -6.03,11.714 -5.627,11.714C-5.361,11.714 -5.098,11.692 -4.836,11.645C-4.18,11.528 -3.536,11.258 -2.922,10.841C-2.31,10.423 -1.746,9.845 -1.248,9.126C-0.71,8.348 -0.339,7.615 -0.145,6.943C0.05,6.267 0.098,5.606 0,4.973" style="fill:rgb(154,0,4);fill-rule:nonzero;"/>
        </g>
        <g transform="matrix(1.33333,0,0,1.33333,469.701,1376.19)">
            <path d="M0,-14.355L6.464,-10.695L7.796,-13.048L-0.738,-17.88L-10.093,-1.358L-1.47,3.525L-0.139,1.171L-6.691,-2.54L-3.778,-7.683L1.716,-4.571L3.048,-6.926L-2.446,-10.036L0,-14.355Z" style="fill:rgb(154,0,4);fill-rule:nonzero;"/>
        </g>
        <g transform="matrix(1.33333,0,0,1.33333,491.264,1376.55)">
            <path d="M0,-2.621L2.132,-1.673L2.208,-2.008C2.627,-3.885 2.589,-5.572 2.096,-7.025C1.592,-8.506 0.55,-9.607 -1.001,-10.296C-1.884,-10.689 -2.826,-10.835 -3.806,-10.733C-4.775,-10.629 -5.738,-10.305 -6.668,-9.771C-7.592,-9.236 -8.474,-8.491 -9.29,-7.556C-10.106,-6.618 -10.814,-5.48 -11.395,-4.176C-11.975,-2.873 -12.349,-1.581 -12.503,-0.337C-12.656,0.906 -12.618,2.067 -12.387,3.113C-12.157,4.164 -11.747,5.099 -11.169,5.891C-10.583,6.691 -9.838,7.295 -8.957,7.686C-8.168,8.039 -7.378,8.214 -6.598,8.214C-5.884,8.214 -5.176,8.067 -4.479,7.774C-3.049,7.168 -1.731,6.039 -0.562,4.417L-0.359,4.135L-2.559,3.157L-2.694,3.339C-3.415,4.315 -4.253,4.989 -5.184,5.339C-6.103,5.686 -6.987,5.664 -7.881,5.266C-8.46,5.007 -8.942,4.613 -9.312,4.092C-9.69,3.564 -9.947,2.927 -10.076,2.198C-10.209,1.463 -10.203,0.629 -10.062,-0.28C-9.918,-1.191 -9.617,-2.17 -9.166,-3.183C-8.712,-4.198 -8.188,-5.076 -7.608,-5.791C-7.03,-6.504 -6.418,-7.064 -5.793,-7.455C-5.172,-7.84 -4.535,-8.075 -3.898,-8.151C-3.266,-8.225 -2.655,-8.133 -2.078,-7.875C-1.076,-7.433 -0.444,-6.794 -0.143,-5.927C0.161,-5.042 0.22,-4.002 0.034,-2.834L0,-2.621Z" style="fill:rgb(154,0,4);fill-rule:nonzero;"/>
        </g>
        <g transform="matrix(1.33333,0,0,1.33333,509.274,1379.94)">
            <path d="M0,2.87C-0.335,3.924 -0.76,4.855 -1.262,5.635C-1.755,6.404 -2.305,7.029 -2.896,7.497C-3.479,7.955 -4.096,8.259 -4.725,8.404C-5.353,8.546 -5.982,8.516 -6.595,8.32C-7.213,8.123 -7.743,7.781 -8.169,7.304C-8.603,6.82 -8.929,6.215 -9.136,5.506C-9.348,4.787 -9.435,3.958 -9.392,3.04C-9.349,2.116 -9.157,1.113 -8.82,0.058C-8.485,-0.997 -8.061,-1.926 -7.559,-2.705C-7.063,-3.477 -6.515,-4.1 -5.929,-4.555C-5.35,-5.005 -4.735,-5.305 -4.104,-5.45C-3.477,-5.593 -2.847,-5.561 -2.231,-5.367C-1.6,-5.166 -1.059,-4.825 -0.623,-4.351C-0.183,-3.878 0.144,-3.283 0.349,-2.583C0.557,-1.876 0.638,-1.053 0.591,-0.138C0.542,0.779 0.343,1.792 0,2.87M1.021,-6.363C0.341,-7.076 -0.484,-7.59 -1.428,-7.891C-2.362,-8.189 -3.329,-8.237 -4.302,-8.029C-5.268,-7.823 -6.194,-7.399 -7.061,-6.765C-7.922,-6.133 -8.718,-5.294 -9.424,-4.275C-10.132,-3.256 -10.709,-2.047 -11.144,-0.685C-11.579,0.68 -11.809,2.004 -11.825,3.253C-11.841,4.507 -11.677,5.656 -11.341,6.664C-11.006,7.68 -10.496,8.566 -9.824,9.294C-9.151,10.025 -8.336,10.545 -7.401,10.844C-6.847,11.02 -6.284,11.107 -5.713,11.107C-5.321,11.107 -4.924,11.066 -4.526,10.981C-3.561,10.777 -2.632,10.353 -1.768,9.718C-0.907,9.088 -0.11,8.246 0.601,7.214C1.31,6.186 1.89,4.974 2.325,3.612C2.766,2.231 3.001,0.898 3.023,-0.346C3.045,-1.6 2.885,-2.747 2.55,-3.757C2.211,-4.776 1.697,-5.654 1.021,-6.363" style="fill:rgb(154,0,4);fill-rule:nonzero;"/>
        </g>
        <g transform="matrix(1.33333,0,0,1.33333,526.608,1380.67)">
            <path d="M0,9.654L-3.638,-5.099L-6.053,-5.586L-9.819,13.022L-7.649,13.462L-4.859,-0.323L-1.122,14.785L1.128,15.24L4.895,-3.371L2.725,-3.809L0,9.654Z" style="fill:rgb(154,0,4);fill-rule:nonzero;"/>
        </g>
        <g transform="matrix(1.33333,0,0,1.33333,547.007,1384.64)">
            <path d="M0,7.477C-0.307,8.305 -0.693,8.981 -1.149,9.485C-1.595,9.978 -2.108,10.334 -2.672,10.538C-3.238,10.742 -3.856,10.814 -4.51,10.749L-7.043,10.495L-5.688,-3.071L-3.156,-2.818C-2.502,-2.752 -1.908,-2.568 -1.386,-2.272C-0.877,-1.979 -0.45,-1.546 -0.113,-0.982C0.226,-0.407 0.473,0.328 0.618,1.201C0.763,2.094 0.776,3.165 0.654,4.386C0.532,5.599 0.311,6.639 0,7.477M1.906,-2.423C1.388,-3.297 0.718,-4.006 -0.086,-4.53C-0.892,-5.056 -1.836,-5.376 -2.89,-5.482L-7.789,-5.971L-9.677,12.922L-4.775,13.413C-4.538,13.437 -4.303,13.448 -4.072,13.448C-3.282,13.448 -2.534,13.309 -1.84,13.033C-0.945,12.677 -0.148,12.105 0.534,11.334C1.208,10.57 1.771,9.611 2.209,8.485C2.644,7.365 2.938,6.068 3.083,4.628C3.226,3.187 3.194,1.856 2.989,0.677C2.782,-0.512 2.419,-1.555 1.906,-2.423" style="fill:rgb(154,0,4);fill-rule:nonzero;"/>
        </g>
        <g transform="matrix(1.33333,0,0,1.33333,577.113,1403.52)">
            <path d="M0,-19.405L-2.776,-5.4C-2.818,-5.178 -2.858,-4.943 -2.891,-4.702L-2.891,-4.701C-2.957,-4.939 -3.025,-5.167 -3.096,-5.385L-7.538,-18.954L-10.632,-18.771L-9.501,0.184L-7.247,0.05L-8.033,-13.113L-3.771,-0.16L-1.565,-0.291L1.126,-13.664L1.91,-0.498L4.204,-0.635L3.073,-19.589L0,-19.405Z" style="fill:rgb(154,0,4);fill-rule:nonzero;"/>
        </g>
        <g transform="matrix(1.33333,0,0,1.33333,591.403,1378.77)">
            <path d="M0,14.227L-0.976,8.397L5.251,7.354L4.804,4.687L-1.423,5.73L-2.242,0.833L5.083,-0.394L4.638,-3.06L-5.037,-1.439L-1.899,17.287L7.875,15.651L7.428,12.983L0,14.227Z" style="fill:rgb(154,0,4);fill-rule:nonzero;"/>
        </g>
        <g transform="matrix(1.33333,0,0,1.33333,615.801,1380.33)">
            <path d="M0,7.448C-0.247,8.07 -0.602,8.584 -1.054,8.973C-1.513,9.369 -2.064,9.654 -2.696,9.822L-5.155,10.483L-8.697,-2.682L-6.24,-3.343C-5.601,-3.513 -4.978,-3.555 -4.392,-3.459C-3.81,-3.366 -3.255,-3.111 -2.744,-2.704C-2.223,-2.29 -1.732,-1.691 -1.285,-0.923C-0.835,-0.146 -0.445,0.852 -0.125,2.043C0.192,3.217 0.355,4.266 0.361,5.162C0.368,6.046 0.245,6.814 0,7.448M0.745,-2.254C0.131,-3.294 -0.579,-4.14 -1.366,-4.768C-2.158,-5.402 -3.037,-5.827 -3.975,-6.033C-4.921,-6.239 -5.914,-6.203 -6.933,-5.928L-11.69,-4.65L-6.756,13.687L-2,12.406C-0.978,12.131 -0.1,11.663 0.609,11.012C1.32,10.361 1.865,9.542 2.227,8.58C2.588,7.625 2.774,6.529 2.783,5.322C2.793,4.122 2.608,2.806 2.233,1.409C1.858,0.013 1.357,-1.22 0.745,-2.254" style="fill:rgb(154,0,4);fill-rule:nonzero;"/>
        </g>
        <g transform="matrix(0.439501,1.25882,1.25882,-0.439501,632.69,1371.26)">
            <rect x="-5.242" y="-9.761" width="18.987" height="2.378" style="fill:rgb(154,0,4);"/>
        </g>
        <g transform="matrix(1.33333,0,0,1.33333,646.906,1374.31)">
            <path d="M0,0.792L-2.209,1.752L-2.166,1.974C-1.933,3.168 -2.003,4.241 -2.372,5.161C-2.741,6.075 -3.355,6.711 -4.251,7.1C-4.834,7.352 -5.451,7.44 -6.083,7.362C-6.728,7.284 -7.371,7.043 -7.996,6.647C-8.63,6.244 -9.24,5.676 -9.811,4.956C-10.389,4.234 -10.906,3.35 -11.346,2.335C-11.788,1.317 -12.082,0.339 -12.216,-0.574C-12.35,-1.482 -12.35,-2.31 -12.216,-3.037C-12.082,-3.754 -11.824,-4.382 -11.447,-4.905C-11.077,-5.419 -10.595,-5.806 -10.014,-6.06C-9.008,-6.498 -8.11,-6.533 -7.271,-6.168C-6.412,-5.794 -5.605,-5.135 -4.872,-4.209L-4.738,-4.04L-2.597,-4.969L-2.792,-5.251C-3.893,-6.831 -5.163,-7.942 -6.567,-8.56C-7.994,-9.188 -9.509,-9.168 -11.069,-8.491C-11.955,-8.104 -12.7,-7.508 -13.289,-6.717C-13.867,-5.933 -14.278,-5.005 -14.512,-3.959C-14.745,-2.918 -14.792,-1.764 -14.652,-0.527C-14.514,0.706 -14.155,1.996 -13.585,3.309C-13.014,4.623 -12.313,5.77 -11.504,6.719C-10.691,7.673 -9.809,8.429 -8.883,8.966C-7.95,9.508 -6.984,9.837 -6.013,9.944C-5.796,9.969 -5.581,9.98 -5.368,9.98C-4.614,9.98 -3.886,9.829 -3.196,9.529C-1.679,8.87 -0.638,7.779 -0.105,6.287C0.418,4.825 0.477,3.09 0.07,1.131L0,0.792Z" style="fill:rgb(154,0,4);fill-rule:nonzero;"/>
        </g>
        <g transform="matrix(1.33333,0,0,1.33333,651.142,1375.55)">
            <path d="M0,-10.441L4.546,-5.75L1.188,-3.874L-0.385,-10.21C-0.432,-10.437 -0.499,-10.682 -0.592,-10.957C-0.619,-11.037 -0.644,-11.115 -0.669,-11.19L0,-10.441ZM-1.645,-15.357L-3.641,-14.243L0.998,4.916L3.094,3.745L1.856,-1.182L6.47,-3.758L10.014,-0.121L12.145,-1.312L-1.494,-15.204L-1.645,-15.357Z" style="fill:rgb(154,0,4);fill-rule:nonzero;"/>
        </g>
        <g transform="matrix(1.33333,0,0,1.33333,671.147,1353.69)">
            <path d="M0,9.896L-9.148,-3.575L-11.116,-2.238L-0.45,13.471L7.116,8.331L5.598,6.094L0,9.896Z" style="fill:rgb(154,0,4);fill-rule:nonzero;"/>
        </g>
        <g transform="matrix(1.33333,0,0,1.33333,696.11,1341.84)">
            <path d="M0,-1.865L-7.743,-10.46L-7.931,-10.669L-9.7,-9.076L-1.766,-0.273C-0.699,0.914 -0.095,2.015 0.027,2.999C0.145,3.961 -0.182,4.776 -0.974,5.491C-1.758,6.196 -2.605,6.437 -3.558,6.225C-4.536,6.01 -5.572,5.3 -6.638,4.115L-14.38,-4.48L-14.569,-4.689L-16.338,-3.096L-8.406,5.707C-7.631,6.567 -6.824,7.257 -6.003,7.756C-5.174,8.259 -4.35,8.582 -3.556,8.719C-3.236,8.776 -2.919,8.804 -2.607,8.804C-2.136,8.804 -1.674,8.739 -1.229,8.61C-0.495,8.398 0.188,8.01 0.8,7.459C1.401,6.916 1.855,6.28 2.147,5.568C2.444,4.854 2.562,4.079 2.499,3.263C2.439,2.459 2.198,1.609 1.786,0.736C1.376,-0.13 0.775,-1.004 0,-1.865" style="fill:rgb(154,0,4);fill-rule:nonzero;"/>
        </g>
        <g transform="matrix(1.33333,0,0,1.33333,695.801,1340.16)">
            <path d="M0,-17.739L10.186,-8.52L-4.357,-12.925L-6.009,-11.099L8.069,1.641L9.555,0L-0.873,-9.439L14.023,-4.937L15.562,-6.64L1.486,-19.38L0,-17.739Z" style="fill:rgb(154,0,4);fill-rule:nonzero;"/>
        </g>
        <g transform="matrix(1.05098,0.820502,0.820502,-1.05098,706.472,1305.84)">
            <rect x="-1.279" y="-6.094" width="18.988" height="2.379" style="fill:rgb(154,0,4);"/>
        </g>
        <g transform="matrix(1.33333,0,0,1.33333,710.931,1313.17)">
            <path d="M0,-12.754L9.348,-2.08C9.485,-1.92 9.652,-1.743 9.848,-1.548C9.918,-1.48 9.987,-1.412 10.055,-1.342C9.961,-1.38 9.864,-1.42 9.767,-1.461C9.509,-1.568 9.294,-1.656 9.11,-1.727L-4.275,-6.453L-5.67,-4.399L12.921,2.02L14.204,0.126L1.37,-14.774L0,-12.754Z" style="fill:rgb(154,0,4);fill-rule:nonzero;"/>
        </g>
        <g transform="matrix(1.33333,0,0,1.33333,734.043,1285.13)">
            <path d="M0,10.991L-5.173,8.131L-2.116,2.606L-4.483,1.296L-7.538,6.821L-11.883,4.417L-8.287,-2.081L-10.654,-3.391L-15.401,5.191L1.214,14.382L6.011,5.711L3.645,4.401L0,10.991Z" style="fill:rgb(154,0,4);fill-rule:nonzero;"/>
        </g>
        <g transform="matrix(1.33333,0,0,1.33333,734.962,1280.21)">
            <path d="M0,-3.859L-1.592,-0.202L-7.037,-2.573L-5.512,-6.078C-5.204,-6.789 -4.764,-7.231 -4.17,-7.427C-3.572,-7.622 -2.776,-7.508 -1.803,-7.083C-0.94,-6.708 -0.34,-6.233 -0.02,-5.669C0.289,-5.13 0.295,-4.536 0,-3.859M9.992,-4.559C9.526,-4.659 8.969,-4.82 8.333,-5.038L6.197,-5.766C5.195,-6.112 4.317,-6.288 3.684,-6.272C3.145,-6.264 2.647,-6.113 2.201,-5.819C2.044,-6.55 1.736,-7.181 1.282,-7.697C0.743,-8.31 0.015,-8.818 -0.881,-9.209C-1.627,-9.535 -2.368,-9.742 -3.079,-9.825C-3.794,-9.911 -4.472,-9.867 -5.101,-9.696C-5.731,-9.522 -6.301,-9.225 -6.796,-8.811C-7.291,-8.396 -7.693,-7.839 -7.991,-7.158L-10.441,-1.526L6.966,6.052L7.893,3.928L0.912,0.888L2.521,-2.808C2.796,-3.439 3.158,-3.811 3.602,-3.913C4.085,-4.024 4.768,-3.926 5.632,-3.622L7.701,-2.878C8.351,-2.642 8.875,-2.481 9.304,-2.389C9.74,-2.294 10.09,-2.242 10.374,-2.229L10.568,-2.221L11.481,-4.316L11.105,-4.36C10.821,-4.393 10.447,-4.461 9.992,-4.559" style="fill:rgb(154,0,4);fill-rule:nonzero;"/>
        </g>
        <g transform="matrix(1.33333,0,0,1.33333,752.319,1263.97)">
            <path d="M0,-5.696C-0.576,-6.164 -1.29,-6.539 -2.123,-6.809C-3.024,-7.105 -3.865,-7.259 -4.527,-7.243C-5.232,-7.236 -5.882,-7.093 -6.457,-6.819C-7.027,-6.548 -7.559,-6.145 -8.038,-5.626C-8.504,-5.118 -8.98,-4.511 -9.451,-3.827C-9.865,-3.24 -10.238,-2.768 -10.563,-2.427C-10.872,-2.098 -11.173,-1.86 -11.456,-1.72C-11.73,-1.585 -12.013,-1.517 -12.281,-1.53C-12.57,-1.539 -12.895,-1.601 -13.248,-1.716C-13.996,-1.96 -14.517,-2.354 -14.797,-2.886C-15.074,-3.417 -15.075,-4.115 -14.8,-4.965C-14.5,-5.884 -14.007,-6.497 -13.337,-6.782C-12.65,-7.075 -11.886,-7.126 -11.069,-6.925L-10.816,-6.863L-10.091,-9.087L-10.387,-9.159C-12.005,-9.553 -13.452,-9.473 -14.686,-8.924C-15.934,-8.365 -16.823,-7.302 -17.323,-5.766C-17.543,-5.098 -17.637,-4.435 -17.603,-3.799C-17.572,-3.162 -17.411,-2.555 -17.126,-1.996C-16.84,-1.442 -16.421,-0.942 -15.88,-0.513C-15.343,-0.088 -14.682,0.254 -13.916,0.503C-13.145,0.755 -12.436,0.882 -11.804,0.882L-11.779,0.882C-11.132,0.879 -10.524,0.745 -9.973,0.484C-9.43,0.229 -8.907,-0.151 -8.418,-0.643C-7.945,-1.116 -7.468,-1.717 -7.003,-2.424C-6.578,-3.046 -6.186,-3.546 -5.838,-3.908C-5.505,-4.255 -5.172,-4.503 -4.855,-4.646C-4.537,-4.787 -4.223,-4.853 -3.912,-4.837C-3.582,-4.824 -3.221,-4.753 -2.836,-4.627C-2.007,-4.358 -1.431,-3.911 -1.075,-3.265C-0.729,-2.634 -0.715,-1.819 -1.034,-0.84C-1.348,0.125 -1.895,0.781 -2.707,1.166C-3.513,1.55 -4.467,1.588 -5.542,1.276L-5.802,1.202L-6.542,3.462L-6.263,3.543C-5.544,3.752 -4.824,3.857 -4.117,3.857C-4.012,3.857 -3.906,3.856 -3.801,3.852C-2.991,3.815 -2.23,3.647 -1.538,3.352C-0.843,3.054 -0.224,2.616 0.299,2.051C0.824,1.482 1.223,0.786 1.486,-0.018C1.721,-0.738 1.829,-1.452 1.805,-2.144C1.781,-2.839 1.617,-3.494 1.317,-4.091C1.019,-4.687 0.575,-5.227 0,-5.696" style="fill:rgb(154,0,4);fill-rule:nonzero;"/>
        </g>
        <g transform="matrix(1.29223,0.3285,0.3285,-1.29223,733.402,1243.39)">
            <rect x="0" y="-2.376" width="18.986" height="2.379" style="fill:rgb(154,0,4);"/>
        </g>
        <g transform="matrix(1.33333,0,0,1.33333,740.294,1241.16)">
            <path d="M0,-10.152L-2.657,-10.652L-4.663,-0.002L-2.007,0.5L-1.223,-3.657L14.778,-0.645L15.219,-2.982L-0.783,-5.995L0,-10.152Z" style="fill:rgb(154,0,4);fill-rule:nonzero;"/>
        </g>
        <g transform="matrix(1.33333,0,0,1.33333,738.427,1226.52)">
            <path d="M0,-11.917L-0.245,-9.459L7.521,-5.158L-0.764,-2.554L-0.942,-2.5L-1.19,0L10.353,-3.658L18.178,-2.876L18.415,-5.245L10.59,-6.025L0,-11.917Z" style="fill:rgb(154,0,4);fill-rule:nonzero;"/>
        </g>
        <g transform="matrix(1.33333,0,0,1.33333,478.777,1055.93)">
            <path d="M0,-9.119L-0.08,-9.039C-0.76,-8.351 -0.76,-8.351 -1.752,-7.533L-2.178,-7.18C-2.538,-6.884 -3.204,-6.331 -3.595,-6.361C-3.79,-6.376 -3.97,-6.632 -4.16,-7.164C-4.303,-7.565 -4.105,-8.099 -3.978,-8.227C-3.203,-9.014 -3.004,-9.186 -2.345,-9.754L-1.712,-10.304C-1.508,-10.484 -1.247,-10.715 -1.059,-10.873C-0.91,-10.997 -0.776,-11.092 -0.653,-11.163C-0.205,-11.42 0.096,-11.353 0.384,-11.163C0.59,-11.029 0.696,-10.871 0.716,-10.665C0.771,-10.154 0.329,-9.453 0,-9.119M-16.122,-10.966C-17.004,-10.746 -17.568,-10.718 -17.799,-10.881C-17.836,-10.908 -17.95,-10.988 -17.981,-11.333C-18.027,-11.845 -17.708,-12.308 -17.394,-12.571C-17.346,-12.611 -17.283,-12.652 -17.211,-12.693C-16.883,-12.882 -16.358,-13.072 -16.08,-13.173C-15.95,-13.22 -15.849,-13.257 -15.795,-13.281C-15.273,-13.511 -14.864,-13.432 -14.702,-13.07C-14.694,-13.055 -14.686,-13.039 -14.678,-13.025C-14.466,-12.659 -14.425,-12.319 -14.553,-12.014C-14.748,-11.554 -15.333,-11.162 -16.122,-10.966M-14.587,-7.342L-13.383,-7.273C-12.832,-7.243 -12.358,-6.93 -12.115,-6.436C-11.869,-5.936 -11.912,-5.361 -12.227,-4.9C-12.657,-4.275 -13.197,-3.599 -13.787,-2.944C-14.057,-2.645 -14.459,-2.505 -14.862,-2.57C-15.252,-2.633 -15.566,-2.87 -15.721,-3.221C-16.008,-3.87 -16.22,-4.534 -16.353,-5.193C-16.487,-5.852 -16.396,-6.349 -16.07,-6.755C-15.957,-6.895 -15.817,-7.013 -15.656,-7.105C-15.354,-7.278 -14.981,-7.364 -14.587,-7.342M-11.822,-17.281C-11.82,-17.287 -11.819,-17.292 -11.818,-17.298C-11.729,-17.687 -11.381,-18.096 -10.886,-18.393C-10.884,-18.394 -10.881,-18.396 -10.878,-18.397C-10.64,-18.534 -10.397,-18.384 -10.327,-18.335C-10.165,-18.218 -9.996,-17.988 -10.053,-17.722C-10.216,-16.98 -10.485,-16.479 -10.798,-16.286C-10.893,-16.237 -11.055,-16.186 -11.355,-16.312C-11.827,-16.512 -11.853,-17.163 -11.822,-17.281M-24.936,-8.678C-24.845,-8.14 -24.533,-7.698 -24.059,-7.437C-23.408,-7.078 -22.567,-7.172 -21.825,-7.255C-21.679,-7.271 -21.536,-7.287 -21.399,-7.299C-21.323,-7.306 -21.25,-7.321 -21.182,-7.344C-21.182,-7.307 -21.182,-7.27 -21.183,-7.232C-21.193,-6.463 -21.202,-5.737 -21.087,-5.012C-20.683,-2.479 -19.2,-0.476 -17.714,1.358C-17.184,2.011 -16.274,2.307 -15.472,2.569L-15.08,2.698C-14.557,2.879 -13.84,2.488 -13.52,2.135C-12.732,1.261 -11.967,0.366 -11.202,-0.528C-10.718,-1.095 -10.232,-1.662 -9.741,-2.225C-9.71,-2.261 -9.672,-2.296 -9.631,-2.331L-16.353,14.238C-16.447,14.469 -16.357,14.734 -16.143,14.862C-15.982,14.956 -15.789,14.953 -15.635,14.865C-15.583,14.835 -15.535,14.794 -15.495,14.745L-14.702,13.774C-13.138,11.863 -11.661,10.057 -10.395,8.05C-9.381,6.443 -8.529,4.733 -7.627,2.923C-7.345,2.357 -7.058,1.779 -6.756,1.187C-6.655,1.365 -6.558,1.538 -6.461,1.708C-5.867,2.76 -5.353,3.67 -4.783,4.554C-4.559,4.904 -4.184,5.088 -3.854,5.25C-3.736,5.309 -3.617,5.366 -3.511,5.432C-3.387,5.509 -3.237,5.528 -3.098,5.486C-2.959,5.443 -2.846,5.343 -2.786,5.212C-2.659,4.93 -2.498,4.648 -2.338,4.366C-1.929,3.645 -1.506,2.899 -1.536,2.101C-1.567,1.247 -2.049,0.471 -2.513,-0.28C-2.673,-0.535 -2.831,-0.79 -2.966,-1.044C-3.291,-1.651 -3.638,-2.247 -3.99,-2.848L-4.026,-2.909C-3.45,-2.91 -2.912,-2.91 -2.476,-3.223C-2.131,-3.467 -1.781,-3.708 -1.428,-3.95C0.096,-4.998 1.671,-6.081 2.827,-7.513C4.016,-8.988 4.809,-10.781 5.575,-12.514C5.764,-12.94 5.951,-13.366 6.145,-13.785C6.482,-14.52 6.47,-15.288 6.109,-15.893C5.771,-16.458 5.161,-16.808 4.433,-16.853C3.261,-16.927 1.6,-16.875 0.341,-16.208C-1.337,-15.322 -2.849,-14.112 -4.312,-12.942L-4.774,-12.572C-5.603,-11.911 -6.369,-11.163 -7.109,-10.441C-7.311,-10.243 -7.514,-10.046 -7.717,-9.85C-8.109,-10.325 -8.285,-10.703 -8.266,-11.017C-8.243,-11.369 -7.959,-11.759 -7.368,-12.242C-6.934,-12.597 -6.693,-13.102 -6.459,-13.59C-6.367,-13.782 -6.275,-13.975 -6.171,-14.153C-6.101,-14.273 -6.083,-14.416 -6.122,-14.55C-6.161,-14.683 -6.254,-14.794 -6.377,-14.857L-6.89,-15.122C-7.327,-15.349 -7.764,-15.576 -8.213,-15.777C-8.302,-15.818 -8.391,-15.846 -8.483,-15.867C-8.283,-16.142 -8.103,-16.396 -7.939,-16.66L-7.642,-17.133C-7.229,-17.789 -6.802,-18.468 -6.459,-19.188C-5.768,-20.638 -6.159,-22.007 -7.558,-23.045C-8.946,-24.075 -10.299,-23.455 -11.197,-22.89C-11.779,-22.527 -12.318,-22.098 -12.838,-21.684L-13.391,-21.248C-14,-20.776 -14.296,-20.575 -14.918,-20.839C-15.531,-21.096 -16.196,-21.045 -16.658,-20.724C-17.122,-20.403 -17.363,-19.867 -17.338,-19.214C-17.281,-17.722 -18.167,-16.857 -19.191,-15.857L-19.48,-15.574C-21.277,-13.793 -22.891,-12.1 -24.412,-10.399C-24.842,-9.918 -25.038,-9.276 -24.936,-8.678" style="fill:rgb(154,0,4);fill-rule:nonzero;"/>
        </g>
        <g transform="matrix(1.33333,0,0,1.33333,439.22,1029.78)">
            <path d="M0,2.505C0.044,3.17 -0.151,3.907 -0.327,4.475C-0.69,5.654 -0.158,6.652 1.097,7.143C1.807,7.421 2.697,7.157 3.475,6.887L3.476,6.886C4.228,6.625 4.848,6.352 5.375,6.05C5.614,5.912 5.833,5.769 6.038,5.617C6.54,5.244 7.08,4.143 6.771,3.542C5.999,2.045 6.754,1.227 7.993,0.15C8.486,-0.28 8.975,-0.716 9.463,-1.153L10.11,-1.73C10.307,-1.906 10.336,-2.204 10.176,-2.413L9.875,-2.806C9.717,-3.017 9.433,-3.101 9.199,-2.924C8.89,-2.724 8.577,-2.529 8.264,-2.334C7.557,-1.892 6.825,-1.435 6.144,-0.915C5.847,-0.689 5.592,-0.593 5.385,-0.631C5.107,-0.682 4.866,-0.989 4.713,-1.237C4.41,-1.726 4.188,-2.272 3.931,-2.904C3.809,-3.204 3.682,-3.517 3.538,-3.842C3.486,-3.961 3.305,-4.09 3.185,-4.139L2.618,-4.368C1.224,-4.916 0.217,-4.529 -0.459,-3.185C-1.18,-1.753 -1.215,-0.567 -0.573,0.664C-0.336,1.119 -0.044,1.808 0,2.505" style="fill:rgb(154,0,4);fill-rule:nonzero;"/>
        </g>
        <g transform="matrix(1.33333,0,0,1.33333,457.03,1010.91)">
            <path d="M0,11.487C0.007,11.73 0.186,11.933 0.426,11.971C0.543,11.99 0.658,11.966 0.755,11.91C0.857,11.852 0.938,11.758 0.98,11.641C2.084,8.513 3.95,6.532 6.683,5.589L6.684,5.588C7.165,5.423 7.49,5.186 7.639,4.895L7.828,4.547C8.149,3.963 8.511,3.303 8.506,2.61C8.5,1.749 6.992,1.14 6.818,1.073C6.447,0.931 6.059,0.888 5.684,0.847C5.288,0.804 4.915,0.763 4.676,0.609C2.955,-0.503 1.903,0.11 1.319,0.822C0.386,1.966 -0.091,2.948 -0.138,3.824C-0.232,5.586 -0.16,7.338 -0.083,9.192C-0.052,9.941 -0.021,10.704 0,11.487" style="fill:rgb(154,0,4);fill-rule:nonzero;"/>
        </g>
    </g>
</svg>
