<?xml version="1.0" encoding="UTF-8" standalone="no"?><!DOCTYPE svg PUBLIC "-//W3C//DTD SVG 1.1//EN" "http://www.w3.org/Graphics/SVG/1.1/DTD/svg11.dtd"><svg width="2268px" height="2268px" version="1.1" xmlns="http://www.w3.org/2000/svg" xmlns:xlink="http://www.w3.org/1999/xlink" xml:space="preserve" xmlns:serif="http://www.serif.com/" style="fill-rule:evenodd;clip-rule:evenodd;stroke-linejoin:round;stroke-miterlimit:2;"><g><path d="M1129.23,2065.9L1189.75,2065.01C1189.75,2065.01 1285.76,2008.72 1336.51,1990.68C1388.27,1972.29 1444.99,1958.62 1500.34,1954.66C1582.31,1948.8 1735.93,1945.21 1828.31,1955.53C1905.15,1964.12 1995.5,1995.92 2054.6,2016.58C2087.28,2028 2141.72,2056.88 2167.91,2071.19L2167.91,611.621C2162.59,610.67 2157.01,609.599 2153.28,608.689C2144.61,606.576 2127.73,600.693 2127.73,600.693L2127.74,589.033C2127.74,589.033 2145.22,596.597 2154.39,598.996C2163.58,601.398 2182.89,603.449 2182.89,603.449L2182.89,2093.36C2182.89,2093.36 2177.87,2092.21 2169,2090.2L2167.91,2090.2L2167.91,2089.95C2114.28,2077.77 1931.01,2036.53 1854.18,2023.94C1783.15,2012.31 1708.55,2005.77 1639.87,2004.4C1573.88,2003.08 1504.81,2006.61 1442.09,2015.7C1381.88,2024.44 1305.26,2044.5 1263.54,2058.98C1237.92,2067.87 1191.76,2102.6 1191.76,2102.6L1073.85,2104.26C1073.85,2104.26 998.126,2059.45 958.011,2045.38C914.885,2030.24 863.338,2018.05 815.091,2013.45C746.925,2006.95 629.201,2003.28 549.016,2006.39C476.88,2009.2 387.897,2023.88 333.982,2032.15C297.395,2037.75 261.112,2045.79 225.524,2055.97C183.999,2067.85 84.831,2103.4 84.831,2103.4L84.831,603.449C84.831,603.449 96.332,601.37 101.909,599.67C107.95,597.829 115.037,595.04 121.079,592.403C126.914,589.855 138.158,583.846 138.158,583.846L138.167,594.274C138.167,594.274 127.684,599.631 122.284,601.962C116.489,604.463 109.638,607.251 103.396,609.282C101.891,609.772 99.995,610.316 97.992,610.86L97.992,2069.28C123.123,2056.06 171.143,2030.08 209.764,2015.2C249.338,1999.95 292.673,1986.83 335.435,1977.79C389.369,1966.39 471.87,1951.09 533.372,1946.79C590.284,1942.82 650.232,1948 704.446,1952C756.002,1955.8 813.749,1961.04 858.659,1970.76C897.901,1979.26 937.99,1994.32 973.903,2010.31C1008.41,2025.67 1074.14,2066.71 1074.14,2066.71L1123.84,2065.98L1128.23,676.534C1102.06,660.668 889.777,539.327 783.866,503.646C706.566,477.603 536.681,456.592 440.998,449.509C381.12,445.077 269.452,455.143 226.865,459.381L226.865,1857.11C231.36,1855.83 236.416,1854.57 241.616,1853.61C268.364,1848.7 323.876,1837.55 370.252,1833.38C392.832,1831.35 491.188,1826.64 519.876,1828.61C578.914,1832.65 676.704,1847.88 724.483,1857.66C780.791,1869.18 825.638,1884.37 857.724,1897.77C903.576,1916.91 961.121,1947.6 999.592,1972.53C1039.55,1998.43 1066.38,2030.35 1083.5,2045.98C1090.32,2052.2 1102.32,2066.3 1102.32,2066.3C1102.32,2066.3 1035.6,2004.56 994.958,1980.07C955.638,1956.38 898.875,1927.62 853.598,1909.02C820.638,1895.48 778.731,1880.06 723.295,1868.47C676.648,1858.73 579.734,1843.56 520.987,1839.53C492.365,1837.56 393.477,1842.25 370.817,1844.28C324.255,1848.44 268.458,1859.59 241.616,1864.51C236.407,1865.46 231.354,1866.72 226.865,1868C216.935,1870.83 209.764,1873.76 209.764,1873.76L209.764,513.175C209.764,513.175 204.365,520.71 200.791,523.572C194.29,528.778 179.878,539.245 170.759,544.412C163.018,548.797 146.077,554.57 146.077,554.57L145.905,1958.85C164.522,1952.37 210.321,1936.38 243.335,1927.95C280.679,1918.42 327.308,1907.88 369.971,1901.68C413.997,1895.29 461.659,1890.75 507.49,1889.57C553.321,1888.39 620.942,1892.61 644.955,1894.63C685.484,1898.03 724.721,1904.82 750.661,1909.99C786.668,1917.15 831.501,1928.39 860.999,1937.63C892.982,1947.64 918.025,1959.25 942.561,1970.07C967.156,1980.92 990.643,1991.82 1008.57,2002.7C1031.61,2016.68 1058.64,2039.4 1072.11,2050.03C1078.36,2054.96 1094.11,2066.41 1094.11,2066.41C1094.11,2066.41 1039.56,2030.03 1016.76,2017.48C996.285,2006.21 971.345,1994.31 945.091,1983.68C920.377,1973.67 891.832,1963.37 859.24,1953.67C827.634,1944.27 784.985,1932.43 749.537,1925.51C726.442,1921 687.088,1915.51 646.549,1912.16C616.627,1909.68 552.318,1904.64 506.3,1905.39C460.863,1906.14 414.375,1910.58 370.44,1916.69C327.441,1922.67 281.409,1932.42 242.695,1942.06C207.291,1950.86 138.158,1974.49 138.158,1974.49L138.167,1972.02L138.167,546.871L138.158,546.862C138.158,546.862 157.357,540.407 166.207,535.588C175.607,530.469 187.297,522.145 194.557,516.149C200.331,511.379 209.764,499.611 209.764,499.611L209.764,449.885C209.764,449.885 367.757,433.099 443.155,438.76C539.295,445.977 709.126,467.063 786.603,493.189C899.613,531.297 1131.05,666.979 1131.05,666.979C1131.05,666.979 1246.57,583.43 1348.78,547.312C1450.99,511.194 1616.86,466.938 1734.49,450.7C1825.23,438.175 2054.6,449.885 2054.6,449.885L2054.6,494.935C2054.6,494.935 2065.01,507.857 2071.34,513.141C2078.86,519.415 2090.29,527.461 2099.69,532.58C2108.54,537.399 2127.74,543.854 2127.74,543.854L2127.73,543.863L2127.73,1969.01L2127.74,1971.48C2127.74,1971.48 2061.92,1948.68 2023.2,1939.05C1989.1,1930.56 1939.39,1919.79 1895.46,1913.68C1867.43,1909.78 1805.62,1903.14 1759.6,1902.38C1713.58,1901.63 1649.27,1906.68 1619.35,1909.15C1578.81,1912.5 1539.46,1917.99 1516.36,1922.5C1480.91,1929.42 1438.27,1941.26 1406.66,1950.66C1374.07,1960.36 1345.52,1970.66 1320.81,1980.67C1294.55,1991.31 1272.12,2001.45 1249.14,2014.47C1224.25,2028.57 1171.48,2065.28 1171.48,2065.28C1171.48,2065.28 1184.5,2051.58 1191.98,2045.86C1206.29,2034.93 1235.43,2012.83 1257.33,1999.69C1278.38,1987.07 1298.74,1977.91 1323.34,1967.06C1347.87,1956.25 1372.92,1944.64 1404.9,1934.62C1434.4,1925.39 1479.23,1914.14 1515.24,1906.98C1541.18,1901.81 1580.41,1895.02 1620.94,1891.62C1644.96,1889.6 1712.58,1885.39 1758.41,1886.56C1804.24,1887.74 1867.27,1894.51 1895.93,1898.68C1939.95,1905.07 1988.56,1916.16 2022.57,1924.94C2053.2,1932.86 2101.38,1949.36 2119.99,1955.85L2119.82,551.562C2119.82,551.562 2102.88,545.79 2095.14,541.404C2086.02,536.238 2071.86,526.066 2065.11,520.564C2060.95,517.179 2054.6,508.391 2054.6,508.391L2054.6,1871.58C2054.6,1871.58 2047.43,1868.65 2037.5,1865.82C2033.01,1864.54 2027.96,1863.28 2022.75,1862.33C1995.91,1857.41 1940.11,1846.26 1893.55,1842.1C1870.89,1840.08 1772,1835.39 1743.38,1837.35C1684.63,1841.38 1587.72,1856.55 1541.07,1866.3C1485.63,1877.88 1443.73,1893.3 1410.77,1906.85C1365.49,1925.44 1312.02,1951.45 1269.41,1977.89C1228.62,2003.21 1155.12,2065.52 1155.12,2065.52C1155.12,2065.52 1167.63,2051.06 1174.83,2044.81C1193.1,2028.95 1232.05,1991.42 1264.77,1970.36C1303.41,1945.49 1360.79,1914.74 1406.64,1895.59C1438.73,1882.19 1483.58,1867.01 1539.88,1855.48C1587.66,1845.7 1685.45,1830.48 1744.49,1826.43C1773.18,1824.47 1871.53,1829.17 1894.11,1831.2C1940.49,1835.37 1996,1846.52 2022.75,1851.43C2027.95,1852.39 2033.01,1853.65 2037.5,1854.93L2037.5,460.312C1982.96,457.783 1812.29,451.016 1737.15,461.345C1620.22,477.419 1455.66,521.371 1353,557.593C1259.25,590.673 1153.25,663.89 1133.86,676.416L1129.23,2065.9Z" style="fill:rgb(110,38,20);"/><g><path d="M2127.73,600.693C2127.73,600.693 2144.61,606.576 2153.28,608.689C2157.01,609.599 2162.59,610.67 2167.91,611.621L2167.91,2071.19C2141.72,2056.88 2087.28,2028 2054.6,2016.58C1995.5,1995.92 1905.15,1964.12 1828.31,1955.53C1735.93,1945.21 1582.31,1948.8 1500.34,1954.66C1444.99,1958.62 1388.27,1972.29 1336.51,1990.68C1285.76,2008.72 1189.75,2065.01 1189.75,2065.01L1171.48,2065.28C1171.48,2065.28 1224.25,2028.57 1249.14,2014.47C1272.12,2001.45 1294.55,1991.31 1320.81,1980.67C1345.52,1970.66 1374.07,1960.36 1406.66,1950.66C1438.27,1941.26 1480.91,1929.42 1516.36,1922.5C1539.46,1917.99 1578.81,1912.5 1619.35,1909.15C1649.27,1906.68 1713.58,1901.63 1759.6,1902.38C1805.62,1903.14 1867.43,1909.78 1895.46,1913.68C1939.39,1919.79 1989.1,1930.56 2023.2,1939.05C2061.92,1948.68 2127.74,1971.48 2127.74,1971.48L2127.73,1969.01L2127.73,600.693Z" style="fill:rgb(255,235,206);"/><path d="M1171.48,2065.28L1155.12,2065.52C1155.12,2065.52 1228.62,2003.21 1269.41,1977.89C1312.02,1951.45 1365.49,1925.44 1410.77,1906.85C1443.73,1893.3 1485.63,1877.88 1541.07,1866.3C1587.72,1856.55 1684.63,1841.38 1743.38,1837.35C1772,1835.39 1870.89,1840.08 1893.55,1842.1C1940.11,1846.26 1995.91,1857.41 2022.75,1862.33C2027.96,1863.28 2033.01,1864.54 2037.5,1865.82C2047.43,1868.65 2054.6,1871.58 2054.6,1871.58L2054.6,508.391C2054.6,508.391 2060.95,517.179 2065.11,520.564C2071.86,526.066 2086.02,536.238 2095.14,541.404C2102.88,545.79 2119.82,551.562 2119.82,551.562L2119.99,1955.85C2101.38,1949.36 2053.2,1932.86 2022.57,1924.94C1988.56,1916.16 1939.95,1905.07 1895.93,1898.68C1867.27,1894.51 1804.24,1887.74 1758.41,1886.56C1712.58,1885.39 1644.96,1889.6 1620.94,1891.62C1580.41,1895.02 1541.18,1901.81 1515.24,1906.98C1479.23,1914.14 1434.4,1925.39 1404.9,1934.62C1372.92,1944.64 1347.87,1956.25 1323.34,1967.06C1298.74,1977.91 1278.38,1987.07 1257.33,1999.69C1235.43,2012.83 1206.29,2034.93 1191.98,2045.86C1184.5,2051.58 1171.48,2065.28 1171.48,2065.28Z" style="fill:rgb(255,235,206);"/><path d="M138.167,594.274L138.167,1972.02L138.158,1974.49C138.158,1974.49 207.291,1950.86 242.695,1942.06C281.409,1932.42 327.441,1922.67 370.44,1916.69C414.375,1910.58 460.863,1906.14 506.3,1905.39C552.318,1904.64 616.627,1909.68 646.549,1912.16C687.088,1915.51 726.442,1921 749.537,1925.51C784.985,1932.43 827.634,1944.27 859.24,1953.67C891.832,1963.37 920.377,1973.67 945.091,1983.68C971.345,1994.31 996.285,2006.21 1016.76,2017.48C1039.56,2030.03 1094.11,2066.41 1094.11,2066.41L1074.14,2066.71C1074.14,2066.71 1008.41,2025.67 973.903,2010.31C937.99,1994.32 897.901,1979.26 858.659,1970.76C813.749,1961.04 756.002,1955.8 704.446,1952C650.232,1948 590.284,1942.82 533.372,1946.79C471.87,1951.09 389.369,1966.39 335.435,1977.79C292.673,1986.83 249.338,1999.95 209.764,2015.2C171.143,2030.08 123.123,2056.06 97.992,2069.28L97.992,610.86C99.995,610.316 101.891,609.772 103.396,609.282C109.638,607.251 116.489,604.463 122.284,601.962C127.684,599.631 138.167,594.274 138.167,594.274Z" style="fill:rgb(255,235,206);"/><path d="M1094.11,2066.41C1094.11,2066.41 1078.36,2054.96 1072.11,2050.03C1058.64,2039.4 1031.61,2016.68 1008.57,2002.7C990.643,1991.82 967.156,1980.92 942.561,1970.07C918.025,1959.25 892.982,1947.64 860.999,1937.63C831.501,1928.39 786.668,1917.15 750.661,1909.99C724.721,1904.82 685.484,1898.03 644.955,1894.63C620.942,1892.61 553.321,1888.39 507.49,1889.57C461.659,1890.75 413.997,1895.29 369.971,1901.68C327.308,1907.88 280.679,1918.42 243.335,1927.95C210.321,1936.38 164.522,1952.37 145.905,1958.85L146.077,554.57C146.077,554.57 163.018,548.797 170.759,544.412C179.878,539.245 194.29,528.778 200.791,523.572C204.365,520.71 209.764,513.175 209.764,513.175L209.764,1873.76C209.764,1873.76 216.935,1870.83 226.865,1868C231.354,1866.72 236.407,1865.46 241.616,1864.51C268.458,1859.59 324.255,1848.44 370.817,1844.28C393.477,1842.25 492.365,1837.56 520.987,1839.53C579.734,1843.56 676.648,1858.73 723.295,1868.47C778.731,1880.06 820.638,1895.48 853.598,1909.02C898.875,1927.62 955.638,1956.38 994.958,1980.07C1035.6,2004.56 1102.32,2066.3 1102.32,2066.3L1094.11,2066.41Z" style="fill:rgb(255,235,206);"/><path d="M1102.32,2066.3C1102.32,2066.3 1090.32,2052.2 1083.5,2045.98C1066.38,2030.35 1039.55,1998.43 999.592,1972.53C961.121,1947.6 903.576,1916.91 857.724,1897.77C825.638,1884.37 780.791,1869.18 724.483,1857.66C676.704,1847.88 578.914,1832.65 519.876,1828.61C491.188,1826.64 392.832,1831.35 370.252,1833.38C323.876,1837.55 268.364,1848.7 241.616,1853.61C236.416,1854.57 231.36,1855.83 226.865,1857.11L226.865,459.381C269.452,455.143 381.12,445.077 440.998,449.509C536.681,456.592 706.566,477.603 783.866,503.646C889.777,539.327 1102.06,660.668 1128.23,676.534L1123.84,2065.98L1102.32,2066.3Z" style="fill:rgb(255,235,206);"/><path d="M1155.12,2065.52L1129.23,2065.9L1133.86,676.416C1153.25,663.89 1259.25,590.673 1353,557.593C1455.66,521.371 1620.22,477.419 1737.15,461.345C1812.29,451.016 1982.96,457.783 2037.5,460.312L2037.5,1854.93C2033.01,1853.65 2027.95,1852.39 2022.75,1851.43C1996,1846.52 1940.49,1835.37 1894.11,1831.2C1871.53,1829.17 1773.18,1824.47 1744.49,1826.43C1685.45,1830.48 1587.66,1845.7 1539.88,1855.48C1483.58,1867.01 1438.73,1882.19 1406.64,1895.59C1360.79,1914.74 1303.41,1945.49 1264.77,1970.36C1232.05,1991.42 1193.1,2028.95 1174.83,2044.81C1167.63,2051.06 1155.12,2065.52 1155.12,2065.52Z" style="fill:rgb(255,235,206);"/></g></g><g opacity="0.75"><g><path d="M2119.06,1097.54L2133.77,1070.35C2149.98,1150.15 2156.52,1221.89 2153.78,1289.27C2151.5,1344.83 2127.18,1395.13 2079.46,1443.06C2052.67,1469.97 2022.9,1490.99 1988.45,1507.34C1929.38,1535.39 1871.16,1567.54 1814.83,1598.64L1812.95,1599.69C1796.14,1608.97 1781.16,1621.69 1766.64,1634L1762.77,1637.28C1721.08,1672.53 1694.52,1719.73 1683.82,1777.52C1670.59,1848.95 1678.54,1919.67 1708.14,1993.79C1726.14,2038.87 1744.71,2073.89 1766.58,2103.98C1766.85,2104.33 1767.12,2104.71 1767.36,2105.09L1753.61,2093.42C1696.59,2045.19 1637.66,1995.31 1591.92,1934.65C1529.65,1852.02 1496.28,1761.34 1492.75,1665.14C1489.44,1574.63 1525.86,1497.25 1604.06,1428.55C1650.02,1388.18 1704.85,1353.95 1776.6,1320.84C1814.36,1303.41 1852.29,1284.68 1888.93,1266.55C1904.26,1258.99 1919.57,1251.43 1934.92,1243.93L1946.81,1238.14C1968.07,1227.76 1989.37,1217.38 2010.49,1206.75C2056.41,1183.67 2091.94,1147.95 2119.06,1097.54Z" style="fill:url(#_Linear1);"/><path d="M2156.77,1380.71L2160.74,1374.58L2161.09,1375.8C2162.66,1381.69 2164.16,1387.25 2165.02,1392.82C2177.36,1471.73 2175.66,1552.59 2159.85,1640.05C2149.15,1698.94 2108.23,1739.5 2073.75,1768.25C2044.11,1792.96 2008.92,1815.15 1966.11,1836.08C1942.85,1847.49 1918.19,1861.77 1890.8,1879.78C1862.18,1898.57 1845.82,1925.98 1842.19,1961.25C1835.85,2022.7 1851.63,2080.31 1890.42,2137.35C1906.13,2160.49 1923.41,2183.05 1940.14,2204.88C1943.89,2209.81 1947.67,2214.72 1951.42,2219.66C1903,2197.23 1861.79,2167.46 1828.63,2130.96C1765.33,2061.27 1726.16,1981.85 1712.21,1894.91C1695.68,1791.7 1730.49,1704.16 1815.64,1634.74C1850.23,1606.55 1892.41,1584.14 1944.64,1566.16C2025.65,1538.29 2090.18,1486.59 2136.4,1412.46C2143.06,1401.79 2149.92,1391.24 2156.77,1380.71Z" style="fill:url(#_Linear2);"/></g><g><path d="M616.89,624.199C655.392,623.72 687.046,620.128 715.922,612.897L708.165,617.143C653.301,647.201 596.586,678.296 535.449,695.775C452.156,719.607 371.322,718.394 295.18,692.247C223.604,667.665 174.168,616.026 144.062,534.409C126.328,486.378 116.096,433.238 111.802,367.201C109.551,332.77 106.343,297.859 103.262,264.098C101.905,249.445 100.532,234.807 99.287,220.169L98.393,210.033C96.654,189.968 94.914,169.887 92.934,149.838C88.704,106.771 71.385,68.11 40.002,31.555L24.598,13.534C90.923,24.867 148.261,41.213 199.548,63.385C242.121,81.774 274.03,115.806 297.08,167.413C310.026,196.369 317.496,225.9 319.906,257.713C324.121,312.816 331.83,368.478 339.269,422.304C341.536,438.841 346.979,454.357 352.215,469.361L353.683,473.592C368.8,517.042 397.82,552.175 439.961,578.035C490.642,609.098 546.847,624.247 611.591,624.247C613.363,624.247 615.119,624.231 616.89,624.199Z" style="fill:url(#_Linear3);"/><path d="M851.972,506.271C855.963,505.09 859.985,503.909 863.992,502.727C832.562,532.673 797.699,555.165 760.203,569.707C686.791,598.2 613.012,604.92 540.925,589.692C455.509,571.638 397.709,518.211 369.104,430.96C357.483,395.555 352.646,355.872 354.306,309.644C356.908,237.685 335.806,171.488 291.637,112.857C285.476,104.7 279.506,96.432 273.504,88.147L270.375,83.837C275.1,84.348 279.633,84.827 284.087,85.8C349.438,99.879 412.107,125.499 475.718,164.177C518.37,190.116 537.701,234.205 549.768,269.706C560.192,300.338 566.928,334.514 570.376,374.165C572.308,395.922 576.075,419.53 581.917,446.332C588.047,474.633 604.696,495.848 631.433,509.432C677.756,532.961 727.767,537.989 784.291,524.804C807.101,519.472 829.896,512.752 851.972,506.271Z" style="fill:url(#_Linear4);"/></g><g><path d="M1375.17,203.613C1383.56,203.389 1391.75,203.278 1399.77,203.278C1456.18,203.278 1503.75,208.913 1547.88,220.725C1633.55,243.679 1690.59,289.013 1722.24,359.344C1755.91,434.209 1764.67,516.113 1748.28,602.821C1736.26,666.512 1710.03,726.995 1684.63,785.466L1680.82,794.309C1685.51,764.171 1686.25,731.576 1683.12,692.196C1677.72,624.163 1656.97,566.874 1619.73,517.023C1589.55,476.685 1551.17,450.522 1505.73,439.269L1501.16,438.135C1485.5,434.225 1469.3,430.202 1452.95,429.468L1451.29,429.388C1396.37,426.898 1339.76,424.312 1283.57,425.222C1251.42,425.429 1220.41,420.912 1189.76,410.488C1135.25,391.924 1097.7,362.728 1075.04,321.209C1047.69,271.167 1025.73,214.436 1008.03,148.079L1027.95,162.19C1068,190.603 1108.83,204.555 1152.87,204.826C1173.45,204.97 1194.01,204.842 1214.58,204.73L1224.82,204.666C1274.39,204.443 1324.81,204.954 1375.17,203.613Z" style="fill:url(#_Linear5);"/><path d="M1339.45,455.08C1358.91,452.59 1377.33,451.313 1394.86,451.313C1419.46,451.313 1442.35,453.787 1463.96,458.736C1555.19,479.599 1614.81,533.281 1641.13,618.282C1663.35,689.986 1663.43,765.505 1641.39,842.732C1630.09,882.239 1610.45,919.799 1582.87,954.614C1583.75,950.192 1584.61,945.754 1585.49,941.333C1589.99,918.458 1594.63,894.802 1597.92,871.289C1606,812.77 1596.23,762.536 1568.02,717.729C1551.76,691.901 1528.69,676.992 1499.45,673.416C1472.3,670.096 1448.51,668.468 1426.82,668.468C1425.3,668.468 1423.83,668.5 1422.29,668.484C1382.87,668.484 1348.47,664.829 1317.22,657.326C1280.06,648.403 1233.5,632.887 1203.17,592.023C1157.99,531.142 1126.08,469.909 1105.67,404.894C1104.29,400.488 1103.34,395.843 1102.36,390.942L1106.27,393.241C1115.53,398.748 1124.81,404.239 1133.98,409.922C1197.6,449.254 1266.81,464.466 1339.45,455.08Z" style="fill:url(#_Linear6);"/></g></g><g><path d="M1215.97,1190.58C1210.16,1199.33 1204.89,1208.74 1200.15,1218.83C1196.76,1226.06 1192.59,1230.19 1184.48,1230.68C1173.01,1231.38 1161.57,1232.5 1150.14,1233.72C1142.51,1234.54 1138.35,1231.67 1134.93,1224.44C1126.64,1206.85 1117.84,1189.42 1107.92,1172.7C1093.8,1148.9 1076.06,1127.97 1053.13,1111.99C1020.83,1089.45 984.807,1081.72 945.968,1085.51C941.648,1085.93 937.314,1086.29 932.728,1086.72C925.528,1070.92 922.185,1054.89 920.05,1038.72C906.567,936.772 960.839,839.948 1055.14,800.002C1194.75,740.871 1345.64,829.468 1367.97,972.026C1374.86,1016 1369.57,1058.43 1351.84,1099.36C1348.77,1106.45 1344.76,1110.03 1336.62,1111.65C1284.12,1122.12 1243.86,1148.59 1215.97,1190.58Z" style="fill:url(#_Linear7);"/><g><path d="M1220.24,1083.68C1215.19,1088.81 1208.46,1093.54 1201.65,1095.46C1182.58,1100.82 1163.16,1105.03 1143.72,1108.94C1125.51,1112.59 1125.44,1112.16 1126.32,1130.75C1126.36,1131.55 1125.79,1132.39 1125.5,1133.21C1115.49,1136.57 1108.45,1134.51 1104.28,1127C1099.81,1118.96 1100.81,1108.13 1108.42,1103.08C1115.6,1098.3 1124.04,1095.06 1132.34,1092.45C1144.93,1088.48 1157.93,1085.82 1170.67,1082.23C1175.29,1080.93 1179.91,1079.06 1184.01,1076.59C1191.9,1071.81 1191.51,1066.4 1183.18,1062.05C1179.68,1060.21 1175.87,1058.98 1171.01,1056.99L1171.01,1036.24C1189.24,1039.48 1206.35,1042.5 1219.59,1055.34C1228.31,1063.8 1228.77,1075.03 1220.24,1083.68Z" style="fill:rgb(154,0,4);"/><path d="M1051.47,909.643C1049.41,909.309 1047.93,906.697 1047.38,905.211C1047.11,904.493 1047.32,903.683 1048,902.741C1048.37,902.227 1049.51,900.556 1051.17,900.636C1052.45,900.674 1053.56,901.274 1054.95,902.041C1055.56,902.377 1056.25,902.752 1057.07,903.144L1059.27,904.208L1057.37,905.744C1056.6,906.369 1055.94,906.982 1055.38,907.526C1054.11,908.715 1053.1,909.673 1051.86,909.673C1051.73,909.673 1051.6,909.662 1051.47,909.643Z" style="fill:white;"/><path d="M1191.89,1161.46C1184.43,1157.64 1177.12,1153.49 1170.15,1148.85C1168.09,1147.47 1167.4,1144.05 1166.08,1141.56C1168.7,1140.36 1171.36,1138.05 1173.93,1138.14C1182.75,1138.46 1196.72,1150.36 1202.09,1162.77C1197.53,1162.25 1194.29,1162.68 1191.89,1161.46Z" style="fill:rgb(154,0,4);"/><path d="M1195.19,946.125C1203.78,944.733 1212.57,942.182 1220.29,938.234C1238.4,928.984 1239.34,909.522 1222.76,897.755C1212.36,890.382 1200.12,888.104 1187.85,886.122C1185.68,885.775 1183.51,885.435 1180.99,885.027C1176.91,877.053 1178.86,868.943 1179.06,859.714C1210.02,861.176 1237.93,867.577 1260.83,888.028C1285.07,909.677 1283.28,931.56 1256.03,949.815C1236.57,962.84 1214.58,969.704 1191.8,973.512C1174.41,976.42 1156.6,976.811 1139.21,979.738C1127.18,981.764 1114.95,984.865 1103.9,989.886C1090.06,996.186 1089.94,1005.76 1102.07,1015.04C1104.52,1016.92 1107.2,1018.52 1109.88,1020.04C1123.54,1027.78 1123.55,1027.76 1120.13,1046.57C1102.86,1044.71 1087.09,1040.65 1072.99,1031.86C1049.28,1017.09 1048.91,990.108 1072.06,974.205C1086.6,964.207 1103.4,959.788 1120.43,956.971C1145.27,952.861 1170.34,950.174 1195.19,946.125Z" style="fill:rgb(154,0,4);"/><path d="M1071.68,876.973C1085.64,875.629 1099.48,872.998 1114.07,870.851C1117.32,887.844 1117.45,888.055 1106.4,894.962C1083.16,909.51 1059.41,923.109 1031.67,927.089C1022.15,928.452 1012.23,928.056 1007.02,938.53C1006.78,939.006 1004.75,938.593 1002.84,938.593C1018.9,909.683 1033.67,880.625 1071.68,876.973ZM1051.47,909.643C1051.6,909.662 1051.73,909.673 1051.86,909.673C1053.1,909.673 1054.11,908.715 1055.38,907.526C1055.94,906.982 1056.6,906.369 1057.37,905.744L1059.27,904.208L1057.07,903.144C1056.25,902.752 1055.56,902.377 1054.95,902.041C1053.56,901.274 1052.45,900.674 1051.17,900.636C1049.51,900.556 1048.37,902.227 1048,902.741C1047.32,903.683 1047.11,904.493 1047.38,905.211C1047.93,906.697 1049.41,909.309 1051.47,909.643Z" style="fill:rgb(154,0,4);"/><path d="M1134.73,792.512C1146.33,787.28 1157.96,787.349 1169.07,794.089C1176.81,798.795 1178.49,803.413 1175.95,811.961C1175.32,814.072 1174.79,816.382 1173.54,818.128C1164.44,830.799 1164.09,845.303 1164.15,860.043C1164.23,878.645 1164.06,897.253 1163.68,915.854C1163.52,923.741 1162.56,931.62 1161.88,940.529C1153.14,942.294 1146.25,943.779 1139.33,945.029C1137.25,945.396 1135.05,945.086 1131.13,945.086C1131.13,938.598 1131.28,932.513 1131.1,926.435C1130.26,898.1 1129.57,869.767 1128.27,841.459C1127.86,832.272 1126.02,823.104 1124.31,814.036C1122.28,803.282 1124.84,796.988 1134.73,792.512Z" style="fill:rgb(154,0,4);"/><path d="M1131.42,989.594C1141.71,988.622 1149.52,987.899 1158.78,987.026C1159.43,992.665 1160.44,997.716 1160.53,1002.78C1160.92,1023.52 1161.12,1044.25 1161.23,1064.99C1161.3,1079.09 1157.74,1082.64 1143.45,1082.99C1140.44,1083.05 1137.44,1082.4 1133.03,1081.92C1130.99,1051.4 1131.49,1021.23 1131.42,989.594Z" style="fill:rgb(154,0,4);"/><path d="M1158.06,1213.61C1157.12,1220.41 1151.9,1224.74 1145.32,1224.1C1139.08,1223.49 1135.89,1219.9 1135.86,1213.58C1135.83,1209.61 1135.78,1205.65 1135.75,1201.67C1135.6,1177.86 1135.41,1154.04 1135.33,1130.23C1135.32,1126.35 1135.85,1122.46 1136.24,1117.05C1143.36,1116.53 1148.96,1116.12 1155.74,1115.62C1156.35,1120.15 1157.25,1123.88 1157.31,1127.62C1157.71,1154.09 1157.96,1180.54 1158.24,1207.01C1158.26,1209.21 1158.36,1211.44 1158.06,1213.61Z" style="fill:rgb(154,0,4);"/></g><g><g><path d="M860.078,1390.19C842.85,1337.2 826.166,1284.01 803.826,1232.86C791.03,1203.56 775.981,1175.51 754.446,1151.49C735.688,1130.58 713.589,1114.83 685.366,1109.6C644.95,1102.12 605.493,1108.44 566.227,1119.15C588.153,1126.86 604.44,1141.18 616.847,1159.31C629.301,1177.5 641.087,1196.39 650.887,1216.11C675.784,1266.19 692.722,1319.33 706.903,1373.29C720.726,1425.91 734.839,1478.39 754.395,1529.25C773.172,1578.06 793.618,1626.12 823.418,1669.39C833.626,1684.21 845.976,1697.76 858.629,1710.63C870.558,1722.76 886.214,1727.58 903.33,1727.84C941.519,1728.42 963.902,1703.85 986.472,1677.89C944.922,1624.72 920.143,1564.64 898,1503.39C884.474,1465.98 872.384,1428.03 860.078,1390.19" style="fill:url(#_Linear8);fill-rule:nonzero;"/></g><g><path d="M1091.03,1564.69C1066.13,1515.18 1046.08,1463.67 1027.61,1411.51C1008.86,1358.56 990.823,1305.35 971.527,1252.61C959.016,1218.43 943.088,1185.79 919.596,1157.47C895.1,1127.93 864.935,1107.23 826.821,1099.64C796.469,1093.61 766.038,1094.99 735.699,1100.03C729.526,1101.06 723.448,1102.61 717.325,1103.91C732.653,1112.66 745.87,1122.55 755.972,1135.47C769.56,1152.85 783.073,1170.58 794.081,1189.62C825.031,1243.16 846.004,1301 863.542,1360.07C880.789,1418.16 897.478,1476.43 919.961,1532.8C936.551,1574.4 955.172,1615 981.313,1651.66C995.545,1671.62 1011.96,1689.37 1032.66,1703.02C1057.09,1719.13 1081.04,1717.57 1104.73,1702.05C1121.96,1690.75 1135.16,1675.3 1148.52,1658.54C1146.57,1655.52 1145.48,1653.61 1144.16,1651.88C1123.47,1624.63 1106.37,1595.21 1091.03,1564.69" style="fill:url(#_Linear9);fill-rule:nonzero;"/></g><g><path d="M1250.82,1553.84C1220.92,1501.35 1201.3,1444.39 1181.58,1387.51C1162.76,1333.22 1143.3,1279.13 1122.81,1225.44C1111.9,1196.86 1096.61,1170.31 1076.6,1146.79C1055.84,1122.39 1030.39,1106.23 998.421,1100.29C959.225,1093.02 920.974,1097.78 881.598,1107.42C892.826,1116.42 903.3,1123.78 912.561,1132.44C934.592,1153.06 949.203,1178.95 961.632,1205.99C989.198,1265.93 1011.14,1328.12 1032.59,1390.38C1048.45,1436.41 1064.26,1482.36 1084.36,1526.72C1104.3,1570.73 1125.97,1613.88 1156.09,1651.95C1167.24,1666.05 1180.53,1678.71 1194.12,1690.55C1207.03,1701.78 1223.3,1705.38 1240.25,1702.97C1268.58,1698.97 1290.42,1684.08 1306.51,1660.77C1313.73,1650.31 1312.83,1650.34 1305.91,1639.81C1287.2,1611.36 1267.63,1583.38 1250.82,1553.84" style="fill:url(#_Linear10);fill-rule:nonzero;"/></g><g><path d="M1656.34,1101.96C1632.77,1117.36 1607.18,1126.09 1578.75,1125.16C1563.73,1124.67 1548.7,1123.97 1533.69,1123.31C1502.29,1121.93 1470.87,1121.05 1439.52,1118.98C1402.65,1116.54 1366.05,1117.39 1329.94,1125.57C1279.57,1136.97 1238.8,1162.4 1215.21,1209.83C1191.03,1258.41 1184.72,1310.41 1192.64,1363.65C1199.45,1409.43 1217.43,1452.09 1233.93,1495.02C1234.34,1496.1 1235.52,1496.87 1237.29,1498.82C1237.05,1494.15 1237.11,1490.73 1236.67,1487.38C1233.78,1465.27 1234.76,1443.23 1237.37,1421.17C1242.07,1381.62 1255.42,1345.71 1280.73,1314.47C1299.55,1291.25 1322.97,1275.64 1352.33,1269.58C1363.12,1267.34 1374.13,1264.85 1385.06,1264.78C1420.44,1264.54 1455.88,1264.3 1491.18,1266.23C1511.98,1267.39 1531.82,1264.99 1551.37,1259.18C1582.86,1249.8 1610.01,1233.45 1627.24,1204.64C1648.64,1168.84 1664.01,1130.21 1676.2,1089.06C1669.57,1093.36 1662.95,1097.65 1656.34,1101.96" style="fill:url(#_Linear11);fill-rule:nonzero;"/></g><g><path d="M1607.19,1241.9C1599.44,1246.1 1591.66,1250.25 1583.99,1254.59C1544.02,1277.21 1501.55,1285.2 1456.08,1277.54C1429.77,1273.11 1403.29,1271.84 1376.86,1276.81C1319.64,1287.56 1279.09,1319.18 1259.57,1374.49C1243.13,1421.07 1242.17,1469.03 1253.85,1516.93C1261.25,1547.28 1275.71,1574.47 1295.54,1599.01C1292.44,1577.64 1288.55,1556.35 1286.42,1534.89C1283.11,1501.41 1288.88,1469.81 1308.38,1441.37C1318.65,1426.38 1332.55,1418.04 1350.19,1416.57C1365.57,1415.29 1381.11,1414.63 1396.51,1415.3C1419.62,1416.3 1442.58,1415.39 1465.18,1410.88C1493.81,1405.17 1521.05,1395.29 1540.06,1371.65C1568.21,1336.63 1591.05,1298.34 1606.23,1255.82C1607.8,1251.43 1608.68,1246.79 1609.98,1241.87C1608.04,1241.87 1607.52,1241.72 1607.19,1241.9" style="fill:url(#_Linear12);fill-rule:nonzero;"/></g></g></g><defs><linearGradient id="_Linear1" x1="0" y1="0" x2="1" y2="0" gradientUnits="userSpaceOnUse" gradientTransform="matrix(374.121,-1011.91,1011.91,374.121,1753.61,2093.42)"><stop offset="0" style="stop-color:rgb(163,62,255);stop-opacity:1"/><stop offset="1" style="stop-color:rgb(255,113,157);stop-opacity:1"/></linearGradient><linearGradient id="_Linear2" x1="0" y1="0" x2="1" y2="0" gradientUnits="userSpaceOnUse" gradientTransform="matrix(374.121,-1011.91,1011.91,374.121,1753.61,2093.42)"><stop offset="0" style="stop-color:rgb(163,62,255);stop-opacity:1"/><stop offset="1" style="stop-color:rgb(255,113,157);stop-opacity:1"/></linearGradient><linearGradient id="_Linear3" x1="0" y1="0" x2="1" y2="0" gradientUnits="userSpaceOnUse" gradientTransform="matrix(-668.162,-585.588,585.588,-668.162,708.165,617.143)"><stop offset="0" style="stop-color:rgb(255,100,100);stop-opacity:1"/><stop offset="0.5" style="stop-color:rgb(253,141,0);stop-opacity:1"/><stop offset="1" style="stop-color:rgb(255,230,117);stop-opacity:1"/></linearGradient><linearGradient id="_Linear4" x1="0" y1="0" x2="1" y2="0" gradientUnits="userSpaceOnUse" gradientTransform="matrix(-668.162,-585.588,585.588,-668.162,708.165,617.143)"><stop offset="0" style="stop-color:rgb(255,100,100);stop-opacity:1"/><stop offset="0.5" style="stop-color:rgb(253,141,0);stop-opacity:1"/><stop offset="1" style="stop-color:rgb(255,230,117);stop-opacity:1"/></linearGradient><linearGradient id="_Linear5" x1="0" y1="0" x2="1" y2="0" gradientUnits="userSpaceOnUse" gradientTransform="matrix(672.791,646.23,-646.23,672.791,1008.03,148.079)"><stop offset="0" style="stop-color:rgb(136,230,255);stop-opacity:1"/><stop offset="1" style="stop-color:rgb(95,170,0);stop-opacity:1"/></linearGradient><linearGradient id="_Linear6" x1="0" y1="0" x2="1" y2="0" gradientUnits="userSpaceOnUse" gradientTransform="matrix(672.791,646.23,-646.23,672.791,1008.03,148.079)"><stop offset="0" style="stop-color:rgb(136,230,255);stop-opacity:1"/><stop offset="1" style="stop-color:rgb(95,170,0);stop-opacity:1"/></linearGradient><linearGradient id="_Linear7" x1="0" y1="0" x2="1" y2="0" gradientUnits="userSpaceOnUse" gradientTransform="matrix(18.8387,450.966,-450.53,18.8204,1144.45,781.417)"><stop offset="0" style="stop-color:rgb(230,100,100);stop-opacity:1"/><stop offset="0.44" style="stop-color:rgb(242,188,188);stop-opacity:1"/><stop offset="1" style="stop-color:rgb(245,210,210);stop-opacity:1"/></linearGradient><linearGradient id="_Linear8" x1="0" y1="0" x2="1" y2="0" gradientUnits="userSpaceOnUse" gradientTransform="matrix(3.91145e-14,638.789,-638.789,3.91145e-14,1097.34,1089.06)"><stop offset="0" style="stop-color:rgb(255,130,130);stop-opacity:1"/><stop offset="1" style="stop-color:rgb(154,0,4);stop-opacity:1"/></linearGradient><linearGradient id="_Linear9" x1="0" y1="0" x2="1" y2="0" gradientUnits="userSpaceOnUse" gradientTransform="matrix(3.91145e-14,638.789,-638.789,3.91145e-14,1097.34,1089.06)"><stop offset="0" style="stop-color:rgb(255,130,130);stop-opacity:1"/><stop offset="1" style="stop-color:rgb(154,0,4);stop-opacity:1"/></linearGradient><linearGradient id="_Linear10" x1="0" y1="0" x2="1" y2="0" gradientUnits="userSpaceOnUse" gradientTransform="matrix(3.91145e-14,638.789,-638.789,3.91145e-14,1097.34,1089.06)"><stop offset="0" style="stop-color:rgb(255,130,130);stop-opacity:1"/><stop offset="1" style="stop-color:rgb(154,0,4);stop-opacity:1"/></linearGradient><linearGradient id="_Linear11" x1="0" y1="0" x2="1" y2="0" gradientUnits="userSpaceOnUse" gradientTransform="matrix(3.91145e-14,638.789,-638.789,3.91145e-14,1097.34,1089.06)"><stop offset="0" style="stop-color:rgb(255,130,130);stop-opacity:1"/><stop offset="1" style="stop-color:rgb(154,0,4);stop-opacity:1"/></linearGradient><linearGradient id="_Linear12" x1="0" y1="0" x2="1" y2="0" gradientUnits="userSpaceOnUse" gradientTransform="matrix(3.91145e-14,638.789,-638.789,3.91145e-14,1097.34,1089.06)"><stop offset="0" style="stop-color:rgb(255,130,130);stop-opacity:1"/><stop offset="1" style="stop-color:rgb(154,0,4);stop-opacity:1"/></linearGradient></defs></svg>