<?xml version="1.0" encoding="UTF-8" standalone="no"?><!DOCTYPE svg PUBLIC "-//W3C//DTD SVG 1.1//EN" "http://www.w3.org/Graphics/SVG/1.1/DTD/svg11.dtd"><svg width="185px" height="145px" version="1.1" xmlns="http://www.w3.org/2000/svg" xmlns:xlink="http://www.w3.org/1999/xlink" xml:space="preserve" xmlns:serif="http://www.serif.com/" style="fill-rule:evenodd;clip-rule:evenodd;stroke-linejoin:round;stroke-miterlimit:2;"><path d="M180.984,22.055c0,9 -7.306,16.307 -16.306,16.307l-144.356,-0c-9,-0 -16.306,-7.307 -16.306,-16.307c-0,-9 7.306,-16.307 16.306,-16.307l144.356,0c9,0 16.306,7.307 16.306,16.307Z" style="fill:#7272e7;"/><path d="M116.755,72.5c0,9 -7.306,16.307 -16.306,16.307l-80.127,-0c-9,-0 -16.306,-7.307 -16.306,-16.307c-0,-9 7.306,-16.307 16.306,-16.307l80.127,0c9,0 16.306,7.307 16.306,16.307Z" style="fill:#7272e7;"/><path d="M75.118,122.71c0,9 -7.306,16.307 -16.306,16.307l-38.49,-0c-9,-0 -16.306,-7.307 -16.306,-16.307c-0,-9 7.306,-16.306 16.306,-16.306l38.49,-0c9,-0 16.306,7.306 16.306,16.306Z" style="fill:#7272e7;"/><path d="M146.054,139.017l-32.114,-49.92l64.229,0l-32.115,49.92Z" style="fill:#2525da;"/></svg>