<?xml version="1.0" encoding="UTF-8" standalone="no"?><!DOCTYPE svg PUBLIC "-//W3C//DTD SVG 1.1//EN" "http://www.w3.org/Graphics/SVG/1.1/DTD/svg11.dtd"><svg width="3507px" height="1972px" version="1.1" xmlns="http://www.w3.org/2000/svg" xmlns:xlink="http://www.w3.org/1999/xlink" xml:space="preserve" xmlns:serif="http://www.serif.com/" style="fill-rule:evenodd;clip-rule:evenodd;stroke-linejoin:round;stroke-miterlimit:2;"><g id="路线"><path d="M677.903,248.899l-677.903,0l0,-248.899l3507.87,0l0,1972.44l-249.673,-0l0,-455.353l-1685.48,-0l0,-773.225l-859.172,-0l-0,826.698l-216.051,0l0,-29.069l180.404,-0l-0,-1292.59Zm2580.3,0l-879.393,0l-0,189.09l530.652,-0l0,1049.53l348.741,-0l0,-1238.62Zm-909.774,0l-124.056,0l0,728.639l-32.912,0l-0,-509.983l-589.47,-0l0,1019.97l1271.82,-0l0,-1019.97l-495.005,-0l-0,509.983l-30.381,0l-0,-728.639Zm-156.968,0l-1477.91,0l-0,465.398l859.172,-0l0,-276.308l618.737,-0l-0,-189.09Z" style="fill:#d1d1d1;"/><g id="建筑"><path id="司法鉴定" d="M766.74,1011.3l308.664,-178.676l67.732,96.326l75.737,-38.62l36.153,52.33l-86.574,44.307l50.421,77.647l-383.847,217.263l-334.646,0l-383.847,-217.263l50.421,-77.647l-86.574,-44.307l36.153,-52.33l75.737,38.62l67.732,-96.326l308.664,178.676l198.074,-0Z" style="fill:#d1d1d1;"/><g transform="matrix(1,0,0,1,-78.4062,-183.585)"><g transform="matrix(135.892,96.4938,-96.4938,135.892,281.808,1231.11)"><path d="M0.095,-0.598l0,0.066l0.603,0l0,-0.066l-0.603,0Zm-0.007,-0.178l0,0.072l0.724,0l0,0.671c0,0.019 -0.006,0.025 -0.024,0.025c-0.021,0.001 -0.09,0.002 -0.159,-0.001c0.011,0.023 0.023,0.06 0.026,0.082c0.09,-0 0.152,-0.001 0.187,-0.014c0.036,-0.013 0.046,-0.039 0.046,-0.091l0,-0.744l-0.8,-0Zm0.144,0.419l0.323,-0l0,0.187l-0.323,-0l0,-0.187Zm-0.073,-0.067l0,0.395l0.073,-0l0,-0.075l0.396,-0l0,-0.32l-0.469,-0Z" style="fill:#f00;fill-rule:nonzero;"/></g><g transform="matrix(164.206,28.5327,-28.5327,164.206,450.59,1350.5)"><path d="M0.095,-0.775c0.067,0.03 0.149,0.078 0.19,0.113l0.043,-0.063c-0.042,-0.033 -0.126,-0.078 -0.191,-0.104l-0.042,0.054Zm-0.053,0.272c0.065,0.028 0.145,0.075 0.185,0.108l0.042,-0.062c-0.041,-0.033 -0.123,-0.076 -0.186,-0.102l-0.041,0.056Zm0.034,0.519l0.063,0.051c0.059,-0.093 0.129,-0.218 0.182,-0.324l-0.055,-0.049c-0.058,0.113 -0.137,0.245 -0.19,0.322Zm0.31,0.029c0.027,-0.012 0.069,-0.019 0.443,-0.066c0.02,0.037 0.036,0.072 0.046,0.1l0.066,-0.034c-0.03,-0.078 -0.106,-0.197 -0.177,-0.285l-0.06,0.029c0.03,0.039 0.061,0.084 0.089,0.129l-0.317,0.035c0.062,-0.084 0.125,-0.191 0.177,-0.298l0.284,-0l0,-0.071l-0.264,-0l0,-0.181l0.223,0l0,-0.071l-0.223,-0l0,-0.172l-0.075,-0l0,0.172l-0.215,-0l0,0.071l0.215,0l0,0.181l-0.259,-0l0,0.071l0.224,-0c-0.05,0.113 -0.117,0.22 -0.139,0.25c-0.025,0.037 -0.044,0.06 -0.064,0.065c0.009,0.021 0.022,0.059 0.026,0.075Z" style="fill:#f00;fill-rule:nonzero;"/></g><g transform="matrix(166.645,-2.70142,2.70142,166.645,652.745,1379.68)"><path d="M0.226,-0.132c0.021,0.037 0.043,0.087 0.052,0.118l0.067,-0.024c-0.009,-0.03 -0.033,-0.079 -0.055,-0.115l-0.064,0.021Zm0.394,-0.466c0.062,0.04 0.144,0.099 0.186,0.134l0.043,-0.053c-0.042,-0.034 -0.126,-0.089 -0.187,-0.127l-0.042,0.046Zm-0.312,-0.239l-0,0.359l0.074,0l-0,-0.359l-0.074,-0Zm-0.198,0.039l-0,0.299l0.073,0l-0,-0.299l-0.073,-0Zm0.388,0.248c-0.097,0.094 -0.284,0.161 -0.465,0.196c0.016,0.015 0.033,0.041 0.042,0.06c0.071,-0.016 0.143,-0.037 0.21,-0.063l-0,0.049l0.174,0l-0,0.081l-0.327,0l-0,0.059l0.327,0l-0,0.159l-0.394,0l-0,0.063l0.869,0l0,-0.063l-0.225,0c0.025,-0.039 0.052,-0.086 0.075,-0.13l-0.076,-0.016c-0.016,0.042 -0.045,0.101 -0.071,0.146l-0.102,0l0,-0.159l0.337,0l-0,-0.059l-0.337,0l-0,-0.081l0.176,0l-0,-0.055c0.072,0.026 0.146,0.048 0.211,0.062c0.01,-0.017 0.03,-0.044 0.045,-0.058c-0.142,-0.026 -0.321,-0.083 -0.425,-0.143l0.017,-0.016l-0.061,-0.032Zm-0.194,0.186c0.07,-0.028 0.136,-0.062 0.19,-0.1c0.059,0.036 0.135,0.071 0.214,0.1l-0.404,0Zm0.284,-0.47c-0.032,0.094 -0.09,0.182 -0.16,0.24c0.018,0.009 0.049,0.03 0.062,0.042c0.034,-0.032 0.066,-0.072 0.095,-0.118l0.355,0l0,-0.065l-0.318,0c0.014,-0.027 0.026,-0.055 0.036,-0.084l-0.07,-0.015Z" style="fill:#f00;fill-rule:nonzero;"/></g><g transform="matrix(162.606,-36.5668,36.5668,162.606,857.031,1375.46)"><path d="M0.224,-0.378c-0.021,0.181 -0.076,0.324 -0.188,0.411c0.018,0.011 0.049,0.036 0.061,0.05c0.067,-0.058 0.115,-0.134 0.15,-0.227c0.092,0.173 0.242,0.208 0.451,0.208l0.234,-0c0.003,-0.022 0.017,-0.058 0.028,-0.076c-0.049,0.001 -0.221,0.001 -0.258,0.001c-0.059,-0 -0.114,-0.003 -0.164,-0.012l0,-0.202l0.298,-0l0,-0.07l-0.298,-0l0,-0.164l0.257,-0l0,-0.073l-0.584,-0l0,0.073l0.249,-0l0,0.415c-0.082,-0.031 -0.145,-0.09 -0.184,-0.195c0.01,-0.041 0.018,-0.085 0.024,-0.131l-0.076,-0.008Zm0.202,-0.448c0.017,0.03 0.035,0.068 0.046,0.099l-0.39,-0l0,0.218l0.074,-0l0,-0.147l0.685,-0l0,0.147l0.077,-0l0,-0.218l-0.36,-0c-0.01,-0.033 -0.036,-0.083 -0.058,-0.12l-0.074,0.021Z" style="fill:#f00;fill-rule:nonzero;"/></g><g transform="matrix(141.876,-87.4576,87.4576,141.876,1050.88,1313.35)"><path d="M0.417,-0.786c0.027,0.043 0.058,0.102 0.074,0.136l0.06,-0.031c-0.015,-0.033 -0.048,-0.089 -0.076,-0.131l-0.058,0.026Zm0.418,-0.036c-0.019,0.044 -0.055,0.108 -0.083,0.147l0.052,0.025c0.03,-0.037 0.065,-0.093 0.098,-0.144l-0.067,-0.028Zm-0.217,-0.018l0,0.195l-0.238,0l0,0.063l0.191,0c-0.06,0.062 -0.145,0.121 -0.219,0.153c0.016,0.013 0.037,0.037 0.048,0.054c0.072,-0.037 0.156,-0.101 0.218,-0.169l0,0.162l0.071,0l0,-0.165c0.063,0.066 0.149,0.131 0.22,0.167c0.01,-0.017 0.032,-0.043 0.049,-0.056c-0.073,-0.03 -0.161,-0.087 -0.222,-0.146l0.198,0l-0,-0.063l-0.245,0l-0,-0.195l-0.071,-0Zm0.142,0.609c-0.02,0.058 -0.051,0.103 -0.095,0.139c-0.044,-0.016 -0.09,-0.033 -0.135,-0.048c0.018,-0.026 0.037,-0.058 0.056,-0.091l0.174,0Zm-0.334,0.121c0.058,0.019 0.116,0.039 0.171,0.06c-0.065,0.032 -0.149,0.052 -0.253,0.065c0.011,0.015 0.024,0.043 0.03,0.063c0.128,-0.02 0.228,-0.05 0.303,-0.096c0.079,0.032 0.149,0.065 0.202,0.094l0.052,-0.054c-0.052,-0.026 -0.119,-0.056 -0.194,-0.086c0.046,-0.044 0.079,-0.099 0.099,-0.167l0.108,0l-0,-0.065l-0.323,0c0.012,-0.024 0.023,-0.048 0.033,-0.071l-0.073,-0.014c-0.011,0.027 -0.024,0.056 -0.039,0.085l-0.183,0l-0,0.065l0.147,0c-0.027,0.045 -0.055,0.087 -0.08,0.121Zm-0.248,-0.73l-0,0.193l-0.122,0l-0,0.07l0.118,0c-0.027,0.136 -0.084,0.296 -0.142,0.38c0.013,0.018 0.031,0.051 0.04,0.073c0.039,-0.061 0.076,-0.158 0.106,-0.26l-0,0.463l0.069,0l-0,-0.523c0.026,0.048 0.055,0.106 0.068,0.137l0.046,-0.054c-0.016,-0.029 -0.089,-0.142 -0.114,-0.176l-0,-0.04l0.098,0l-0,-0.07l-0.098,0l-0,-0.193l-0.069,-0Z" style="fill:#f00;fill-rule:nonzero;"/></g></g><rect id="餐厅" x="228.123" y="1328.89" width="269.377" height="506.347" style="fill:#d1d1d1;"/><rect id="主院" x="1726.05" y="977.538" width="1023.71" height="457.462" style="fill:#d1d1d1;"/><path d="M2006.44,1174.19l0,15.354l83.417,0l-0,-15.354l-83.417,-0Zm0.688,72.187c-8.48,16.042 -21.771,33.688 -33.917,45.834c3.667,2.291 10.542,7.333 13.521,10.312c12.146,-13.291 26.354,-33.229 36.208,-50.875l-15.812,-5.271Zm65.083,5.959c10.771,15.354 22.917,35.75 28.417,48.354l15.583,-7.563c-5.729,-12.375 -18.333,-32.312 -29.333,-46.979l-14.667,6.188Zm-167.75,33l3.208,16.271c20.167,-5.271 46.521,-11.917 71.959,-18.334l-1.605,-14.666c-27.5,6.416 -55.229,13.062 -73.562,16.729Zm79.521,-68.979l-0,15.125l56.375,-0l-0,65.083c-0,2.292 -0.917,2.979 -3.896,3.208c-2.521,0.229 -12.146,0.229 -22.458,0c2.062,4.354 4.354,10.771 5.041,14.896c14.896,0.233 24.063,0.233 30.25,-2.292c6.188,-2.75 7.792,-6.875 7.792,-15.583l-0,-65.312l53.396,-0l-0,-15.125l-126.5,-0Zm48.125,-108.242c4.125,7.816 8.479,17.241 11.458,25.283l-56.146,0l0,38.5l16.271,0l0,-23.604l88.688,0l-0,23.604l16.958,0l-0,-38.5l-46.979,0c-2.75,-8.504 -8.25,-20.456 -13.979,-29.652l-16.271,4.369Zm-123.979,92.465c3.437,-1.604 8.937,-2.979 37.583,-6.65c-10.083,15.136 -19.479,27.289 -23.833,31.876c-6.875,8.483 -12.146,14.216 -17.188,15.132c2.063,3.9 4.583,11.699 5.271,14.907c4.583,-2.75 11.917,-4.816 66.917,-16.053c-0.459,-3.437 -0.459,-9.861 -0,-14.215l-43.313,7.795c17.417,-20.41 34.604,-45.862 49.271,-71.088l-13.521,-8.254c-4.354,8.483 -9.167,17.199 -14.208,25.223l-30.479,3.212c13.291,-19.723 26.583,-45.4 36.437,-69.982l-15.583,-7.125c-8.709,27.811 -24.75,57.846 -30.021,65.412c-4.813,7.796 -8.479,13.528 -12.604,14.216c2.062,4.358 4.583,12.156 5.271,15.594Z" style="fill:#f00;fill-rule:nonzero;"/><path d="M2241.8,1104.19c-23.375,35.567 -65.771,66.318 -109.312,83.517c4.812,3.896 9.625,10.541 12.375,15.125c11.916,-5.271 23.833,-11.459 35.291,-18.563l0,11.459l115.73,-0l-0,-15.355c11.916,7.563 24.291,14.209 37.354,20.396c2.521,-5.5 7.791,-11.687 12.146,-15.583c-36.438,-15.365 -68.98,-34.414 -95.792,-62.867l7.333,-10.327l-15.125,-7.802Zm-55,75.725c19.479,-12.848 37.584,-28.223 52.479,-45.207c17.417,18.359 35.75,32.818 55.688,45.207l-108.167,0Zm-18.562,43.313l-0,92.193l17.416,-0l0,-12.902l106.792,0l0,11.978l18.104,-0l0,-91.269l-142.312,-0Zm17.416,63.25l0,-47.667l106.792,-0l0,47.667l-106.792,-0Z" style="fill:#f00;fill-rule:nonzero;"/><path d="M2448.05,1117.29c6.188,9.875 13.292,23.425 16.959,31.234l13.75,-7.118c-3.438,-7.581 -11,-20.439 -17.417,-30.086l-13.292,5.97Zm95.792,-8.268c-4.354,10.104 -12.604,24.803 -19.021,33.762l11.917,5.74c6.875,-8.497 14.896,-21.359 22.458,-33.071l-15.354,-6.431Zm-49.729,-4.133l-0,44.781l-54.542,0l0,14.438l43.771,-0c-13.75,14.219 -33.229,27.75 -50.188,35.087c3.667,2.983 8.48,8.486 11,12.386c16.5,-8.486 35.75,-23.164 49.959,-38.758l-0,37.15l16.271,0l-0,-37.837c14.437,15.135 34.145,30.042 50.416,38.299c2.292,-3.899 7.334,-9.861 11.229,-12.844c-16.729,-6.879 -36.895,-19.952 -50.875,-33.483l45.375,-0l0,-14.438l-56.145,0l-0,-44.781l-16.271,0Zm32.541,139.656c-4.583,13.313 -11.687,23.64 -21.77,31.901c-10.084,-3.67 -20.625,-7.573 -30.938,-11.015c4.125,-5.965 8.479,-13.309 12.833,-20.886l39.875,0Zm-76.541,27.772c13.291,4.358 26.583,8.948 39.187,13.768c-14.896,7.344 -34.146,11.935 -57.979,14.917c2.521,3.441 5.5,9.869 6.875,14.459c29.333,-4.59 52.25,-11.476 69.438,-22.032c18.104,7.344 34.145,14.917 46.291,21.574l11.917,-12.393c-11.917,-5.969 -27.271,-12.851 -44.458,-19.737c10.541,-10.097 18.104,-22.72 22.687,-38.328l24.75,0l0,-14.896l-74.021,0c2.75,-5.5 5.271,-11 7.563,-16.271l-16.729,-3.208c-2.521,6.188 -5.5,12.833 -8.938,19.479l-41.937,0l-0,14.896l33.687,0c-6.187,10.33 -12.604,19.97 -18.333,27.772Zm-56.834,-167.428l0,44.323l-27.958,-0l0,16.041l27.042,0c-6.188,31.192 -19.25,67.884 -32.542,87.148c2.979,4.129 7.104,11.695 9.167,16.74c8.937,-13.99 17.416,-36.233 24.291,-59.626l0,106.183l15.813,-0l-0,-119.94c5.958,11.007 12.604,24.306 15.583,31.417l10.542,-12.386c-3.667,-6.649 -20.396,-32.563 -26.125,-40.362l-0,-9.174l22.458,0l0,-16.041l-22.458,-0l-0,-44.323l-15.813,0Z" style="fill:#f00;fill-rule:nonzero;"/><g transform="matrix(1,0,0,1,-12.4318,-13.0613)"><g transform="matrix(229.167,0,0,229.167,265.94,1571.75)"><path d="M0.152,-0.566c0.024,0.014 0.052,0.033 0.075,0.05c-0.055,0.031 -0.115,0.055 -0.172,0.07c0.014,0.012 0.031,0.035 0.038,0.05c0.149,-0.045 0.308,-0.137 0.38,-0.277l-0.043,-0.024l-0.013,0.003l-0.09,0l0,-0.048l0.174,0l0,-0.05l-0.174,0l0,-0.048l-0.066,-0l0,0.146l-0.018,0l0.013,-0.021l-0.061,-0.011c-0.03,0.048 -0.083,0.104 -0.157,0.146c0.014,0.008 0.033,0.026 0.044,0.04c0.051,-0.032 0.092,-0.068 0.125,-0.107l0.175,0c-0.027,0.037 -0.064,0.071 -0.106,0.1c-0.024,-0.018 -0.056,-0.038 -0.083,-0.052l-0.041,0.033Zm0.388,-0.1c0.04,0.019 0.083,0.042 0.125,0.066c-0.034,0.02 -0.07,0.036 -0.106,0.047c0.013,0.013 0.031,0.037 0.039,0.054c0.044,-0.016 0.087,-0.038 0.128,-0.065c0.055,0.036 0.105,0.072 0.138,0.102l0.047,-0.049c-0.033,-0.028 -0.08,-0.061 -0.132,-0.093c0.053,-0.047 0.097,-0.105 0.123,-0.175l-0.043,-0.019l-0.007,0.002l-0.311,0l-0,0.056l0.272,0c-0.023,0.038 -0.055,0.073 -0.092,0.102c-0.047,-0.026 -0.094,-0.05 -0.138,-0.07l-0.043,0.042Zm0.161,0.452l-0,0.052l-0.395,0l-0,-0.052l0.395,0Zm-0,-0.042l-0.395,0l-0,-0.051l0.395,0l-0,0.051Zm-0.258,-0.154c0.014,0.017 0.03,0.038 0.043,0.057l-0.189,0c0.075,-0.037 0.145,-0.081 0.202,-0.131c0.061,0.05 0.14,0.095 0.225,0.131l-0.165,0c-0.014,-0.024 -0.036,-0.052 -0.056,-0.073l-0.06,0.016Zm-0.229,0.486c0.019,-0.01 0.052,-0.015 0.309,-0.055c-0,-0.014 0.004,-0.04 0.007,-0.056l-0.224,0.031l-0,-0.111l0.21,0l-0.034,0.039c0.125,0.042 0.286,0.108 0.368,0.153l0.041,-0.05c-0.035,-0.018 -0.081,-0.039 -0.132,-0.059c0.038,-0.026 0.079,-0.059 0.115,-0.089l-0.055,-0.035c-0.028,0.029 -0.075,0.07 -0.116,0.101c-0.058,-0.022 -0.117,-0.043 -0.17,-0.06l0.24,0l0,-0.218c0.05,0.019 0.101,0.035 0.15,0.046c0.009,-0.018 0.029,-0.045 0.044,-0.059c-0.153,-0.03 -0.328,-0.097 -0.427,-0.177l0.02,-0.022l-0.059,-0.031c-0.094,0.113 -0.281,0.201 -0.457,0.246c0.016,0.016 0.034,0.041 0.044,0.059c0.049,-0.015 0.097,-0.032 0.145,-0.052l0,0.28c0,0.04 -0.028,0.055 -0.046,0.062c0.011,0.014 0.023,0.041 0.027,0.057Z" style="fill:#f00;fill-rule:nonzero;"/></g><g transform="matrix(229.167,0,0,229.167,265.94,1800.91)"><path d="M0.126,-0.778l0,0.341c0,0.144 -0.006,0.333 -0.092,0.466c0.018,0.008 0.05,0.033 0.063,0.047c0.091,-0.142 0.105,-0.358 0.105,-0.513l0,-0.268l0.751,0l0,-0.073l-0.827,0Zm0.132,0.228l0,0.072l0.324,0l-0,0.458c-0,0.018 -0.006,0.022 -0.026,0.023c-0.02,0.001 -0.091,0.001 -0.164,-0.001c0.011,0.021 0.024,0.053 0.028,0.075c0.094,0 0.155,-0.001 0.191,-0.013c0.037,-0.011 0.048,-0.034 0.048,-0.083l0,-0.459l0.273,0l0,-0.072l-0.674,0Z" style="fill:#f00;fill-rule:nonzero;"/></g></g></g><path d="M614.229,30.241c6.188,10.563 13.979,24.771 17.646,33.709l13.979,-6.875c-3.437,-8.709 -11.458,-22 -17.875,-32.596l-13.75,5.762Zm91.667,48.375l65.542,0l-0,25.209l-65.542,-0l-0,-25.209Zm-15.354,-13.979l-0,53.167l96.937,-0l0,-53.167l-96.937,0Zm-13.063,-30.25l0,14.896l122.146,-0l0,-14.896l-122.146,0Zm51.792,112.521l-0,23.833l-34.833,0l-0,-23.833l34.833,-0Zm15.583,-0l36.667,-0l-0,23.833l-36.667,0l0,-23.833Zm-15.583,37.354l-0,24.521l-34.833,-0l-0,-24.521l34.833,0Zm15.583,0l36.667,0l-0,24.521l-36.667,-0l0,-24.521Zm-148.5,-118.021l0,15.584l57.979,-0c-14.437,30.479 -41.02,59.354 -66.229,75.854c2.75,2.979 7.104,11 8.938,15.583c10.312,-7.333 20.625,-16.5 30.708,-27.042l0,87.374l16.729,-0l0,-99.061c8.479,8.708 19.479,20.396 24.292,26.583l9.625,-13.291l-0,86.231l16.042,-0l-0,-10.836l87.083,0l-0,10.145l16.5,-0l-0,-100.665l-119.625,-0l-0,13.979c-4.813,-4.813 -21.313,-19.709 -29.333,-26.354c10.77,-14.896 20.166,-31.396 26.583,-48.584l-9.396,-6.187l-3.208,0.687l-66.688,0Z" style="fill:#00f;fill-rule:nonzero;"/><path d="M1623.48,122.387l70.125,0l0,20.167l-70.125,-0l0,-20.167Zm0,-32.542l70.125,0l0,19.709l-70.125,-0l0,-19.709Zm-7.333,78.834c-6.875,15.354 -16.958,31.396 -27.5,42.625c3.896,2.291 10.542,6.416 13.75,8.937c10.083,-11.916 21.542,-30.479 29.104,-47.208l-15.354,-4.354Zm64.854,3.896c9.167,14.666 20.167,33.916 25.208,45.375l15.813,-7.105c-5.5,-11 -16.958,-30.02 -26.125,-44l-14.896,5.73Zm-160.646,-134.98c12.604,8.021 29.792,19.25 38.271,26.355l10.313,-13.75c-8.938,-6.646 -26.125,-17.195 -38.5,-24.568l-10.084,11.963Zm-11.229,61.875c12.833,7.105 30.021,18.105 38.729,24.521l10.084,-13.75c-8.938,-6.416 -26.355,-16.271 -38.959,-22.916l-9.854,12.145Zm4.813,121.688l15.354,9.625c11,-21.542 23.833,-49.958 33.229,-74.25l-13.75,-9.625c-10.313,26.125 -24.75,56.375 -34.833,74.25Zm63.937,-186.771l0,62.792c0,37.812 -2.521,89.833 -28.417,126.729c3.896,1.833 11.23,6.187 14.209,9.167c27.271,-38.5 30.937,-95.792 30.937,-135.896l0,-47.209l123.75,0l0,-15.583l-140.479,0Zm71.5,18.792c-1.375,6.646 -4.125,16.041 -6.646,23.375l-34.833,-0l-0,79.291l41.25,0l-0,59.813c-0,2.521 -0.917,3.437 -3.667,3.667c-2.979,-0 -13.062,-0 -23.833,-0.23c2.062,4.355 4.125,10.542 4.812,14.667c15.125,0.233 25.209,0.233 31.396,-2.292c6.188,-2.52 7.792,-6.875 7.792,-15.354l-0,-60.271l44,0l-0,-79.291l-50.188,-0c2.98,-5.959 5.959,-12.834 8.938,-19.479l-19.021,-3.896Z" style="fill:#00f;fill-rule:nonzero;"/><path d="M2576.12,36.679l0,15.354l57.75,-0l0,-15.354l-57.75,-0Zm-111.146,-13.589c-8.25,15.651 -25.208,34.679 -40.791,46.145c2.75,3.208 7.333,9.399 9.395,12.84c17.417,-13.299 35.98,-34.396 47.209,-53.224l-15.813,-5.761Zm53.625,-0l0,28.943l-30.479,-0l0,14.896l30.479,-0l0,30.708l-35.062,0l-0,15.354l86.396,0l-0,-15.354l-35.063,0l0,-30.708l30.938,-0l-0,-14.896l-30.938,-0l0,-28.961l-16.271,0.018Zm55.459,75.005l-0,15.584l24.52,-0l0,99.229c0,2.979 -0.916,3.896 -4.354,4.125c-3.437,0.229 -14.208,-0 -27.041,-0.229c2.291,5.041 4.583,12.375 5.27,17.187c16.5,0 27.73,-0.229 34.375,-3.208c6.875,-2.75 8.709,-7.792 8.709,-17.875l-0,-99.229l21.541,-0l0,-15.584l-63.02,0Zm-95.563,103.412l2.063,16.063c25.208,-3.212 60.27,-7.573 93.958,-12.16l-0.458,-15.147l-39.188,4.82l0,-33.967l33.458,0l0,-15.125l-33.458,0l0,-28.187l-16.5,-0l0,28.187l-33.458,0l-0,15.125l33.458,0l0,35.8l-39.875,4.591Zm-6.646,-132.322c-11.687,25.469 -31.166,49.765 -51.104,66.035c3.438,3.438 8.25,11.459 10.313,14.896c6.875,-5.958 13.75,-13.062 20.395,-20.854l0,105.062l15.813,0l-0,-125.687c7.562,-11 14.437,-22.702 19.937,-34.174l-15.354,-5.278Z" style="fill:#00f;fill-rule:nonzero;"/><g transform="matrix(1,0,0,1,3.10412e-13,-349.992)"><g transform="matrix(229.167,0,0,229.167,3258.2,869.087)"><path d="M0.593,-0.721l0,0.552l0.073,-0l0,-0.552l-0.073,-0Zm0.245,-0.1l0,0.801c0,0.019 -0.007,0.025 -0.026,0.026c-0.02,-0 -0.082,0.001 -0.153,-0.001c0.011,0.021 0.023,0.055 0.028,0.076c0.092,-0 0.148,-0.002 0.181,-0.014c0.031,-0.013 0.045,-0.035 0.045,-0.087l0,-0.801l-0.075,-0Zm-0.38,-0.013c-0.094,0.041 -0.268,0.076 -0.416,0.097c0.01,0.016 0.02,0.041 0.024,0.059c0.062,-0.008 0.128,-0.018 0.193,-0.031l0,0.17l-0.209,-0l0,0.07l0.193,-0c-0.048,0.125 -0.136,0.264 -0.216,0.339c0.013,0.019 0.033,0.05 0.041,0.071c0.068,-0.068 0.138,-0.182 0.191,-0.296l0,0.433l0.074,-0l0,-0.396c0.051,0.048 0.116,0.112 0.146,0.145l0.043,-0.063c-0.029,-0.026 -0.142,-0.124 -0.189,-0.16l0,-0.073l0.193,-0l0,-0.07l-0.193,-0l0,-0.185c0.068,-0.015 0.131,-0.033 0.181,-0.053l-0.056,-0.057Z" style="fill:#00f;fill-rule:nonzero;"/></g><g transform="matrix(229.167,0,0,229.167,3258.2,1427.42)"><path d="M0.107,0.085c0.025,-0.016 0.064,-0.027 0.367,-0.117c-0.004,-0.017 -0.009,-0.05 -0.009,-0.07l-0.272,0.076l0,-0.248l0.303,0c0.058,0.201 0.174,0.344 0.309,0.343c0.073,0 0.104,-0.039 0.116,-0.186c-0.02,-0.006 -0.049,-0.021 -0.066,-0.036c-0.006,0.106 -0.016,0.147 -0.047,0.148c-0.088,0.001 -0.18,-0.108 -0.233,-0.269l0.328,0l0,-0.071l-0.347,0c-0.011,-0.048 -0.019,-0.099 -0.022,-0.153l0.295,0l0,-0.29l-0.713,0l0,0.731c0,0.042 -0.027,0.064 -0.045,0.074c0.012,0.016 0.03,0.048 0.036,0.068Zm0.371,-0.43l-0.285,0l0,-0.153l0.265,0c0.003,0.053 0.01,0.104 0.02,0.153Zm-0.285,-0.373l0.56,0l0,0.15l-0.56,-0l0,-0.15Z" style="fill:#00f;fill-rule:nonzero;"/></g><g transform="matrix(229.167,0,0,229.167,3258.2,1985.75)"><path d="M0.156,-0.732l0.189,0l0,0.176l-0.189,0l0,-0.176Zm-0.118,0.69l0.013,0.073c0.106,-0.025 0.25,-0.06 0.387,-0.095l-0.007,-0.067l-0.132,0.031l0,-0.179l0.106,-0c0.014,0.014 0.028,0.035 0.036,0.05c0.02,-0.009 0.04,-0.018 0.06,-0.029l0,0.336l0.07,0l0,-0.037l0.252,-0l0,0.034l0.071,0l0,-0.331l0.032,0.015c0.011,-0.02 0.032,-0.049 0.047,-0.063c-0.091,-0.034 -0.167,-0.087 -0.23,-0.148c0.064,-0.075 0.115,-0.164 0.148,-0.268l-0.047,-0.021l-0.014,0.003l-0.194,0c0.012,-0.028 0.022,-0.056 0.032,-0.085l-0.071,-0.018c-0.038,0.121 -0.104,0.235 -0.183,0.309l0,-0.266l-0.325,0l0,0.308l0.142,0l0,0.406l-0.078,0.018l0,-0.33l-0.064,0l0,0.344l-0.051,0.01Zm0.533,0.017l0,-0.193l0.252,0l0,0.193l-0.252,-0Zm0.226,-0.647c-0.026,0.062 -0.061,0.118 -0.102,0.168c-0.042,-0.049 -0.075,-0.101 -0.099,-0.151l0.009,-0.017l0.192,0Zm-0.251,0.389c0.053,-0.033 0.105,-0.072 0.151,-0.119c0.043,0.044 0.092,0.085 0.148,0.119l-0.299,0Zm0.104,-0.171c-0.067,0.068 -0.146,0.121 -0.226,0.156l-0,-0.048l-0.125,0l-0,-0.144l0.115,0l0,-0.032c0.017,0.012 0.042,0.033 0.053,0.045c0.032,-0.032 0.063,-0.071 0.091,-0.115c0.025,0.045 0.055,0.092 0.092,0.138Z" style="fill:#00f;fill-rule:nonzero;"/></g></g><path d="M928.21,1663.94c-0.917,0.611 -1.834,1.146 -2.75,1.604c-1.222,0.306 -2.521,1.757 -3.896,4.354l-29.104,39.875c22.153,15.278 34.069,31.931 35.75,49.959c-1.07,24.444 -10.618,37.278 -28.646,38.5c-0.611,-0.306 -1.222,-1.757 -1.833,-4.354c-2.139,-8.403 -6.57,-13.216 -13.292,-14.438c-2.292,-0.458 -3.514,-1.146 -3.667,-2.062c0.306,-0.764 1.604,-0.917 3.896,-0.459c13.445,2.292 21.007,-4.889 22.688,-21.541c0.305,-15.889 -6.188,-31.091 -19.48,-45.605l11.688,-49.958l-21.313,0l0,181.5c-0.152,2.139 -3.284,3.972 -9.395,5.5c-8.098,1.681 -13.216,1.833 -15.355,0.458c-0.611,-0.916 -0.687,-4.354 -0.229,-10.312c0.764,-9.778 1.146,-18.868 1.146,-27.271l0,-164.312c3.972,0.152 12.299,3.361 24.979,9.625l17.875,-0c3.361,-5.5 5.118,-8.403 5.271,-8.709c1.681,-3.208 3.972,-3.59 6.875,-1.146c6.722,4.278 12.986,8.632 18.792,13.063c0.153,0.153 0.458,0.382 0.916,0.687c3.056,1.375 2.75,3.056 -0.916,5.042Zm108.854,174.167c-5.042,8.861 -15.049,13.139 -30.021,12.833c-0.305,-0.611 -0.84,-1.68 -1.604,-3.208c-2.75,-8.709 -8.632,-14.056 -17.646,-16.042c-2.444,-0.611 -3.667,-1.451 -3.667,-2.521c0.306,-0.764 1.757,-0.84 4.355,-0.229c13.291,2.903 21.083,2.368 23.375,-1.604l-0,-109.542l-23.146,0c-0.306,0 -5.271,0.229 -14.896,0.688l-4.813,-6.417c4.889,0.611 7.487,0.917 7.792,0.917l35.063,-0l-0,-57.979l-0.917,-11.688c-0,0 0.076,-0.153 0.229,-0.458c0.306,-0.459 0.535,-0.688 0.688,-0.688c1.069,0.153 2.75,0.306 5.041,0.459c11.459,0.916 19.403,2.215 23.834,3.895c1.069,0.612 1.298,1.681 0.687,3.209c-0.917,1.528 -2.75,3.285 -5.5,5.271l0,51.333c3.514,-4.125 6.34,-7.333 8.479,-9.625c0.611,-0.611 1.604,-0.611 2.979,-0c9.625,4.889 17.264,10.618 22.917,17.187c1.528,1.987 1.146,3.285 -1.146,3.896l-33.229,0l0,91.896c0,3.667 0.229,9.778 0.688,18.333c0.305,5.348 0.458,8.709 0.458,10.084Zm-81.583,-193.646c0.152,-0 4.354,1.528 12.604,4.583c8.097,3.056 12.222,4.66 12.375,4.813c2.444,1.069 3.666,2.139 3.666,3.208c-0.152,1.07 -1.604,2.139 -4.354,3.208c-0.611,0.153 -1.375,0.382 -2.291,0.688c-2.445,0.306 -4.125,1.833 -5.042,4.583c-4.431,9.778 -9.09,18.486 -13.979,26.125c3.819,1.681 6.875,3.591 9.166,5.729c0.612,0.764 0.535,1.834 -0.229,3.209c-0.764,1.069 -2.521,2.521 -5.271,4.354c-0.152,0.153 -0.229,0.229 -0.229,0.229l0,103.583c0,6.264 0.077,14.744 0.229,25.438l0,9.396c-0.305,2.291 -3.743,4.354 -10.312,6.187c-7.028,1.528 -11.153,1.299 -12.375,-0.687c-0.458,-1.222 -0.535,-3.743 -0.229,-7.563c0.764,-8.708 1.146,-18.104 1.146,-28.187l-0,-95.104c-4.736,5.652 -9.473,10.694 -14.209,15.125c-2.291,1.986 -3.666,2.826 -4.125,2.52c-0.458,-0.305 0.077,-1.756 1.604,-4.354c10.695,-18.027 19.098,-45.909 25.209,-83.646c0.153,-2.444 0.611,-3.819 1.375,-4.125c0.611,-0.458 2.368,-0.229 5.271,0.688Zm20.166,94.417c12.07,3.514 20.473,9.777 25.209,18.791c3.208,7.792 2.368,14.514 -2.521,20.167c-5.959,5.347 -11.688,5.576 -17.188,0.687c-2.597,-2.597 -3.514,-8.708 -2.75,-18.333c0.611,-10.542 -0.84,-16.729 -4.354,-18.562c-1.222,-0.764 -1.68,-1.452 -1.375,-2.063c0.458,-0.764 1.452,-0.993 2.979,-0.687Z" style="fill-rule:nonzero;"/><path d="M1167.92,1719.4l61.188,0c4.736,-6.416 9.243,-11.763 13.52,-16.041c0.459,-0.459 1.375,-0.459 2.75,-0l0.23,-0c8.402,5.194 15.125,10.923 20.166,17.187c1.07,1.834 0.764,3.056 -0.916,3.667l-85.021,-0c-0.306,-0 -5.347,0.229 -15.125,0.687l-4.584,-6.416c4.889,0.611 7.487,0.916 7.792,0.916Zm-19.937,-52.708l-30.938,45.604c22,16.195 33.306,34.146 33.917,53.854c-0.917,20.014 -10.084,32.237 -27.5,36.667c-1.375,0 -2.368,-0.535 -2.979,-1.604c-2.445,-10.542 -7.334,-17.264 -14.667,-20.167c-1.069,-1.222 -0.993,-2.139 0.229,-2.75c14.361,2.445 22,-3.59 22.917,-18.104c-0.306,-18.333 -5.882,-33.458 -16.729,-45.375l9.395,-52.708l-21.541,-0l-0,186.312c-0.611,3.514 -4.736,6.111 -12.375,7.792c-6.722,0.764 -10.16,-0.611 -10.313,-4.125c0,-3.056 0.229,-10.313 0.688,-21.771c0.458,-13.139 0.687,-21.771 0.687,-25.896l0,-156.521c8.709,2.292 15.813,5.5 21.313,9.625l21.541,0l0,-0.229c0.153,-0.305 0.382,-0.764 0.688,-1.375c1.681,-3.666 2.979,-6.264 3.896,-7.791c0.611,-0.764 1.757,-0.917 3.437,-0.459c9.167,3.361 17.799,7.486 25.896,12.375c0.917,1.223 0.917,2.292 0,3.209c-1.222,0.916 -3.743,2.062 -7.562,3.437Zm90.75,154.688c-0.306,5.805 2.979,8.479 9.854,8.02l9.166,0c14.82,1.834 25.132,-10.312 30.938,-36.437c0.153,-0.764 0.535,-1.069 1.146,-0.917c0.764,0.306 1.146,0.764 1.146,1.375c-2.598,16.5 -1.299,26.889 3.895,31.167c2.292,3.819 3.438,6.951 3.438,9.396c-1.222,10.389 -10.007,16.041 -26.354,16.958l-37.125,0c-11.459,-0.305 -17.34,-5.271 -17.646,-14.896l-0,-73.562l-8.479,-0c-0.764,1.069 -2.063,2.139 -3.896,3.208c-2.139,1.528 -3.361,3.056 -3.667,4.583c-0.916,51.181 -29.18,78.299 -84.791,81.355c-0.611,-0 -0.993,-0.306 -1.146,-0.917c-0.153,-0.611 0.076,-0.993 0.687,-1.146c39.723,-7.944 59.966,-34.986 60.729,-81.125l0,-5.958l-1.604,-0c-0.305,-0 -5.271,0.229 -14.896,0.687l-4.812,-6.416c5.042,0.611 7.715,0.916 8.021,0.916l85.021,0c3.666,-5.347 8.173,-10.694 13.52,-16.041c0.459,-0.459 1.375,-0.459 2.75,-0l0.23,-0c8.402,5.194 15.125,10.923 20.166,17.187c1.07,1.833 0.764,3.056 -0.916,3.667l-38.5,-0c-0,0.764 -0.535,1.604 -1.605,2.521c-0.458,0.305 -1.145,0.764 -2.062,1.375c-2.292,1.527 -3.361,2.597 -3.208,3.208l-0,51.792Zm-50.875,-181.5c22.152,1.68 35.52,8.632 40.104,20.854c1.986,11 -2.597,17.798 -13.75,20.396l46.062,-0c2.445,-3.361 4.584,-6.111 6.417,-8.25c0.764,-0.611 1.833,-0.764 3.208,-0.459c8.556,5.653 17.111,12.834 25.667,21.542c0.306,1.986 -0.306,3.743 -1.833,5.271c-0.459,0.153 -3.209,-0.153 -8.25,-0.917c-4.584,-0.764 -7.41,-1.146 -8.48,-1.146c-4.277,1.223 -9.854,3.591 -16.729,7.104c-1.222,0.764 -2.215,1.299 -2.979,1.605c-1.68,0.152 -2.444,-0.688 -2.292,-2.521c1.223,-2.292 2.598,-5.424 4.125,-9.396c1.223,-3.361 2.292,-6.035 3.209,-8.021l-93.271,0c0.764,8.097 -1.146,14.972 -5.729,20.625c-4.736,5.195 -10.542,6.417 -17.417,3.667c-6.417,-3.514 -8.479,-8.403 -6.187,-14.667c0.764,-1.833 2.902,-4.048 6.416,-6.646c7.945,-5.958 12.375,-13.368 13.292,-22.229c0.458,-1.222 1.222,-1.451 2.292,-0.687c3.361,4.889 5.576,9.93 6.645,15.125l41.48,-0c-3.973,-0.611 -6.723,-2.368 -8.25,-5.271c-0.917,-1.528 -1.528,-4.66 -1.834,-9.396c-0.764,-11.611 -4.965,-19.708 -12.604,-24.292c-0.764,-0.916 -0.535,-1.68 0.688,-2.291Z" style="fill-rule:nonzero;"/><path d="M1465.61,1647.9l-0,4.355c-22.764,26.43 -34.681,58.361 -35.75,95.791c-1.834,28.723 10.083,60.653 35.75,95.792l-0,4.583c-40.181,-28.569 -60.195,-62.027 -60.042,-100.375c1.375,-38.805 21.389,-72.187 60.042,-100.146Z" style="fill-rule:nonzero;"/><path d="M1681.25,1753.77l15.813,-22.458l-70.813,0c-0.305,0 -5.27,0.229 -14.895,0.688l-4.813,-6.188c4.889,0.611 7.486,0.917 7.792,0.917l80.208,-0c1.07,-1.375 2.674,-3.209 4.813,-5.5c1.069,-1.07 1.909,-1.91 2.52,-2.521c1.528,-2.292 4.355,-2.063 8.48,0.687c6.722,3.973 12.909,7.945 18.562,11.917c2.903,1.986 4.354,3.438 4.354,4.354c0,0.917 -1.375,1.528 -4.125,1.834l-0.229,-0c-3.667,-0.153 -6.417,0.534 -8.25,2.062c-0.917,0.306 -2.292,0.84 -4.125,1.604c-14.361,5.348 -25.514,9.702 -33.458,13.063c1.833,0.458 3.208,0.993 4.125,1.604c1.222,0.458 1.451,1.375 0.687,2.75c-0.152,0.306 -0.229,0.535 -0.229,0.687c-0.458,0.764 -1.833,1.681 -4.125,2.75c-0.458,0.153 -0.764,0.306 -0.917,0.459l0,14.208l29.334,0c1.222,-1.375 3.132,-3.819 5.729,-7.333c4.583,-5.806 7.792,-9.549 9.625,-11.229c0.917,-0.459 1.91,-0.459 2.979,-0c14.514,8.555 23.222,15.048 26.125,19.479c0.306,2.139 -0.382,3.437 -2.062,3.896l-71.73,-0l0,36.208c0,3.667 0.153,9.09 0.459,16.271c0.305,4.583 0.458,7.715 0.458,9.396c-4.889,8.555 -14.743,12.604 -29.562,12.145c-0.611,-0.611 -1.528,-2.291 -2.75,-5.041c-3.361,-9.014 -9.091,-14.59 -17.188,-16.729c-2.903,-0.764 -4.43,-1.528 -4.583,-2.292c0.305,-0.611 1.91,-0.688 4.812,-0.229c15.736,2.75 23.91,2.444 24.521,-0.917l0,-48.812l-46.75,-0c-0.305,-0 -5.347,0.229 -15.125,0.687l-4.583,-6.417c4.889,0.612 7.486,0.917 7.791,0.917l58.667,0l0,-26.125c8.861,0.764 16.347,1.833 22.458,3.208Zm-90.062,-92.583c1.375,6.57 -0.229,12.07 -4.813,16.5c-4.888,3.82 -9.854,4.049 -14.895,0.688c-2.903,-2.292 -5.271,-8.403 -7.105,-18.334c-1.527,-9.014 -3.666,-13.673 -6.416,-13.979c-2.139,-0.305 -3.285,-0.84 -3.438,-1.604c0.153,-0.764 1.375,-1.222 3.667,-1.375c17.417,-0.153 28.417,5.882 33,18.104Zm-18.333,63.021c0.764,6.264 -1.452,11.229 -6.646,14.896c-5.347,3.055 -10.236,2.673 -14.667,-1.146c-2.292,-1.986 -3.819,-7.333 -4.583,-16.042c-0.917,-9.777 -2.979,-15.277 -6.188,-16.5c-1.68,-0.764 -2.521,-1.375 -2.521,-1.833c0.153,-0.458 1.07,-0.764 2.75,-0.917c18.181,-0.611 28.799,6.57 31.855,21.542Zm-26.584,64.625c5.348,14.208 18.563,-9.396 39.646,-70.813c5.195,-13.75 9.396,-24.75 12.604,-33c1.681,-4.43 2.827,-6.722 3.438,-6.875c0.458,0.306 0.153,2.674 -0.917,7.105c-13.75,55.611 -20.778,92.43 -21.083,110.458c-0.153,5.653 1.757,13.674 5.729,24.062c2.903,7.945 4.354,13.521 4.354,16.73c-0.611,9.166 -5.958,14.208 -16.042,15.125c-9.625,-0.764 -14.819,-5.806 -15.583,-15.125l0,-8.021c0.764,-23.222 -3.285,-35.597 -12.146,-37.125c-2.597,-0.764 -3.972,-1.528 -4.125,-2.292c0.153,-0.764 1.528,-0.84 4.125,-0.229Zm65.084,-121.458c33.458,-5.653 65.77,-14.82 96.937,-27.5c0.153,-0.153 0.382,-0.306 0.688,-0.459c2.444,-1.833 5.347,-1.222 8.708,1.834c2.597,1.986 7.333,5.958 14.208,11.916c1.986,1.681 3.438,2.903 4.354,3.667c2.445,2.292 3.667,3.819 3.667,4.583c0.153,0.764 -0.993,1.146 -3.437,1.146c-0,0 -0.535,0.077 -1.605,0.229c-55.305,5.348 -96.479,7.563 -123.52,6.646c-3.361,-0.153 -5.042,-0.382 -5.042,-0.687c-0,-0.459 1.681,-0.917 5.042,-1.375Zm9.625,48.812c-2.292,-2.292 -3.438,-7.333 -3.438,-15.125c-0.153,-7.944 -1.528,-12.68 -4.125,-14.208c-1.986,-1.222 -2.903,-2.139 -2.75,-2.75c0,-0.611 1.07,-0.917 3.208,-0.917c15.278,0.764 24.598,7.104 27.959,19.021c1.069,6.722 -0.764,11.84 -5.5,15.354c-5.5,3.208 -10.618,2.75 -15.354,-1.375Zm37.354,-38.5c14.055,4.431 22.153,11.993 24.291,22.688c1.07,7.18 -1.298,12.375 -7.104,15.583c-6.416,2.444 -11.611,0.84 -15.583,-4.813c-1.222,-1.833 -1.604,-6.34 -1.146,-13.52c0.764,-9.473 -0.153,-15.202 -2.75,-17.188c-1.986,-1.528 -2.75,-2.597 -2.292,-3.208c0.459,-0.459 1.987,-0.306 4.584,0.458Zm36.896,39.646c3.055,-7.486 7.486,-19.479 13.291,-35.979c0.917,-2.445 1.375,-3.667 1.375,-3.667c0.611,-3.514 2.827,-4.278 6.646,-2.292c5.5,2.292 12.452,5.424 20.854,9.396c1.834,0.764 2.598,1.528 2.292,2.292c-0.306,0.917 -1.604,1.833 -3.896,2.75c-1.222,0.458 -2.292,0.764 -3.208,0.917c-0.917,-0.153 -2.063,0.458 -3.438,1.833c-4.736,3.361 -12.069,9.472 -22,18.333c-4.277,3.82 -7.333,6.493 -9.166,8.021c-1.528,1.375 -2.598,1.91 -3.209,1.604c-0.458,-0.305 -0.305,-1.375 0.459,-3.208Z" style="fill-rule:nonzero;"/><path d="M1959.46,1836.27l-90.521,0l-0,16.73c-1.375,2.75 -5.424,4.354 -12.146,4.812c-4.583,0 -6.875,-1.604 -6.875,-4.812l0,-190.896l-1.604,-13.292c0.306,-0.764 0.611,-1.146 0.917,-1.146c9.319,1.834 18.027,4.966 26.125,9.396l-0,0.458l77,0c0.611,-0.611 1.527,-1.68 2.75,-3.208c2.902,-3.667 5.194,-5.805 6.875,-6.417c0.916,-0.305 1.833,-0.305 2.75,0c7.791,2.445 14.819,6.494 21.083,12.146c0.917,0.917 0.917,2.063 -0,3.438c-0.306,0.764 -1.604,1.757 -3.896,2.979c-0.458,0.153 -0.764,0.306 -0.917,0.458l2.521,184.021c-1.222,3.361 -6.111,5.271 -14.666,5.729c-6.111,0 -9.243,-1.909 -9.396,-5.729l-0,-14.667Zm-90.521,-4.583l90.521,0l-0,-169.583l-86.396,-0c-1.375,1.222 -2.75,2.062 -4.125,2.521l-0,167.062Zm46.979,-74.479c20.167,7.486 32.465,16.806 36.896,27.958c1.833,7.945 -0.382,13.75 -6.646,17.417c-7.028,2.597 -11.993,0.229 -14.896,-7.104c-0.458,-1.222 -0.916,-3.285 -1.375,-6.188c-1.069,-10.541 -6.264,-19.326 -15.583,-26.354c-5.042,18.639 -15.889,34.757 -32.542,48.354c-2.291,0.611 -3.284,-0.152 -2.979,-2.291c13.597,-18.028 20.396,-45.452 20.396,-82.271l-3.208,-0c-0.306,-0 -5.348,0.229 -15.125,0.687l-4.584,-6.416c4.889,0.611 7.486,0.916 7.792,0.916l15.125,0c0.153,-2.291 0.229,-4.812 0.229,-7.562l0,-33.459l-1.146,-11l0,-0.229l0,0.229c0,0 0.077,-0.076 0.229,-0.229c0.306,-0.458 0.535,-0.687 0.688,-0.687c9.778,1.222 18.639,3.055 26.583,5.5c0.764,0.764 0.764,1.986 0,3.666c-0.458,0.764 -1.757,1.528 -3.896,2.292c-0.611,0.153 -0.993,0.306 -1.145,0.458l-0,19.25c-0,7.945 -0.153,15.202 -0.459,21.771l5.959,0c3.972,-5.805 7.257,-9.93 9.854,-12.375c0.916,-0.764 1.833,-0.764 2.75,0c5.805,4.278 10.923,8.861 15.354,13.75c1.069,1.986 0.458,3.132 -1.833,3.438l-32.313,-0c-0.764,10.694 -2.139,20.854 -4.125,30.479Zm-70.812,-58.208c-0.611,0.305 -1.757,0.458 -3.438,0.458c-1.222,-0 -2.062,0.076 -2.521,0.229c-5.805,4.889 -13.444,9.854 -22.916,14.896l-0,38.271c-0,9.778 -0.688,18.944 -2.063,27.5c15.736,1.68 25.667,7.868 29.792,18.562c1.986,7.792 -0.153,13.521 -6.417,17.188c-7.028,2.597 -11.993,0.305 -14.896,-6.875c-0.611,-1.834 -1.069,-4.507 -1.375,-8.021c-0.152,-6.875 -2.673,-12.299 -7.562,-16.271c-6.264,31.472 -20.396,55.382 -42.396,71.729c-1.833,-0.152 -2.597,-1.069 -2.292,-2.75c17.875,-22.305 26.507,-56.451 25.896,-102.437l0,-101.063l-1.146,-11.229l0,-0.229l0,0.229c0,0 0.077,-0.076 0.229,-0.229c0.306,-0.458 0.535,-0.688 0.688,-0.688c8.25,1.07 17.111,2.903 26.583,5.5c0.764,0.764 0.764,1.987 0,3.667c-0.458,0.611 -1.604,1.299 -3.437,2.063c-0.764,0.458 -1.299,0.764 -1.604,0.916l-0,56.146c4.43,-7.486 7.944,-14.667 10.541,-21.542c0.764,-0.916 1.681,-1.222 2.75,-0.916c7.639,4.889 12.986,8.937 16.042,12.146c0.306,0.458 0.153,1.375 -0.458,2.75Zm-66.23,-2.521c6.112,6.875 10.389,15.583 12.834,26.125c2.444,11.458 2.215,20.472 -0.688,27.041c-4.277,7.792 -9.854,10.924 -16.729,9.396c-6.417,-2.444 -9.014,-8.021 -7.792,-16.729c0.153,-0.611 0.841,-2.062 2.063,-4.354c7.639,-13.903 10.16,-27.271 7.562,-40.104c-0.152,-1.07 0.077,-1.757 0.688,-2.063c0.611,-0.305 1.299,-0.076 2.062,0.688Z" style="fill-rule:nonzero;"/><path d="M2198.94,1843.38c-0.458,2.902 -4.889,5.194 -13.292,6.875c-8.555,1.375 -13.062,0.687 -13.521,-2.063l0,-6.875l-138.645,0c-1.834,2.597 -3.82,4.736 -5.959,6.417c-0.152,-0 -0.305,0.076 -0.458,0.229c-1.222,1.222 -2.368,1.222 -3.438,-0c-0.305,-0.153 -0.687,-0.458 -1.145,-0.917c-9.167,-6.569 -14.743,-10.694 -16.73,-12.375c-0.611,-0.458 -0.763,-1.146 -0.458,-2.062l0,-0.459c1.681,-3.208 3.972,-5.805 6.875,-7.791l0,-143.229c15.125,1.527 24.597,3.361 28.417,5.5c1.222,0.611 1.451,1.604 0.687,2.979c-0.152,0.153 -0.229,0.305 -0.229,0.458c-0.458,0.764 -1.833,1.681 -4.125,2.75c-0.458,0.153 -0.764,0.306 -0.917,0.458l0,143.23l52.48,-0l-0,-178.98c-0,-1.527 -0.535,-4.201 -1.605,-8.02c-1.222,-4.278 -1.527,-6.723 -0.916,-7.334c16.805,0.611 28.416,3.438 34.833,8.479c0,1.223 -1.222,2.598 -3.667,4.125c-1.68,1.223 -2.52,2.139 -2.52,2.75l-0,178.98l57.52,-0l0,-140.938c0,-1.528 -0.534,-4.201 -1.604,-8.021c-1.222,-4.277 -1.527,-6.722 -0.916,-7.333c16.958,0.611 28.645,3.437 35.062,8.479c0,1.222 -1.222,2.597 -3.667,4.125c-1.833,1.222 -2.75,2.139 -2.75,2.75l0,103.813c0,3.819 0.153,10.083 0.459,18.791c0.305,11.611 0.382,20.014 0.229,25.209Z" style="fill-rule:nonzero;"/><path d="M2313.75,1719.4l61.188,0c4.736,-6.416 9.243,-11.763 13.521,-16.041c0.458,-0.459 1.375,-0.459 2.75,-0l0.229,-0c8.403,5.194 15.125,10.923 20.167,17.187c1.069,1.834 0.764,3.056 -0.917,3.667l-85.021,-0c-0.305,-0 -5.347,0.229 -15.125,0.687l-4.583,-6.416c4.889,0.611 7.486,0.916 7.791,0.916Zm-19.937,-52.708l-30.938,45.604c22,16.195 33.306,34.146 33.917,53.854c-0.917,20.014 -10.083,32.237 -27.5,36.667c-1.375,0 -2.368,-0.535 -2.979,-1.604c-2.444,-10.542 -7.333,-17.264 -14.667,-20.167c-1.069,-1.222 -0.993,-2.139 0.229,-2.75c14.362,2.445 22,-3.59 22.917,-18.104c-0.305,-18.333 -5.882,-33.458 -16.729,-45.375l9.396,-52.708l-21.542,-0l0,186.312c-0.611,3.514 -4.736,6.111 -12.375,7.792c-6.722,0.764 -10.16,-0.611 -10.312,-4.125c-0,-3.056 0.229,-10.313 0.687,-21.771c0.458,-13.139 0.688,-21.771 0.688,-25.896l-0,-156.521c8.708,2.292 15.812,5.5 21.312,9.625l21.542,0l-0,-0.229c0.153,-0.305 0.382,-0.764 0.687,-1.375c1.681,-3.666 2.979,-6.264 3.896,-7.791c0.611,-0.764 1.757,-0.917 3.438,-0.459c9.166,3.361 17.798,7.486 25.895,12.375c0.917,1.223 0.917,2.292 0,3.209c-1.222,0.916 -3.743,2.062 -7.562,3.437Zm90.75,154.688c-0.306,5.805 2.979,8.479 9.854,8.02l9.167,0c14.819,1.834 25.132,-10.312 30.937,-36.437c0.153,-0.764 0.535,-1.069 1.146,-0.917c0.764,0.306 1.146,0.764 1.146,1.375c-2.597,16.5 -1.299,26.889 3.896,31.167c2.291,3.819 3.437,6.951 3.437,9.396c-1.222,10.389 -10.007,16.041 -26.354,16.958l-37.125,0c-11.458,-0.305 -17.34,-5.271 -17.646,-14.896l0,-73.562l-8.479,-0c-0.764,1.069 -2.062,2.139 -3.896,3.208c-2.139,1.528 -3.361,3.056 -3.666,4.583c-0.917,51.181 -29.181,78.299 -84.792,81.355c-0.611,-0 -0.993,-0.306 -1.146,-0.917c-0.153,-0.611 0.077,-0.993 0.688,-1.146c39.722,-7.944 59.965,-34.986 60.729,-81.125l-0,-5.958l-1.604,-0c-0.306,-0 -5.271,0.229 -14.896,0.687l-4.813,-6.416c5.042,0.611 7.716,0.916 8.021,0.916l85.021,0c3.667,-5.347 8.174,-10.694 13.521,-16.041c0.458,-0.459 1.375,-0.459 2.75,-0l0.229,-0c8.403,5.194 15.125,10.923 20.167,17.187c1.069,1.833 0.764,3.056 -0.917,3.667l-38.5,-0c-0,0.764 -0.535,1.604 -1.604,2.521c-0.459,0.305 -1.146,0.764 -2.063,1.375c-2.291,1.527 -3.361,2.597 -3.208,3.208l-0,51.792Zm-50.875,-181.5c22.153,1.68 35.521,8.632 40.104,20.854c1.986,11 -2.597,17.798 -13.75,20.396l46.063,-0c2.444,-3.361 4.583,-6.111 6.416,-8.25c0.764,-0.611 1.834,-0.764 3.209,-0.459c8.555,5.653 17.111,12.834 25.666,21.542c0.306,1.986 -0.305,3.743 -1.833,5.271c-0.458,0.153 -3.208,-0.153 -8.25,-0.917c-4.583,-0.764 -7.41,-1.146 -8.479,-1.146c-4.278,1.223 -9.854,3.591 -16.729,7.104c-1.223,0.764 -2.216,1.299 -2.98,1.605c-1.68,0.152 -2.444,-0.688 -2.291,-2.521c1.222,-2.292 2.597,-5.424 4.125,-9.396c1.222,-3.361 2.291,-6.035 3.208,-8.021l-93.271,0c0.764,8.097 -1.146,14.972 -5.729,20.625c-4.736,5.195 -10.542,6.417 -17.417,3.667c-6.416,-3.514 -8.479,-8.403 -6.187,-14.667c0.764,-1.833 2.903,-4.048 6.417,-6.646c7.944,-5.958 12.375,-13.368 13.291,-22.229c0.459,-1.222 1.223,-1.451 2.292,-0.687c3.361,4.889 5.576,9.93 6.646,15.125l41.479,-0c-3.972,-0.611 -6.722,-2.368 -8.25,-5.271c-0.917,-1.528 -1.528,-4.66 -1.833,-9.396c-0.764,-11.611 -4.966,-19.708 -12.605,-24.292c-0.763,-0.916 -0.534,-1.68 0.688,-2.291Z" style="fill-rule:nonzero;"/><path d="M2495.48,1841.31c-3.514,5.806 -6.646,9.702 -9.396,11.688c-1.375,0.611 -2.597,0.611 -3.667,-0c-5.653,-4.431 -12.298,-10.542 -19.937,-18.334c-1.07,-1.375 -1.223,-2.673 -0.459,-3.896c3.82,-4.277 6.646,-6.951 8.479,-8.02l0,-159.042l-1.833,-15.125c-0.764,-0.306 0.077,-0.611 2.521,-0.917c9.014,4.736 16.271,9.549 21.771,14.438l122.833,-0c6.264,-8.861 11.84,-15.584 16.729,-20.167c0.764,-0.764 1.681,-0.917 2.75,-0.458c10.236,5.958 18.868,12.91 25.896,20.854c0.611,3.056 0.611,4.583 0,4.583l-166.604,0l-0,169.584l130.396,-0c3.514,-3.667 7.333,-8.327 11.458,-13.98c2.597,-3.819 4.583,-6.34 5.958,-7.562c0.764,-0.611 1.605,-0.611 2.521,-0c5.195,3.819 13.445,11.153 24.75,22c1.223,2.597 1.223,4.049 0,4.354l-174.166,0Zm106.333,-159.958c8.708,3.208 19.326,8.785 31.854,16.729c0.611,0.611 0.306,1.757 -0.917,3.437c-0.916,0.612 -2.597,1.223 -5.041,1.834c-3.056,0.611 -5.042,1.451 -5.959,2.521c-5.652,12.833 -13.062,25.972 -22.229,39.416c4.584,3.209 8.709,6.57 12.375,10.084c19.403,18.027 27.424,34.757 24.063,50.187c-2.75,7.333 -7.868,9.702 -15.354,7.104c-7.028,-3.055 -13.827,-10.236 -20.396,-21.541c-4.584,-7.945 -9.014,-15.125 -13.292,-21.542c-1.069,-1.681 -2.215,-3.056 -3.437,-4.125c-22.459,25.208 -47.361,42.854 -74.709,52.937c-1.375,-0.458 -1.68,-1.68 -0.916,-3.666c20.014,-14.209 40.333,-36.667 60.958,-67.375c-12.833,-14.056 -30.938,-27.195 -54.313,-39.417c-0.305,-1.528 -0.229,-2.75 0.23,-3.667c21.236,4.584 42.625,13.369 64.166,26.355c10.084,-18.181 16.5,-34.146 19.25,-47.896c0.306,-0.459 1.528,-0.917 3.667,-1.375Z" style="fill-rule:nonzero;"/><path d="M2744.81,1848.42l-0,-4.583c25.667,-35.139 37.583,-67.069 35.75,-95.792c-1.069,-37.43 -12.986,-69.361 -35.75,-95.791l-0,-4.355c38.653,27.806 58.667,61.188 60.042,100.146c0.152,38.348 -19.861,71.806 -60.042,100.375Z" style="fill-rule:nonzero;"/><g transform="matrix(1,0,0,1,713.55,2.84217e-14)"><g transform="matrix(136.442,0,0,136.442,109.904,442.817)"><path d="M0.091,-0l0.449,-0l0,-0.124l-0.301,0l-0,-0.617l-0.148,0l-0,0.741Z" style="fill:#246766;fill-rule:nonzero;"/></g><g transform="matrix(136.442,0,0,136.442,188.767,442.817)"><path d="M0.079,-0l0.147,-0l0,-0.56l-0.147,0l0,0.56Zm0.074,-0.651c0.05,0 0.085,-0.031 0.085,-0.08c0,-0.048 -0.035,-0.08 -0.085,-0.08c-0.052,-0 -0.085,0.032 -0.085,0.08c0,0.049 0.033,0.08 0.085,0.08Z" style="fill:#246766;fill-rule:nonzero;"/></g><g transform="matrix(136.442,0,0,136.442,230.245,442.817)"><path d="M0.079,-0l0.147,-0l0,-0.385c0.041,-0.041 0.071,-0.063 0.116,-0.063c0.055,0 0.079,0.03 0.079,0.117l0,0.331l0.147,-0l0,-0.349c0,-0.141 -0.052,-0.225 -0.173,-0.225c-0.076,0 -0.133,0.04 -0.182,0.088l-0.003,0l-0.011,-0.074l-0.12,0l0,0.56Z" style="fill:#246766;fill-rule:nonzero;"/></g><g transform="matrix(136.442,0,0,136.442,317.704,442.817)"><path d="M0.079,-0l0.145,-0l0,-0.142l0.078,-0.091l0.136,0.233l0.16,-0l-0.21,-0.329l0.192,-0.231l-0.161,0l-0.191,0.24l-0.004,0l-0,-0.478l-0.145,0l-0,0.798Z" style="fill:#246766;fill-rule:nonzero;"/></g><g transform="matrix(136.442,0,0,136.442,400.115,442.817)"><path d="M0.392,0.014c0.097,0 0.176,-0.038 0.237,-0.109l-0.079,-0.092c-0.039,0.043 -0.088,0.073 -0.152,0.073c-0.117,0 -0.192,-0.097 -0.192,-0.258c0,-0.159 0.083,-0.255 0.195,-0.255c0.056,0 0.099,0.026 0.137,0.062l0.077,-0.094c-0.048,-0.05 -0.122,-0.095 -0.217,-0.095c-0.187,-0 -0.344,0.143 -0.344,0.387c0,0.247 0.152,0.381 0.338,0.381Z" style="fill:#246766;fill-rule:nonzero;"/></g><g transform="matrix(136.442,0,0,136.442,489.62,442.817)"><path d="M0.079,-0l0.147,-0l0,-0.385c0.041,-0.041 0.071,-0.063 0.116,-0.063c0.055,0 0.079,0.03 0.079,0.117l0,0.331l0.147,-0l0,-0.349c0,-0.141 -0.052,-0.225 -0.173,-0.225c-0.076,0 -0.132,0.04 -0.176,0.082l0.007,-0.105l0,-0.201l-0.147,0l0,0.798Z" style="fill:#246766;fill-rule:nonzero;"/></g><g transform="matrix(136.442,0,0,136.442,576.943,442.817)"><path d="M0.313,0.014c0.14,0 0.269,-0.108 0.269,-0.294c-0,-0.186 -0.129,-0.294 -0.269,-0.294c-0.141,-0 -0.269,0.108 -0.269,0.294c-0,0.186 0.128,0.294 0.269,0.294Zm-0,-0.12c-0.077,-0 -0.119,-0.068 -0.119,-0.174c-0,-0.105 0.042,-0.174 0.119,-0.174c0.076,0 0.119,0.069 0.119,0.174c-0,0.106 -0.043,0.174 -0.119,0.174Z" style="fill:#246766;fill-rule:nonzero;"/></g><g transform="matrix(136.442,0,0,136.442,662.355,442.817)"><path d="M0.246,0.014c0.077,0 0.13,-0.038 0.178,-0.095l0.004,0l0.011,0.081l0.12,-0l0,-0.56l-0.147,0l0,0.378c-0.038,0.05 -0.068,0.07 -0.113,0.07c-0.055,0 -0.08,-0.03 -0.08,-0.117l0,-0.331l-0.146,0l0,0.349c0,0.141 0.052,0.225 0.173,0.225Z" style="fill:#246766;fill-rule:nonzero;"/></g><g transform="matrix(136.442,0,0,136.442,88.7552,629.259)"><path d="M0.044,-0l0.461,-0l0,-0.079l-0.203,0c-0.037,0 -0.082,0.004 -0.12,0.007c0.172,-0.163 0.288,-0.312 0.288,-0.459c0,-0.13 -0.083,-0.215 -0.214,-0.215c-0.093,0 -0.157,0.042 -0.216,0.107l0.053,0.052c0.041,-0.049 0.092,-0.085 0.152,-0.085c0.091,-0 0.135,0.061 0.135,0.145c0,0.126 -0.106,0.272 -0.336,0.473l0,0.054Z" style="fill:#246766;fill-rule:nonzero;"/></g><g transform="matrix(136.442,0,0,136.442,164.48,629.259)"><path d="M0.278,0.013c0.139,0 0.228,-0.126 0.228,-0.382c0,-0.254 -0.089,-0.377 -0.228,-0.377c-0.14,0 -0.228,0.123 -0.228,0.377c-0,0.256 0.088,0.382 0.228,0.382Zm0,-0.074c-0.083,-0 -0.14,-0.093 -0.14,-0.308c0,-0.214 0.057,-0.305 0.14,-0.305c0.083,-0 0.14,0.091 0.14,0.305c-0,0.215 -0.057,0.308 -0.14,0.308Z" style="fill:#246766;fill-rule:nonzero;"/></g><g transform="matrix(136.442,0,0,136.442,240.205,629.259)"><path d="M0.044,-0l0.461,-0l0,-0.079l-0.203,0c-0.037,0 -0.082,0.004 -0.12,0.007c0.172,-0.163 0.288,-0.312 0.288,-0.459c0,-0.13 -0.083,-0.215 -0.214,-0.215c-0.093,0 -0.157,0.042 -0.216,0.107l0.053,0.052c0.041,-0.049 0.092,-0.085 0.152,-0.085c0.091,-0 0.135,0.061 0.135,0.145c0,0.126 -0.106,0.272 -0.336,0.473l0,0.054Z" style="fill:#246766;fill-rule:nonzero;"/></g><g transform="matrix(136.442,0,0,136.442,315.93,629.259)"><path d="M0.301,0.013c0.114,0 0.211,-0.096 0.211,-0.238c0,-0.154 -0.08,-0.23 -0.204,-0.23c-0.057,0 -0.121,0.033 -0.166,0.088c0.004,-0.227 0.087,-0.304 0.189,-0.304c0.044,0 0.088,0.022 0.116,0.056l0.052,-0.056c-0.041,-0.044 -0.096,-0.075 -0.172,-0.075c-0.142,0 -0.271,0.109 -0.271,0.396c0,0.242 0.105,0.363 0.245,0.363Zm-0.157,-0.307c0.048,-0.068 0.104,-0.093 0.149,-0.093c0.089,0 0.132,0.063 0.132,0.162c0,0.1 -0.054,0.166 -0.124,0.166c-0.092,-0 -0.147,-0.083 -0.157,-0.235Z" style="fill:#246766;fill-rule:nonzero;"/></g><g transform="matrix(136.442,0,0,136.442,391.655,629.259)"><path d="M0.139,0.013c0.036,0 0.066,-0.028 0.066,-0.069c0,-0.042 -0.03,-0.07 -0.066,-0.07c-0.037,0 -0.066,0.028 -0.066,0.07c-0,0.041 0.029,0.069 0.066,0.069Z" style="fill:#246766;fill-rule:nonzero;"/></g><g transform="matrix(136.442,0,0,136.442,429.586,629.259)"><path d="M0.278,0.013c0.139,0 0.228,-0.126 0.228,-0.382c0,-0.254 -0.089,-0.377 -0.228,-0.377c-0.14,0 -0.228,0.123 -0.228,0.377c-0,0.256 0.088,0.382 0.228,0.382Zm0,-0.074c-0.083,-0 -0.14,-0.093 -0.14,-0.308c0,-0.214 0.057,-0.305 0.14,-0.305c0.083,-0 0.14,0.091 0.14,0.305c-0,0.215 -0.057,0.308 -0.14,0.308Z" style="fill:#246766;fill-rule:nonzero;"/></g><g transform="matrix(136.442,0,0,136.442,505.311,629.259)"><path d="M0.088,-0l0.402,-0l0,-0.076l-0.147,0l0,-0.657l-0.07,0c-0.04,0.023 -0.087,0.04 -0.152,0.052l0,0.058l0.131,-0l0,0.547l-0.164,-0l0,0.076Z" style="fill:#246766;fill-rule:nonzero;"/></g><g transform="matrix(136.442,0,0,136.442,581.036,629.259)"><path d="M0.139,0.013c0.036,0 0.066,-0.028 0.066,-0.069c0,-0.042 -0.03,-0.07 -0.066,-0.07c-0.037,0 -0.066,0.028 -0.066,0.07c-0,0.041 0.029,0.069 0.066,0.069Z" style="fill:#246766;fill-rule:nonzero;"/></g><g transform="matrix(136.442,0,0,136.442,618.967,629.259)"><path d="M0.278,0.013c0.139,0 0.228,-0.126 0.228,-0.382c0,-0.254 -0.089,-0.377 -0.228,-0.377c-0.14,0 -0.228,0.123 -0.228,0.377c-0,0.256 0.088,0.382 0.228,0.382Zm0,-0.074c-0.083,-0 -0.14,-0.093 -0.14,-0.308c0,-0.214 0.057,-0.305 0.14,-0.305c0.083,-0 0.14,0.091 0.14,0.305c-0,0.215 -0.057,0.308 -0.14,0.308Z" style="fill:#246766;fill-rule:nonzero;"/></g><g transform="matrix(136.442,0,0,136.442,694.692,629.259)"><path d="M0.262,0.013c0.123,0 0.24,-0.091 0.24,-0.251c0,-0.162 -0.1,-0.234 -0.221,-0.234c-0.044,-0 -0.077,0.011 -0.11,0.029l0.019,-0.212l0.276,-0l-0,-0.078l-0.356,-0l-0.024,0.342l0.049,0.031c0.042,-0.028 0.073,-0.043 0.122,-0.043c0.092,-0 0.152,0.062 0.152,0.167c-0,0.107 -0.069,0.173 -0.156,0.173c-0.085,-0 -0.139,-0.039 -0.18,-0.081l-0.046,0.06c0.05,0.049 0.12,0.097 0.235,0.097Z" style="fill:#246766;fill-rule:nonzero;"/></g></g></g></svg>