<?xml version="1.0" encoding="UTF-8" standalone="no"?><!DOCTYPE svg PUBLIC "-//W3C//DTD SVG 1.1//EN" "http://www.w3.org/Graphics/SVG/1.1/DTD/svg11.dtd"><svg width="100%" height="100%" viewBox="0 0 2717 5434" version="1.1" xmlns="http://www.w3.org/2000/svg" xmlns:xlink="http://www.w3.org/1999/xlink" xml:space="preserve" xmlns:serif="http://www.serif.com/" style="fill-rule:evenodd;clip-rule:evenodd;stroke-linecap:round;stroke-linejoin:round;stroke-miterlimit:1.5;"><rect id="背景" x="0" y="-0" width="2716.53" height="5433.07" style="fill:#ebebeb;"/><g id="B"><g id="房间"><rect x="393.984" y="2035.32" width="156.979" height="70.766" style="fill:#ffcece;"/><rect x="393.984" y="2106.08" width="156.979" height="70.766" style="fill:#ffcece;"/></g><g id="楼梯"><rect x="393.984" y="2176.85" width="156.979" height="75.442" style="fill:#f00;"/><rect x="1223.28" y="1916.05" width="82.254" height="125.912" style="fill:#f00;"/><rect x="602.616" y="2106.08" width="94.083" height="146.208" style="fill:#00f;"/><rect x="2285.96" y="2185.31" width="78.3" height="139.99" style="fill:#00f;"/><rect x="393.984" y="2252.29" width="156.979" height="69.063" style="fill:#00f;"/><rect x="393.984" y="2321.35" width="156.979" height="69.063" style="fill:#00f;"/><rect x="550.963" y="2035.32" width="51.654" height="1895.17" style="fill:#34ba6f;"/><rect x="602.616" y="2049.11" width="1974.66" height="56.974" style="fill:#34ba6f;"/><rect x="2364.26" y="2111.06" width="57.879" height="1129.78" style="fill:#34ba6f;"/><rect x="602.616" y="2990.72" width="1761.65" height="64.261" style="fill:#34ba6f;"/></g><g id="文字"><g transform="matrix(41.6667,0,0,41.6667,524.556,2157.46)"></g><text x="420.39px" y="2157.46px" style="font-family:'NotoSansMonoCJKsc-Regular', 'Noto Sans Mono CJK SC', sans-serif;font-size:41.667px;">22203</text><text x="420.39px" y="2086.91px" style="font-family:'NotoSansMonoCJKsc-Regular', 'Noto Sans Mono CJK SC', sans-serif;font-size:41.667px;">22204</text></g></g><g id="C"><path id="走廊" d="M550.963,2035.32l-0,-1787.93l137.368,0l-0,63.435l-93.71,-0l0,836.666l85.169,0l-0,62.721l-85.169,-0l0,825.106l-43.658,0Z" style="fill:#34ba6f;"/><g id="房间1" serif:id="房间"><rect x="276.841" y="462.765" width="138.152" height="139.707" style="fill:#afe1ff;"/><rect x="594.621" y="462.765" width="93.71" height="139.707" style="fill:#afe1ff;"/><rect x="594.621" y="602.472" width="156.979" height="262.8" style="fill:#afe1ff;"/><rect x="594.621" y="865.272" width="93.71" height="139.707" style="fill:#afe1ff;"/><rect x="414.993" y="462.765" width="137.687" height="139.707" style="fill:#afe1ff;"/><rect x="383.312" y="143.552" width="272.57" height="103.836" style="fill:#afe1ff;"/><rect x="412.811" y="247.387" width="138.152" height="63.435" style="fill:#afe1ff;"/><rect x="276.841" y="868.221" width="138.152" height="130.026" style="fill:#afe1ff;"/><rect x="414.993" y="868.221" width="135.97" height="130.026" style="fill:#afe1ff;"/><rect x="412.811" y="310.822" width="138.152" height="69.104" style="fill:#afe1ff;"/><rect x="393.984" y="1070.73" width="156.979" height="68.916" style="fill:#afe1ff;"/><rect x="393.984" y="1483.76" width="156.979" height="68.916" style="fill:#afe1ff;"/><rect x="393.984" y="1277.47" width="156.979" height="68.916" style="fill:#afe1ff;"/><rect x="393.984" y="1690.97" width="156.979" height="68.916" style="fill:#afe1ff;"/><rect x="393.984" y="1139.64" width="156.979" height="68.916" style="fill:#afe1ff;"/><rect x="393.984" y="1552.9" width="156.979" height="68.916" style="fill:#afe1ff;"/><rect x="393.984" y="1345.79" width="156.979" height="68.916" style="fill:#afe1ff;"/><rect x="393.984" y="1760.18" width="156.979" height="68.916" style="fill:#afe1ff;"/><rect x="393.984" y="1208.26" width="156.979" height="68.916" style="fill:#afe1ff;"/><rect x="393.984" y="1622.05" width="156.979" height="68.916" style="fill:#afe1ff;"/><rect x="393.984" y="1414.54" width="156.979" height="68.916" style="fill:#afe1ff;"/><rect x="393.984" y="1828.8" width="156.979" height="68.916" style="fill:#afe1ff;"/><rect x="393.984" y="1897.71" width="156.979" height="68.916" style="fill:#afe1ff;"/><rect x="393.984" y="1966.4" width="156.979" height="68.916" style="fill:#afe1ff;"/></g><g id="楼梯1" serif:id="楼梯"><g id="自习长廊"><rect x="240.03" y="379.438" width="36.81" height="618.809" style="fill:#fff;"/><rect x="254.028" y="1070.96" width="53.386" height="964.359" style="fill:#fff;"/></g><rect x="276.841" y="379.438" width="274.122" height="83.327" style="fill:#f00;"/><rect x="240.03" y="998.247" width="310.933" height="72.71" style="fill:#f00;"/><g id="厕所"><rect x="594.621" y="310.822" width="93.71" height="151.943" style="fill:#00f;"/><rect x="594.621" y="1004.98" width="93.71" height="142.509" style="fill:#00f;"/></g><rect x="254.028" y="2035.32" width="53.386" height="66.159" style="fill:#f20d0d;"/></g><g id="文字1" serif:id="文字"><text x="283.417px" y="551.818px" style="font-family:'NotoSansMonoCJKsc-Regular', 'Noto Sans Mono CJK SC', sans-serif;font-size:50px;">32201</text><text x="603.563px" y="983.062px" style="font-family:'NotoSansMonoCJKsc-Regular', 'Noto Sans Mono CJK SC', sans-serif;font-size:33.333px;">31218</text><text x="599.809px" y="912.053px" style="font-family:'NotoSansMonoCJKsc-Regular', 'Noto Sans Mono CJK SC', sans-serif;font-size:33.333px;">31217</text><g transform="matrix(50,0,0,50,545.478,952.434)"></g><text x="420.478px" y="952.434px" style="font-family:'NotoSansMonoCJKsc-Regular', 'Noto Sans Mono CJK SC', sans-serif;font-size:50px;">31215</text><g transform="matrix(50,0,0,50,408.417,952.434)"></g><text x="283.417px" y="952.434px" style="font-family:'NotoSansMonoCJKsc-Regular', 'Noto Sans Mono CJK SC', sans-serif;font-size:50px;">31216</text><g transform="matrix(33.3333,0,0,33.3333,683.143,577.572)"></g><text x="599.809px" y="577.572px" style="font-family:'NotoSansMonoCJKsc-Regular', 'Noto Sans Mono CJK SC', sans-serif;font-size:33.333px;">32207</text><text x="419.387px" y="298.305px" style="font-family:'NotoSansMonoCJKsc-Regular', 'Noto Sans Mono CJK SC', sans-serif;font-size:50px;">32204</text><g transform="matrix(50,0,0,50,545.478,551.818)"></g><text x="420.478px" y="551.818px" style="font-family:'NotoSansMonoCJKsc-Regular', 'Noto Sans Mono CJK SC', sans-serif;font-size:50px;">32202</text><g><text x="237.602px" y="579.842px" style="font-family:'NotoSansMonoCJKsc-Regular', 'Noto Sans Mono CJK SC', sans-serif;font-size:41.667px;">自</text><text x="237.602px" y="663.176px" style="font-family:'NotoSansMonoCJKsc-Regular', 'Noto Sans Mono CJK SC', sans-serif;font-size:41.667px;">习</text><text x="237.602px" y="746.509px" style="font-family:'NotoSansMonoCJKsc-Regular', 'Noto Sans Mono CJK SC', sans-serif;font-size:41.667px;">长</text><text x="237.602px" y="829.842px" style="font-family:'NotoSansMonoCJKsc-Regular', 'Noto Sans Mono CJK SC', sans-serif;font-size:41.667px;">廊</text></g><g transform="matrix(50,0,0,50,544.387,364.574)"></g><text x="419.387px" y="364.574px" style="font-family:'NotoSansMonoCJKsc-Regular', 'Noto Sans Mono CJK SC', sans-serif;font-size:50px;">32203</text><text x="599.809px" y="507.719px" style="font-family:'NotoSansMonoCJKsc-Regular', 'Noto Sans Mono CJK SC', sans-serif;font-size:33.333px;">32206</text><g transform="matrix(50,0,0,50,582.097,214.67)"></g><text x="457.097px" y="214.67px" style="font-family:'NotoSansMonoCJKsc-Regular', 'Noto Sans Mono CJK SC', sans-serif;font-size:50px;">32205</text><g transform="matrix(41.6667,0,0,41.6667,524.556,1327.45)"></g><text x="420.39px" y="1327.45px" style="font-family:'NotoSansMonoCJKsc-Regular', 'Noto Sans Mono CJK SC', sans-serif;font-size:41.667px;">31211</text><g transform="matrix(41.6667,0,0,41.6667,524.556,1396.4)"></g><text x="420.39px" y="1396.4px" style="font-family:'NotoSansMonoCJKsc-Regular', 'Noto Sans Mono CJK SC', sans-serif;font-size:41.667px;">31210</text><text x="420.39px" y="1465.23px" style="font-family:'NotoSansMonoCJKsc-Regular', 'Noto Sans Mono CJK SC', sans-serif;font-size:41.667px;">31209</text><g transform="matrix(41.6667,0,0,41.6667,524.556,1534.6)"></g><text x="420.39px" y="1534.6px" style="font-family:'NotoSansMonoCJKsc-Regular', 'Noto Sans Mono CJK SC', sans-serif;font-size:41.667px;">31208</text><text x="420.39px" y="1603.36px" style="font-family:'NotoSansMonoCJKsc-Regular', 'Noto Sans Mono CJK SC', sans-serif;font-size:41.667px;">31207</text><g transform="matrix(41.6667,0,0,41.6667,524.556,1672.74)"></g><text x="420.39px" y="1672.74px" style="font-family:'NotoSansMonoCJKsc-Regular', 'Noto Sans Mono CJK SC', sans-serif;font-size:41.667px;">31206</text><g transform="matrix(41.6667,0,0,41.6667,524.556,1742.12)"></g><text x="420.39px" y="1742.12px" style="font-family:'NotoSansMonoCJKsc-Regular', 'Noto Sans Mono CJK SC', sans-serif;font-size:41.667px;">31205</text><g transform="matrix(41.6667,0,0,41.6667,524.556,1810.74)"></g><text x="420.39px" y="1810.74px" style="font-family:'NotoSansMonoCJKsc-Regular', 'Noto Sans Mono CJK SC', sans-serif;font-size:41.667px;">31204</text><g transform="matrix(41.6667,0,0,41.6667,524.556,1879.08)"></g><text x="420.39px" y="1879.08px" style="font-family:'NotoSansMonoCJKsc-Regular', 'Noto Sans Mono CJK SC', sans-serif;font-size:41.667px;">31203</text><g transform="matrix(41.6667,0,0,41.6667,524.556,1947.92)"></g><text x="420.39px" y="1947.92px" style="font-family:'NotoSansMonoCJKsc-Regular', 'Noto Sans Mono CJK SC', sans-serif;font-size:41.667px;">31202</text><g transform="matrix(41.6667,0,0,41.6667,524.556,2017.06)"></g><text x="420.39px" y="2017.07px" style="font-family:'NotoSansMonoCJKsc-Regular', 'Noto Sans Mono CJK SC', sans-serif;font-size:41.667px;">31201</text><text x="420.39px" y="1121.48px" style="font-family:'NotoSansMonoCJKsc-Regular', 'Noto Sans Mono CJK SC', sans-serif;font-size:41.667px;">31214</text><g transform="matrix(41.6667,0,0,41.6667,526.215,1190.03)"></g><text x="422.048px" y="1190.03px" style="font-family:'NotoSansMonoCJKsc-Regular', 'Noto Sans Mono CJK SC', sans-serif;font-size:41.667px;">31213</text><g transform="matrix(41.6667,0,0,41.6667,524.556,1259.71)"></g><text x="420.39px" y="1259.71px" style="font-family:'NotoSansMonoCJKsc-Regular', 'Noto Sans Mono CJK SC', sans-serif;font-size:41.667px;">31212</text><g transform="matrix(1,0,0,1,-4.94319,0)"><text x="264.831px" y="1320.84px" style="font-family:'NotoSansMonoCJKsc-Regular', 'Noto Sans Mono CJK SC', sans-serif;font-size:41.667px;">自</text><text x="264.831px" y="1487.51px" style="font-family:'NotoSansMonoCJKsc-Regular', 'Noto Sans Mono CJK SC', sans-serif;font-size:41.667px;">习</text><text x="264.831px" y="1654.17px" style="font-family:'NotoSansMonoCJKsc-Regular', 'Noto Sans Mono CJK SC', sans-serif;font-size:41.667px;">长</text><g transform="matrix(41.6667,0,0,41.6667,306.497,1820.84)"></g><text x="264.831px" y="1820.84px" style="font-family:'NotoSansMonoCJKsc-Regular', 'Noto Sans Mono CJK SC', sans-serif;font-size:41.667px;">廊</text></g></g></g><g id="图例"><g><path d="M2322.99,1304.19l-49.897,20.841l66.529,-171.672l66.528,171.672l-49.896,-20.841l0,95.658l-33.264,0l-0,-95.658Z" style="stroke:#000;stroke-width:3.33px;"/><g transform="matrix(208.333,0,0,208.333,2443.79,1029.38)"></g><text x="2235.46px" y="1029.38px" style="font-family:'NotoSansMonoCJKsc-Bold', 'Noto Sans Mono CJK SC', sans-serif;font-weight:700;font-size:208.333px;">北</text></g><g><g id="出入口"><rect x="1078.51" y="765.998" width="129.947" height="129.947" style="fill:#00f;"/><g transform="matrix(150,0,0,150,1865.34,888.572)"></g><text x="1415.34px" y="888.572px" style="font-family:'NotoSansMonoCJKsc-Regular', 'Noto Sans Mono CJK SC', sans-serif;font-size:150px;">出入口</text></g><g id="厕所1" serif:id="厕所"><rect x="1078.51" y="1047.81" width="129.947" height="129.947" style="fill:#009600;"/><g transform="matrix(150,0,0,150,1790.34,1170.38)"></g><text x="1490.34px" y="1170.38px" style="font-family:'NotoSansMonoCJKsc-Regular', 'Noto Sans Mono CJK SC', sans-serif;font-size:150px;fill:#009600;">厕所</text></g><g id="楼梯2" serif:id="楼梯"><rect x="1078.51" y="1329.62" width="129.947" height="129.947" style="fill:#f00;"/><g transform="matrix(150,0,0,150,1977.84,1452.2)"></g><text x="1302.84px" y="1452.2px" style="font-family:'NotoSansMonoCJKsc-Regular', 'Noto Sans Mono CJK SC', sans-serif;font-size:150px;fill:#f00;">楼梯/电梯</text></g></g><g transform="matrix(200,0,0,200,2504.82,474.361)"></g><text x="1004.82px" y="474.361px" style="font-family:'NotoSansMonoCJKsc-Bold', 'Noto Sans Mono CJK SC', sans-serif;font-weight:700;font-size:200px;">敏行楼2楼剖面图</text></g></svg>