<?xml version="1.0" encoding="UTF-8" standalone="no"?><!DOCTYPE svg PUBLIC "-//W3C//DTD SVG 1.1//EN" "http://www.w3.org/Graphics/SVG/1.1/DTD/svg11.dtd"><svg width="100%" height="100%" viewBox="0 0 2717 5434" version="1.1" xmlns="http://www.w3.org/2000/svg" xmlns:xlink="http://www.w3.org/1999/xlink" xml:space="preserve" xmlns:serif="http://www.serif.com/" style="fill-rule:evenodd;clip-rule:evenodd;stroke-linecap:round;stroke-linejoin:round;stroke-miterlimit:1.5;"><rect id="背景" x="0" y="-0" width="2716.53" height="5433.07" style="fill:#ebebeb;"/><g id="B:-1"><g id="楼梯"><rect x="1223.28" y="1844.06" width="82.254" height="205.051" style="fill:#f00;"/><rect x="811.414" y="3054.98" width="77.874" height="250.78" style="fill:#f00;"/><rect x="1559.16" y="2809.49" width="144.537" height="181.228" style="fill:#f00;"/><rect x="1894.12" y="2809.49" width="81.871" height="181.228" style="fill:#f00;"/><rect x="2285.96" y="2716.53" width="77.698" height="274.18" style="fill:#f00;"/><rect x="2285.96" y="2106.08" width="77.698" height="376.122" style="fill:#f00;"/></g><g id="卫生间"><rect x="2206.68" y="1844.06" width="156.979" height="205.051" style="fill:#00f;"/><rect x="1976" y="2810.63" width="159.16" height="180.085" style="fill:#00f;"/><rect x="807.005" y="2810.63" width="149.977" height="180.085" style="fill:#00f;"/><rect x="1053.4" y="1844.06" width="169.885" height="205.051" style="fill:#00f;"/></g><g id="房间-1F"><rect id="zone-21x09-21x09" x="1559.16" y="3054.98" width="144.537" height="250.78" style="fill:#ffcece;"/><rect id="zone-21x01-21x08" x="956.983" y="2810.63" width="602.179" height="180.085" style="fill:#ffcece;"/><rect id="zone-22x39-22x43" x="696.699" y="2101.47" width="948.987" height="205.051" style="fill:#ffcece;"/><rect id="zone-22x33-22x38" x="1645.69" y="2101.47" width="640.278" height="204.949" style="fill:#ffcece;"/><rect id="zone-22x32-22x32" x="2285.96" y="2478.44" width="78.3" height="238.094" style="fill:#ffcece;"/><rect id="zone-22x30-22x31" x="2135.16" y="2810.63" width="150.808" height="180.085" style="fill:#ffcece;"/><rect id="zone-22x26-22x29" x="1895.98" y="3054.98" width="468.28" height="185.865" style="fill:#ffcece;"/><rect id="zone-22x13-22x25" x="2422.14" y="2106.08" width="178.303" height="1134.76" style="fill:#ffcece;"/><rect id="zone-22x04-22x12" x="1305.54" y="1844.06" width="1294.91" height="205.051" style="fill:#ffcece;"/><rect id="zone-22x01-22x03" x="688.331" y="1844.06" width="365.068" height="205.051" style="fill:#ffcece;"/></g><g><path d="M2600.45,2049.11l-0,56.974l-178.303,-0l0,1134.76l-57.878,-0l-0,-185.865l-468.28,0l-0,-64.261l468.28,-0l-0,-884.634l-1667.57,-0l0,-56.974l1903.75,0Z" style="fill:#34ba6f;"/><path d="M1703.7,2990.72l-0,64.261l-894.518,0l2.233,-64.261l892.285,-0Z" style="fill:#34ba6f;"/></g><g id="_-1轮廓" serif:id="-1轮廓"><path d="M696.699,2306.42l0,-462.367l1903.75,0l-0,1396.79l-704.461,-0l-0,-430.211l389.98,0l-0,-504.207l-1589.27,-0Z" style="fill:none;stroke:#000;stroke-width:8.33px;"/><path d="M811.414,3305.76l-4.409,-495.126l896.694,0l-0,495.126l-892.285,-0Z" style="fill:none;stroke:#000;stroke-width:8.33px;"/></g></g><g id="图例"><g><path d="M2406.18,1252.71l-49.897,20.841l66.529,-171.672l66.529,171.672l-49.897,-20.841l0,95.658l-33.264,0l-0,-95.658Z" style="stroke:#000;stroke-width:3.33px;"/><g transform="matrix(208.333,0,0,208.333,2526.98,977.891)"></g><text x="2318.64px" y="977.891px" style="font-family:'NotoSansMonoCJKsc-Bold', 'Noto Sans Mono CJK SC', sans-serif;font-weight:700;font-size:208.333px;">北</text></g><g><g id="出入口"><rect x="1294.78" y="573.603" width="129.947" height="129.947" style="fill:#34ba6f;"/><g transform="matrix(150,0,0,150,2006.62,696.177)"></g><text x="1706.62px" y="696.177px" style="font-family:'NotoSansMonoCJKsc-Regular', 'Noto Sans Mono CJK SC', sans-serif;font-size:150px;fill:#34ba6f;">走廊</text></g><g id="厕所"><rect x="1294.78" y="855.416" width="129.947" height="129.947" style="fill:#00f;"/><g transform="matrix(150,0,0,150,2006.62,977.99)"></g><text x="1706.62px" y="977.99px" style="font-family:'NotoSansMonoCJKsc-Regular', 'Noto Sans Mono CJK SC', sans-serif;font-size:150px;fill:#00f;">厕所</text></g><g id="楼梯1" serif:id="楼梯"><rect x="1294.78" y="1137.23" width="129.947" height="129.947" style="fill:#f00;"/><g transform="matrix(150,0,0,150,2194.12,1259.8)"></g><text x="1519.12px" y="1259.8px" style="font-family:'NotoSansMonoCJKsc-Regular', 'Noto Sans Mono CJK SC', sans-serif;font-size:150px;fill:#f00;">楼梯/电梯</text></g><g id="楼梯2" serif:id="楼梯"><rect x="1294.78" y="1419.04" width="129.947" height="129.947" style="fill:#c333cc;"/><g transform="matrix(150,0,0,150,2081.62,1541.62)"></g><text x="1631.62px" y="1541.62px" style="font-family:'NotoSansMonoCJKsc-Regular', 'Noto Sans Mono CJK SC', sans-serif;font-size:150px;fill:#c333cc;">出入口</text></g></g><g transform="matrix(200,0,0,200,2529.25,361.658)"></g><text x="1329.25px" y="361.658px" style="font-family:'NotoSansMonoCJKsc-Bold', 'Noto Sans Mono CJK SC', sans-serif;font-weight:700;font-size:200px;">敏行楼剖面图</text><g id="楼号"><g transform="matrix(266.667,0,0,266.667,1558,2661.46)"></g><text x="1424.66px" y="2661.46px" style="font-family:'NotoSansMonoCJKsc-Bold', 'Noto Sans Mono CJK SC', sans-serif;font-weight:700;font-size:266.667px;">B</text></g></g></svg>