<?xml version="1.0" encoding="UTF-8" standalone="no"?><!DOCTYPE svg PUBLIC "-//W3C//DTD SVG 1.1//EN" "http://www.w3.org/Graphics/SVG/1.1/DTD/svg11.dtd"><svg width="100%" height="100%" viewBox="0 0 2717 5434" version="1.1" xmlns="http://www.w3.org/2000/svg" xmlns:xlink="http://www.w3.org/1999/xlink" xml:space="preserve" xmlns:serif="http://www.serif.com/" style="fill-rule:evenodd;clip-rule:evenodd;stroke-linecap:round;stroke-linejoin:round;stroke-miterlimit:1.5;"><rect id="背景" x="0" y="-0" width="2716.53" height="5433.07" style="fill:#ebebeb;"/><g id="A"><g id="_2-4层" serif:id="2-4层"><rect id="zone-12x54-12x56" x="602.015" y="4318.82" width="100.528" height="145.395" style="fill:#f2c761;"/><rect id="zone-12x45-12x53" x="703.662" y="4176.07" width="852.295" height="142.75" style="fill:#f2c761;"/><rect id="zone-12x35-12x44" x="1555.96" y="4176.07" width="775.836" height="142.75" style="fill:#f2c761;"/><rect id="zone-12x24-12x29" x="2407.17" y="3919.47" width="178.68" height="573.308" style="fill:#f2c761;"/><rect id="zone-12x05-12x23" x="927.583" y="3914.16" width="1414.03" height="184.355" style="fill:#f2c761;"/><path id="zone-12x01-12x04" d="M550.361,4460.89l-302.165,0l-0,-150.758l145.788,-0l-0,-353.198l156.377,0l0,503.956Z" style="fill:#f2c761;"/><path id="zone-11x44-11x52" d="M1793.83,5278.01l-125.653,0l-0,-175.093l607.33,-0l0,203.645l-481.677,-0l0,-28.552Z" style="fill:#f2c761;"/><path id="zone-11x41-11x43" d="M2393.35,4969.56l192.499,-0l0,117.649l-0.461,-0c-6.782,108.509 -87.611,197.083 -192.496,215.728c-13.373,2.377 -27.137,3.618 -41.189,3.618l-76.193,-0l0,-256.354l117.84,0l-0,-80.641Z" style="fill:#f2c761;"/><rect id="zone-11x37-11x40" x="2452.35" y="4728.68" width="133.502" height="240.884" style="fill:#f2c761;"/><rect id="zone-11x34-11x36" x="2182.38" y="4969.56" width="210.969" height="80.641" style="fill:#f2c761;"/><rect id="zone-11x30-11x33" x="1668.18" y="4867.87" width="383.08" height="182.338" style="fill:#f2c761;"/><path id="zone-11x23-11x29" d="M1074.74,5050.2l-371.811,0l-0,-157.101l154.194,-0l-0,-25.237l217.617,0l0,182.338Z" style="fill:#f2c761;"/><rect id="zone-11x16-11x22" x="1074.74" y="4867.87" width="593.434" height="182.338" style="fill:#f2c761;"/><rect id="zone-11x06-11x15" x="924.973" y="5102.91" width="675.356" height="175.094" style="fill:#f2c761;"/><path id="zone-11x03-11x05" d="M675.492,5265.11l-281.508,-0l-0,-292.037l156.377,-0l0,129.845l125.131,-0l0,162.192Z" style="fill:#f2c761;"/><rect id="zone-11x01-11x02" x="265.637" y="4750.35" width="284.724" height="147.301" style="fill:#f2c761;"/></g><g id="图标"><g id="楼梯"><rect x="846.166" y="3914.16" width="81.417" height="184.355" style="fill:#f00;"/><rect x="393.984" y="4228.22" width="156.377" height="84.072" style="fill:#f00;"/><rect x="857.126" y="5102.91" width="67.847" height="175.094" style="fill:#f00;"/><rect x="1600.33" y="5102.91" width="67.847" height="175.094" style="fill:#f00;"/><rect x="393.984" y="4897.65" width="156.377" height="75.42" style="fill:#f00;"/><rect x="2341.61" y="3914.16" width="65.552" height="184.355" style="fill:#f00;"/><rect x="2452.35" y="4617.38" width="133.502" height="111.294" style="fill:#f00;"/><rect x="1793.83" y="4867.87" width="67.847" height="182.338" style="fill:#f00;"/></g><g id="厕所"><rect x="2407.17" y="4492.78" width="178.68" height="124.603" style="fill:#00f;"/><rect x="602.015" y="4893.1" width="100.917" height="157.101" style="fill:#00f;"/><rect x="602.015" y="4176.07" width="101.647" height="142.75" style="fill:#00f;"/><rect x="2051.26" y="4900.99" width="82.934" height="149.217" style="fill:#00f;"/></g><path id="_2-3-4" serif:id="2-3-4" d="M2452.35,5102.91l-1901.98,-0l0,-1145.98l51.654,0l-0,141.582l1805.15,-0l0,518.867l45.179,0l-0,485.529Zm-1850.33,-926.844l-0,874.135l1791.33,0l-0,-324.264l-61.553,0l-0,-549.871l-1729.78,-0Z" style="fill:#34ba6f;"/></g><path id="_2-3-4轮廓" serif:id="2-3-4轮廓" d="M265.637,4750.35l128.347,0l-0,-289.456l-145.788,0l-0,-150.758l145.788,-0l-0,-353.198l208.031,0l-0,141.582l244.151,-0l0,-184.355l1739.68,0l0,1173.05l-0.461,-0c-6.782,108.509 -87.611,197.083 -192.496,215.728c-13.373,2.377 -27.137,3.618 -41.189,3.618l-557.87,-0l0,-28.552l-936.704,0l-0,-175.093l-181.634,-0l0,162.192l-281.508,-0l-0,-367.457l-128.347,-0l-0,-147.301Zm2066.16,-26.244l-0,-405.284l-1629.25,-0l-0,573.814l154.583,-0l-0,-24.767l1194.13,0l0,182.338l129.475,0l0,-80.641l212.616,-0l-0,-245.46l-61.553,0Z" style="fill:none;stroke:#000;stroke-width:8.33px;"/></g><g id="B"><g id="房间3-4F"><rect id="zone-22x52-22x63" x="696.699" y="2101.47" width="948.987" height="205.051" style="fill:#ffcece;"/><rect id="zone-22x45-22x51" x="1645.69" y="2101.47" width="640.278" height="204.949" style="fill:#ffcece;"/><rect id="zone-22x42-22x45" x="1703.7" y="2810.63" width="582.265" height="180.085" style="fill:#ffcece;"/><rect id="zone-22x34-22x41" x="1703.7" y="3054.98" width="660.565" height="185.865" style="fill:#ffcece;"/><rect id="zone-22x27-22x33" x="2422.14" y="2531.14" width="171.828" height="709.696" style="fill:#ffcece;"/><rect id="zone-22x23-22x26" x="2422.14" y="2106.08" width="178.303" height="425.063" style="fill:#ffcece;"/><rect id="zone-22x11-22x22" x="1305.54" y="1844.06" width="1294.91" height="205.051" style="fill:#ffcece;"/><rect id="zone-22x07-22x10" x="688.331" y="1844.06" width="365.068" height="205.051" style="fill:#ffcece;"/><rect id="zone-22x01-22x07" x="393.984" y="2035.73" width="302.716" height="354.684" style="fill:#ffcece;"/><rect id="zone-21x29-21x37" x="889.288" y="3054.98" width="814.411" height="250.78" style="fill:#ffcece;"/><rect id="zone-21x21-21x28" x="956.983" y="2810.63" width="602.179" height="180.085" style="fill:#ffcece;"/><rect id="zone-21x17-21x20" x="602.616" y="2390.41" width="94.083" height="420.216" style="fill:#ffcece;"/><rect id="zone-21x01-21x16" x="393.984" y="2390.41" width="156.979" height="1566.52" style="fill:#ffcece;"/></g><g id="图标1" serif:id="图标"><g id="楼梯1" serif:id="楼梯"><rect x="393.984" y="2176.85" width="156.979" height="75.442" style="fill:#f00;"/><rect x="1223.28" y="1844.06" width="82.254" height="205.051" style="fill:#f00;"/><rect x="2285.96" y="2106.08" width="78.3" height="267.905" style="fill:#f00;"/><rect x="393.984" y="2818.89" width="156.979" height="81.562" style="fill:#f00;"/><rect x="811.414" y="3054.98" width="77.874" height="250.78" style="fill:#f00;"/><rect x="1559.16" y="2809.49" width="144.537" height="181.228" style="fill:#f00;"/><rect x="1894.12" y="2809.49" width="81.871" height="181.228" style="fill:#f00;"/><rect x="2285.96" y="2750.28" width="77.698" height="240.437" style="fill:#f00;"/></g><g id="卫生间"><rect x="2206.68" y="1844.06" width="156.979" height="205.051" style="fill:#00f;"/><rect x="602.616" y="2810.63" width="94.083" height="180.085" style="fill:#00f;"/><rect x="1976" y="2810.63" width="159.16" height="180.085" style="fill:#00f;"/><rect x="602.616" y="2106.08" width="94.083" height="146.208" style="fill:#00f;"/><rect x="807.005" y="2810.63" width="149.977" height="180.085" style="fill:#00f;"/><rect x="1053.4" y="1844.06" width="169.885" height="205.051" style="fill:#00f;"/></g><rect x="696.699" y="2814.73" width="110.306" height="175.989" style="fill:#ffcece;"/><path id="_3-4楼" serif:id="3-4楼" d="M602.616,3054.98l0,901.959l-51.653,0l-0,-1921.62l51.653,0l0,13.792l1997.83,0l-0,56.974l-178.303,-0l0,1134.76l-57.878,-0l-0,-185.865l-1761.65,0Zm0,-948.895l0,884.634l1761.65,-0l-0,-884.634l-1761.65,-0Z" style="fill:#34ba6f;"/></g><path id="_3-4轮廓" serif:id="3-4轮廓" d="M688.331,1844.06l1912.11,0l-0,1396.79l-896.746,-0l-0,64.915l-892.285,-0l-0,-250.78l-208.798,0l0,901.959l-208.632,0l-0,-1921.62l294.347,0l-0,-191.259Zm8.368,966.574l1589.27,0l-0,-504.207l-1589.27,-0l0,504.207Z" style="fill:none;stroke:#000;stroke-width:8.33px;"/></g><g id="C"><g id="房间"><rect id="zone-32x06-32x07" x="594.621" y="462.765" width="93.71" height="139.707" style="fill:#afe1ff;"/><rect id="zone-31x15-31x18" x="276.841" y="868.221" width="410.722" height="130.026" style="fill:#afe1ff;"/><rect id="zone-31x01-31x14" x="307.414" y="1070.73" width="243.549" height="964.589" style="fill:#afe1ff;"/><rect id="zone-32x01-32x02" x="276.841" y="462.765" width="274.122" height="139.707" style="fill:#afe1ff;"/><rect id="zone-32x04-32x05" x="383.312" y="143.552" width="272.57" height="236.375" style="fill:#afe1ff;"/></g><g id="楼梯2" serif:id="楼梯"><g id="自习长廊"><rect x="240.03" y="379.438" width="36.81" height="618.809" style="fill:#fff;"/><rect x="240.03" y="1070.96" width="67.384" height="964.359" style="fill:#fff;"/></g><rect x="276.841" y="379.438" width="274.122" height="83.327" style="fill:#f00;"/><rect x="240.03" y="998.247" width="310.933" height="72.71" style="fill:#f00;"/><g id="厕所1" serif:id="厕所"><rect x="594.621" y="310.822" width="93.71" height="151.943" style="fill:#00f;"/><rect x="594.621" y="998.247" width="93.71" height="149.242" style="fill:#00f;"/></g><rect x="254.028" y="2035.32" width="53.386" height="66.159" style="fill:#f20d0d;"/></g><path id="走廊" d="M550.963,2035.32l-0,-1787.93l137.368,0l-0,63.435l-93.71,-0l0,836.666l85.169,0l-0,62.721l-85.169,-0l0,825.106l-43.658,0Z" style="fill:#34ba6f;"/><g id="文字"><g><text x="237.602px" y="579.842px" style="font-family:'NotoSansMonoCJKsc-Regular', 'Noto Sans Mono CJK SC', sans-serif;font-size:41.667px;">自</text><text x="237.602px" y="663.176px" style="font-family:'NotoSansMonoCJKsc-Regular', 'Noto Sans Mono CJK SC', sans-serif;font-size:41.667px;">习</text><text x="237.602px" y="746.509px" style="font-family:'NotoSansMonoCJKsc-Regular', 'Noto Sans Mono CJK SC', sans-serif;font-size:41.667px;">长</text><text x="237.602px" y="829.842px" style="font-family:'NotoSansMonoCJKsc-Regular', 'Noto Sans Mono CJK SC', sans-serif;font-size:41.667px;">廊</text></g><g transform="matrix(1,0,0,1,-18.9408,0)"><text x="271.83px" y="1320.84px" style="font-family:'NotoSansMonoCJKsc-Regular', 'Noto Sans Mono CJK SC', sans-serif;font-size:41.667px;">自</text><text x="271.83px" y="1487.51px" style="font-family:'NotoSansMonoCJKsc-Regular', 'Noto Sans Mono CJK SC', sans-serif;font-size:41.667px;">习</text><text x="271.83px" y="1654.17px" style="font-family:'NotoSansMonoCJKsc-Regular', 'Noto Sans Mono CJK SC', sans-serif;font-size:41.667px;">长</text><g transform="matrix(41.6667,0,0,41.6667,313.496,1820.84)"></g><text x="271.83px" y="1820.84px" style="font-family:'NotoSansMonoCJKsc-Regular', 'Noto Sans Mono CJK SC', sans-serif;font-size:41.667px;">廊</text></g></g><path id="轮廓" d="M383.312,143.552l272.57,-0l-0,103.835l32.449,0l-0,962.822l-93.71,-0l0,825.521l-354.591,-0l0,-1656.29l143.282,-0l-0,-235.886Z" style="fill:none;stroke:#000;stroke-width:8.33px;"/></g><g id="图例"><g><path d="M2406.18,1252.71l-49.897,20.841l66.529,-171.672l66.529,171.672l-49.897,-20.841l0,95.658l-33.264,0l-0,-95.658Z" style="stroke:#000;stroke-width:3.33px;"/><g transform="matrix(208.333,0,0,208.333,2526.98,977.891)"></g><text x="2318.64px" y="977.891px" style="font-family:'NotoSansMonoCJKsc-Bold', 'Noto Sans Mono CJK SC', sans-serif;font-weight:700;font-size:208.333px;">北</text></g><g><g id="出入口"><rect x="1183.13" y="573.603" width="129.947" height="129.947" style="fill:#34ba6f;"/><g transform="matrix(150,0,0,150,1894.96,696.177)"></g><text x="1594.96px" y="696.177px" style="font-family:'NotoSansMonoCJKsc-Regular', 'Noto Sans Mono CJK SC', sans-serif;font-size:150px;fill:#34ba6f;">走廊</text></g><g id="厕所2" serif:id="厕所"><rect x="1183.13" y="855.416" width="129.947" height="129.947" style="fill:#00f;"/><g transform="matrix(150,0,0,150,1894.96,977.99)"></g><text x="1594.96px" y="977.99px" style="font-family:'NotoSansMonoCJKsc-Regular', 'Noto Sans Mono CJK SC', sans-serif;font-size:150px;fill:#00f;">厕所</text></g><g id="楼梯3" serif:id="楼梯"><rect x="1183.13" y="1137.23" width="129.947" height="129.947" style="fill:#f00;"/><g transform="matrix(150,0,0,150,2082.46,1259.8)"></g><text x="1407.46px" y="1259.8px" style="font-family:'NotoSansMonoCJKsc-Regular', 'Noto Sans Mono CJK SC', sans-serif;font-size:150px;fill:#f00;">楼梯/电梯</text></g><g id="楼梯4" serif:id="楼梯"><rect x="1183.13" y="1419.04" width="129.947" height="129.947" style="fill:#c333cc;"/><g transform="matrix(150,0,0,150,1969.96,1541.62)"></g><text x="1519.96px" y="1541.62px" style="font-family:'NotoSansMonoCJKsc-Regular', 'Noto Sans Mono CJK SC', sans-serif;font-size:150px;fill:#c333cc;">出入口</text></g></g><g transform="matrix(200,0,0,200,2498.37,361.658)"></g><text x="1298.37px" y="361.658px" style="font-family:'NotoSansMonoCJKsc-Bold', 'Noto Sans Mono CJK SC', sans-serif;font-weight:700;font-size:200px;">敏行楼剖面图</text><g id="楼号"><g transform="matrix(266.667,0,0,266.667,937.531,1148.66)"></g><text x="804.198px" y="1148.65px" style="font-family:'NotoSansMonoCJKsc-Bold', 'Noto Sans Mono CJK SC', sans-serif;font-weight:700;font-size:266.667px;">A</text><g transform="matrix(266.667,0,0,266.667,1558,2661.46)"></g><text x="1424.66px" y="2661.46px" style="font-family:'NotoSansMonoCJKsc-Bold', 'Noto Sans Mono CJK SC', sans-serif;font-weight:700;font-size:266.667px;">B</text><g transform="matrix(266.667,0,0,266.667,1580.9,4694.84)"></g><text x="1447.57px" y="4694.84px" style="font-family:'NotoSansMonoCJKsc-Bold', 'Noto Sans Mono CJK SC', sans-serif;font-weight:700;font-size:266.667px;">C</text></g></g></svg>